<svg width="532" height="306" viewBox="0 0 532 306" fill="none" xmlns="http://www.w3.org/2000/svg">
<path fill-rule="evenodd" clip-rule="evenodd" d="M251 40.5002C334.579 40.5002 406.302 23.9154 437.024 0.268677C455.302 12.1561 462.854 51.3609 457 146.14C457 230.485 365 312.5 261.501 305.5C165.5 311 72.0005 230.485 72.0005 146.139C60.1651 82.7465 68.9472 39.7541 87.9225 13.4559C124.675 29.8526 184.032 40.5002 251 40.5002Z" fill="#6C9F9C"/>
<path fill-rule="evenodd" clip-rule="evenodd" d="M473.5 144.5C505.809 144.5 532 118.309 532 86C532 53.6913 505.809 27.5 473.5 27.5C441.191 27.5 415 53.6913 415 86C415 118.309 441.191 144.5 473.5 144.5ZM476.5 121.5C496.106 121.5 512 105.606 512 86C512 66.3939 496.106 50.5 476.5 50.5C456.894 50.5 441 66.3939 441 86C441 105.606 456.894 121.5 476.5 121.5Z" fill="#6C9F9C"/>
<path fill-rule="evenodd" clip-rule="evenodd" d="M58.5 144.5C90.8087 144.5 117 118.309 117 86C117 53.6913 90.8087 27.5 58.5 27.5C26.1913 27.5 0 53.6913 0 86C0 118.309 26.1913 144.5 58.5 144.5ZM61.5 121.5C81.1061 121.5 97 105.606 97 86C97 66.3939 81.1061 50.5 61.5 50.5C41.8939 50.5 26 66.3939 26 86C26 105.606 41.8939 121.5 61.5 121.5Z" fill="#6C9F9C"/>
<path d="M384 303.5V271.5L352 287.302L384 303.5Z" fill="#598987"/>
<path d="M142 305.5L143 269L177 289L142 305.5Z" fill="#598987"/>
<path d="M391.5 214.504H379H376C381.167 203.171 394.2 174.104 405 148.504C418.5 116.504 411 66.0043 426 60.0043C441 54.0043 436.5 102.504 426 154.504C417.6 196.104 399.5 211.838 391.5 214.504Z" fill="#6DB2AD"/>
</svg>
