<svg width="532" height="388" viewBox="0 0 532 388" fill="none" xmlns="http://www.w3.org/2000/svg">
<path fill-rule="evenodd" clip-rule="evenodd" d="M251 122.5C334.579 122.5 406.302 105.915 437.024 82.2687C455.302 94.1561 462.854 133.361 457.001 228.14C457.001 312.485 365 394.5 261.501 387.5C165.5 393 72.0007 312.485 72.0007 228.139C60.1652 164.747 68.9474 121.754 87.9226 95.4559C124.675 111.853 184.032 122.5 251 122.5Z" fill="#6C9F9C"/>
<path fill-rule="evenodd" clip-rule="evenodd" d="M473.5 226.5C505.809 226.5 532 200.309 532 168C532 135.691 505.809 109.5 473.5 109.5C441.191 109.5 415 135.691 415 168C415 200.309 441.191 226.5 473.5 226.5ZM476.5 203.5C496.106 203.5 512 187.606 512 168C512 148.394 496.106 132.5 476.5 132.5C456.894 132.5 441 148.394 441 168C441 187.606 456.894 203.5 476.5 203.5Z" fill="#6C9F9C"/>
<path fill-rule="evenodd" clip-rule="evenodd" d="M58.5 226.5C90.8087 226.5 117 200.309 117 168C117 135.691 90.8087 109.5 58.5 109.5C26.1913 109.5 0 135.691 0 168C0 200.309 26.1913 226.5 58.5 226.5ZM61.5 203.5C81.1061 203.5 97 187.606 97 168C97 148.394 81.1061 132.5 61.5 132.5C41.8939 132.5 26 148.394 26 168C26 187.606 41.8939 203.5 61.5 203.5Z" fill="#6C9F9C"/>
<path d="M444.335 71.7049C453.856 138.299 359.658 150.5 258.912 150.5C158.167 150.5 78 132.152 78 80.9257C78 25.0887 158.167 0.5 258.912 0.5C359.658 0.5 444.335 32.0966 444.335 71.7049Z" fill="#77ACA9"/>
<ellipse cx="263.5" cy="67.5" rx="142.5" ry="55" fill="#568582"/>
<path d="M384 385.5V353.5L352 369.302L384 385.5Z" fill="#598987"/>
<path d="M142 387.5L143 351L177 371L142 387.5Z" fill="#598987"/>
</svg>
