<svg width="614" height="178" viewBox="0 0 614 178" fill="none" xmlns="http://www.w3.org/2000/svg">
<path d="M3.53164 157.68L87.2818 30.6645L505.528 23.3943H523.187L610.468 153.831L614 159.819V165.378H354.677L339.542 170.51L327.938 172.221L301.703 173.931L277.99 173.076L265.377 171.793C262.518 171.223 256.094 169.911 253.269 169.227C250.443 168.543 244.356 165.806 241.665 164.523H0V157.68H3.53164Z" fill="#A2A54E"/>
<path d="M341.502 158.785C336.968 161.62 333.241 166.866 326.391 168.567C320.138 170.12 302.718 169.843 296.674 169.843C296.17 169.779 291.914 170.097 279.045 169.417C262.928 168.567 267.965 168.567 261.92 166.44C257.028 164.719 253.694 161.053 252.854 158.785H9.07389L88.6551 34.1753L507.715 29.4971H518.796L603.918 158.785H341.502Z" fill="#B9AEA0"/>
<path d="M303.98 21.7537L301.455 145.451C305.832 141.47 316.506 132.826 324.183 130.096C333.779 126.684 345.396 124.551 353.982 123.698C360.851 123.015 363.242 122.845 363.578 122.845H410.045C437.15 124.551 492.977 127.963 499.442 127.963C507.523 127.963 545.403 125.404 555.505 122.845C563.586 120.797 565.606 117.442 565.606 116.02L502.977 10.6636C480.249 7.10906 429.843 0 410.045 0C385.296 0 361.558 3.41235 344.891 5.54507C332.051 7.18805 312.23 15.9243 303.98 21.7537Z" fill="#FCF3E8"/>
<path d="M303.471 21.8177L301.962 145.451C297.659 141.47 286.865 136.631 279.32 133.901C269.888 130.489 259.079 129.193 250.64 128.339C243.888 127.657 241.41 127.056 241.08 127.056C237.605 127.056 228.048 125.773 216.928 125.773C203.028 125.773 208.192 124.917 194.789 124.917C168.147 126.623 113.593 130.051 107.239 130.051C99.2963 130.051 61.9548 133.901 52.3948 133.901C44.095 133.901 35.2874 135.323 35.2874 133.901L103.888 10.6636C126.227 7.10906 175.771 0 195.23 0C219.555 0 242.887 3.41235 259.269 5.54507C271.889 7.18805 295.363 15.9883 303.471 21.8177Z" fill="#FCF3E8"/>
<path d="M31.3095 140.649C30.9059 139.277 32.8231 135.506 33.8321 133.792L35.8502 134.221L44.427 133.364H56.0309L82.7703 131.221L126.159 128.65L160.971 126.507L193.764 124.365L227.062 125.65L261.874 129.079L277.01 132.507L292.65 139.363L301.226 144.505L320.398 130.793L328.47 128.221L353.192 123.079L364.796 122.651L407.175 121.794L464.186 125.65L508.079 126.936L554.494 122.651L563.071 118.794L565.089 114.937L580.729 132.935L579.216 135.935L580.729 141.077L579.216 142.791L580.729 149.219L579.216 149.648L579.72 151.362L578.206 156.504L475.285 147.505L414.743 144.934H383.967C379.931 144.934 370.513 145.505 366.309 145.791C358.237 146.934 341.285 149.391 338.056 150.076C334.827 150.762 324.266 153.504 319.389 154.79C321.239 156.076 324.838 158.904 324.434 159.932C323.93 161.218 284.073 160.789 281.046 159.504C278.624 158.475 281.382 155.933 283.064 154.79C270.283 152.362 242.097 147.077 231.603 145.362C218.486 143.22 202.845 145.791 189.728 145.362C179.234 145.02 81.0886 151.79 33.3276 155.219V152.219L31.814 148.791L33.3276 143.22C32.8231 142.934 31.7131 142.02 31.3095 140.649Z" fill="#E1D2BF"/>
<path d="M213.741 154.156C214.95 148.706 214.245 143.37 213.741 141.383H240.962L242.461 144.865C244.114 148.704 244.612 152.948 243.895 157.07L242.475 165.227L237.434 178L225.335 165.227L206.683 176.723C208.531 171.471 212.531 159.606 213.741 154.156Z" fill="#F6ABAA"/>
<path d="M481.053 116.245C472.952 122.032 456.75 124.898 449.662 125.607L497.255 128.16L533.709 126.032L554.467 123.905L563.074 120.5L565.606 116.67L564.087 113.692C552.273 108.302 526.519 96.6701 518.013 93.2658C509.507 89.8615 497.592 87.3082 492.698 86.4571C492.191 93.975 489.154 110.458 481.053 116.245Z" fill="#F8E8D3"/>
</svg>
