<svg width="609" height="176" viewBox="0 0 609 176" fill="none" xmlns="http://www.w3.org/2000/svg">
<path d="M3.50288 156.023L86.5711 31.1477L501.412 24H518.926L605.497 152.239L609 158.125V163.591H404.832H351.789L336.777 168.636L325.267 170.318L299.246 172L275.726 171.159L263.216 169.898C260.38 169.337 254.009 168.048 251.206 167.375C248.404 166.702 242.366 164.011 239.697 162.75H0V156.023H3.50288Z" fill="#A2A54E"/>
<path d="M338.721 157.109C334.224 159.896 330.528 165.053 323.733 166.726C317.531 168.252 300.253 167.98 294.258 167.98C293.759 167.918 289.537 168.23 276.773 167.562C260.787 166.726 265.782 166.726 259.787 164.635C254.935 162.943 251.628 159.339 250.795 157.109H9L87.9331 34.5993L503.581 30H514.572L599 157.109H338.721Z" fill="#B9AEA0"/>
<path d="M301.505 22.3871L299 144C303.342 140.086 313.928 131.587 321.543 128.903C331.061 125.548 342.583 123.452 351.099 122.613C357.912 121.942 360.284 121.774 360.618 121.774H385.164H406.706C433.59 123.452 488.963 126.806 495.375 126.806C503.39 126.806 540.962 124.29 550.981 121.774C558.996 119.761 561 116.462 561 115.065L498.881 11.4839C476.338 7.98925 426.343 1 406.706 1C382.159 1 358.614 4.35484 342.082 6.45161C329.347 8.0669 309.687 16.6559 301.505 22.3871Z" fill="#FCF3E8" stroke="#FCF3E8"/>
<path d="M301 22.45L299.503 144C295.236 140.086 284.529 135.328 277.045 132.644C267.69 129.289 256.969 128.015 248.598 127.176C241.902 126.506 239.445 125.915 239.116 125.915C235.67 125.915 226.191 124.653 215.161 124.653C201.375 124.653 206.497 123.812 193.203 123.812C166.778 125.489 112.668 128.859 106.366 128.859C98.4877 128.859 61.4503 132.644 51.9681 132.644C43.7359 132.644 35 134.042 35 132.644L103.042 11.4839C125.199 7.98925 174.339 1 193.641 1C217.767 1 240.909 4.35484 257.158 6.45161C269.675 8.0669 292.958 16.7188 301 22.45Z" fill="#FCF3E8"/>
<path d="M31.0545 139.278C30.6542 137.93 32.5558 134.223 33.5566 132.537L35.5582 132.959L44.0652 132.116H55.5746L82.0963 130.01L125.131 127.482L159.66 125.375L192.186 123.269L225.213 124.533L259.741 127.903L274.754 131.273L290.266 138.014L298.773 143.07L317.789 129.588L325.796 127.06L350.316 122.005L361.825 121.583L403.859 120.741L460.406 124.533L503.941 125.796L549.979 121.583L558.486 117.792L560.487 114L576 131.695L574.499 134.644L576 139.7L574.499 141.385L576 147.704L574.499 148.126L574.999 149.811L573.498 154.866L471.415 146.019L411.365 143.491H380.84C376.837 143.491 367.496 144.053 363.326 144.334C355.32 145.457 338.506 147.873 335.303 148.547C332.101 149.221 321.625 151.917 316.788 153.181C318.623 154.445 322.193 157.226 321.792 158.237C321.292 159.501 281.759 159.079 278.757 157.816C276.355 156.804 279.091 154.305 280.759 153.181C268.082 150.794 240.125 145.598 229.717 143.913C216.706 141.806 201.194 144.334 188.183 143.913C177.774 143.575 80.4282 150.232 33.0562 153.603V150.653L31.555 147.283L33.0562 141.806C32.5558 141.525 31.4549 140.626 31.0545 139.278Z" fill="#E1D2BF"/>
<path d="M212 152.558C213.2 147.2 212.5 141.953 212 140H239L240.487 143.423C242.126 147.197 242.62 151.37 241.909 155.422L240.5 163.442L235.5 176L223.5 163.442L205 174.744C206.833 169.581 210.8 157.916 212 152.558Z" fill="#F6ABAA"/>
<path d="M298.5 142L300.5 22.5" stroke="#E1D2BF"/>
<path d="M477.135 115.286C469.1 120.976 453.031 123.793 446 124.49L493.205 127L529.362 124.908L549.952 122.816L558.489 119.469L561 115.704L559.493 112.776C547.776 107.476 522.231 96.0408 513.795 92.6939C505.358 89.3469 493.54 86.8367 488.686 86C488.183 93.3912 485.17 109.596 477.135 115.286Z" fill="#F8E8D3"/>
</svg>
