<svg width="337" height="382" viewBox="0 0 337 382" fill="none" xmlns="http://www.w3.org/2000/svg">
<path d="M167.848 0L337 380.994H0.431396L167.848 0Z" fill="#6C9F9C"/>
<path d="M206.931 185.239L174.552 235.129L146.611 182.753L206.931 185.239Z" fill="#F6BE61"/>
<path d="M164.626 202.982L330.019 380.726L-0.000244141 381.8L164.626 202.982Z" fill="#FFE7E3"/>
<circle cx="164.089" cy="234.664" r="10.2028" fill="#6C9F9C"/>
<path d="M208.687 117L163.345 79.805L198.532 68.482L203.5 80.5L210.335 95.504L208.687 117Z" fill="#F6BE61"/>
<path d="M144.702 121.851L100.54 152.803L116.903 116.062L144.702 121.851Z" fill="#F6BE61"/>
<path d="M265.454 218.845L284.592 262.398L234.458 253.81L265.454 218.845Z" fill="#F6BE61"/>
<path fill-rule="evenodd" clip-rule="evenodd" d="M51.5977 264.562L70.4022 283.121L86.2252 226.112L66.6575 231.147L51.5977 264.562Z" fill="#F6BE61"/>
</svg>
