<svg width="337" height="382" viewBox="0 0 337 382" fill="none" xmlns="http://www.w3.org/2000/svg">
<path d="M167.848 0L337 380.994H0.431396L167.848 0Z" fill="#6C9F9C"/>
<circle cx="182" cy="170" r="28" fill="#F6BE61"/>
<path d="M164.626 202.982L330.019 380.726L-0.000244141 381.8L164.626 202.982Z" fill="#FFE7E3"/>
<circle cx="164.089" cy="234.664" r="10.2028" fill="#6C9F9C"/>
<path fill-rule="evenodd" clip-rule="evenodd" d="M273.95 238.901L296.301 287.608C291.502 292.189 285.083 295.121 277.927 295.442C262.245 296.143 248.965 284.032 248.266 268.391C247.587 253.233 258.973 240.323 273.95 238.901Z" fill="#F6BE61"/>
<path fill-rule="evenodd" clip-rule="evenodd" d="M178.021 23.0499L200.923 74.5777C199.025 74.9155 197.065 75.0944 195.061 75.0988C177.969 75.1362 164.086 62.4742 164.052 46.8175C164.03 36.8836 169.589 28.1308 178.021 23.0499Z" fill="#F6BE61"/>
<path fill-rule="evenodd" clip-rule="evenodd" d="M106.55 139.601L129.478 88.468C137.561 93.7216 142.76 102.968 142.378 113.301C141.8 128.948 128.648 141.163 113.002 140.585C110.773 140.503 108.613 140.165 106.55 139.601Z" fill="#F6BE61"/>
<path fill-rule="evenodd" clip-rule="evenodd" d="M50.51 266.911L67.9427 227.666C71.4281 226.412 75.1426 225.777 78.8961 225.902C94.5442 226.425 104.945 239.973 104.422 255.621C103.898 271.269 90.7891 283.53 75.1411 283.007C64.2104 282.641 54.9324 276.135 50.51 266.911Z" fill="#F6BE61"/>
</svg>
