<svg width="346" height="390" viewBox="0 0 346 390" fill="none" xmlns="http://www.w3.org/2000/svg">
<path d="M172.128 0L346 389.835H0L172.128 0Z" fill="#A3A54F"/>
<path d="M42.9554 292.011L60.6452 250.949C63.5925 250.039 66.7346 249.578 69.9887 249.648C86.241 249.995 99.1338 263.425 98.7855 279.644C98.4372 295.862 84.9798 308.728 68.7276 308.381C57.3749 308.138 47.6615 301.512 42.9554 292.011Z" fill="#E3AF59"/>
<path d="M195.83 199.98C195.83 215.918 182.883 228.838 166.912 228.838C150.941 228.838 137.994 215.918 137.994 199.98C137.994 184.043 150.941 171.122 166.912 171.122C182.883 171.122 195.83 184.043 195.83 199.98Z" fill="#E3AF59"/>
<path d="M218.152 323.513C218.152 339.45 205.206 352.371 189.235 352.371C173.264 352.371 160.317 339.45 160.317 323.513C160.317 307.575 173.264 294.655 189.235 294.655C205.206 294.655 218.152 307.575 218.152 323.513Z" fill="#E3AF59"/>
<path d="M290.776 269.064L312.963 315.265C304.657 326.87 288.695 331.411 275.038 325.334C259.774 318.543 253.17 301.063 260.287 286.291C265.699 275.057 278.325 268.55 290.776 269.064Z" fill="#E3AF59"/>
<path d="M126.849 105.45L149.795 52.0932C158.273 57.4007 163.826 66.8925 163.603 77.6047C163.265 93.8235 149.816 106.698 133.563 106.361C131.248 106.313 129 105.999 126.849 105.45Z" fill="#E3AF59"/>
<path d="M109.461 388.904L51.2884 390C52.6453 380.104 59.028 371.147 68.9026 366.941C83.8533 360.572 101.147 367.503 107.53 382.423C108.439 384.549 109.078 386.722 109.461 388.904Z" fill="#E3AF59"/>
<path d="M217.092 101.174L240.898 154.551C238.928 154.902 236.893 155.088 234.812 155.094C217.066 155.142 202.645 142.029 202.602 125.807C202.574 115.514 208.34 106.443 217.092 101.174Z" fill="#E3AF59"/>
</svg>
