<svg width="355" height="444" viewBox="0 0 355 444" fill="none" xmlns="http://www.w3.org/2000/svg">
<path d="M185.898 52.7376L355 433.262H18.541L185.898 52.7376Z" fill="#F6BE61"/>
<path d="M118.768 293.321L125.334 313.407H146.546L129.42 325.817L135.986 345.902L118.86 333.493L101.734 345.902L108.3 325.817L91.1735 313.407H112.386L118.952 293.321H118.768Z" fill="#F08583"/>
<path d="M46.5417 378.706L53.1074 398.792H74.3198L57.1938 411.201L63.7595 431.287L46.6335 418.877L29.5075 431.287L36.0733 411.201L18.9473 398.792H40.1596L46.7254 378.706H46.5417Z" fill="#F08583"/>
<path d="M229.114 261.176L235.679 281.262H256.892L239.766 293.672L246.331 313.758L229.205 301.348L212.079 313.758L218.645 293.672L201.519 281.262H222.732L229.297 261.176H229.114Z" fill="#F08583"/>
<path d="M219.856 105.475L226.33 125.561H247.312L230.37 137.971L236.844 158.056L219.902 145.646L202.959 158.056L209.433 137.971L192.491 125.561H213.474L219.948 105.475H219.856Z" fill="#F08583"/>
<path d="M154.652 175.792L161.125 195.648H182.108L165.166 207.92L171.64 227.776L154.697 215.504L137.755 227.776L144.229 207.92L127.287 195.648H148.269L154.743 175.792H154.652Z" fill="#F08583"/>
<path d="M294.21 356.458L300.775 376.314H321.988L304.862 388.586L311.427 408.442L294.301 396.17L277.175 408.442L283.741 388.586L266.615 376.314H287.828L294.393 356.458H294.21Z" fill="#F08583"/>
<path d="M185.978 389.756L192.544 409.612H213.757L196.631 421.884L203.196 441.739L186.07 429.467L168.944 441.739L175.51 421.884L158.384 409.612H179.596L186.162 389.756H185.978Z" fill="#F08583"/>
<path d="M182.041 297.397C187.597 297.397 192.096 292.754 192.096 287.055C192.096 281.356 187.597 276.713 182.041 276.713C176.486 276.713 171.986 281.356 171.986 287.055C171.986 292.754 176.486 297.397 182.041 297.397Z" fill="#F6BE61"/>
<path d="M210.046 104.973L243.749 99.448L263.789 153.074L235.604 163.636L210.046 104.973Z" fill="#F4C7C7"/>
<path d="M22.3336 340.534L50.4023 360.015L27.5971 412.522L0 400.502L22.3336 340.534Z" fill="#F4C7C7"/>
<path d="M164.403 432.95H223.588V444H164.403V432.95Z" fill="#4C2712"/>
<path d="M207.217 99.3733L193.976 93.2714L191.327 105.475L182.5 99.3733V102.86L173.672 93.2714L169.258 102.86L164.844 93.2714H156.017L152.486 87.1695L142.775 81.0676L148.955 74.9658L142.775 73.2224L147.189 61.8904H142.775L135.713 60.147L142.775 50.5583H131.299L138.361 43.5848L142.775 37.4829L135.713 33.9961L148.955 29.6376L138.361 20.049L152.486 23.5358V15.6905H164.844L159.548 6.97356H178.086L180.734 5.23017L187.796 0L196.624 9.58865L209.865 5.23017L212.514 15.6905H226.638L223.107 29.6376L234.583 33.9961L230.169 39.2263L241.645 47.9432H232.817L238.997 56.6602L234.583 61.8904L226.638 67.1205L234.583 71.479L221.341 78.4526L226.638 91.528H207.217V99.3733Z" fill="#F08583"/>
</svg>
