<svg width="357" height="432" viewBox="0 0 357 432" fill="none" xmlns="http://www.w3.org/2000/svg">
<path d="M188.428 52.5L357 431.31H21.595L188.428 52.5Z" fill="#F6BE61"/>
<path d="M121.508 292L128.053 311.995H149.199L132.127 324.349L138.672 344.344L121.6 331.99L104.527 344.344L111.072 324.349L94 311.995H115.146L121.691 292H121.508Z" fill="#F08583"/>
<path d="M49.508 377L56.0531 396.995H77.199L60.1267 409.349L66.6718 429.344L49.5995 416.99L32.5272 429.344L39.0723 409.349L22 396.995H43.1459L49.691 377H49.508Z" fill="#F08583"/>
<path d="M231.508 260L238.053 279.995H259.199L242.127 292.349L248.672 312.344L231.6 299.99L214.527 312.344L221.072 292.349L204 279.995H225.146L231.691 260H231.508Z" fill="#F08583"/>
<path d="M222.279 105L228.733 124.995H249.65L232.761 137.349L239.214 157.344L222.325 144.99L205.436 157.344L211.889 137.349L195 124.995H215.917L222.371 105H222.279Z" fill="#F08583"/>
<path d="M157.279 175L163.733 194.766H184.65L167.761 206.983L174.214 226.75L157.325 214.533L140.436 226.75L146.889 206.983L130 194.766H150.917L157.371 175H157.279Z" fill="#F08583"/>
<path d="M296.4 354.853L302.945 374.619H324.091L307.019 386.836L313.564 406.602L296.492 394.386L279.419 406.602L285.964 386.836L268.892 374.619H290.038L296.583 354.853H296.4Z" fill="#F08583"/>
<path d="M184.583 296.057C190.121 296.057 194.607 291.436 194.607 285.762C194.607 280.088 190.121 275.467 184.583 275.467C179.045 275.467 174.559 280.088 174.559 285.762C174.559 291.436 179.045 296.057 184.583 296.057Z" fill="#F6BE61"/>
<path d="M212.5 104.5L246.097 99L266.075 152.384L237.978 162.899L212.5 104.5Z" fill="#F4C7C7"/>
<path d="M25.3757 339L53.3565 358.393L30.6227 410.663L3.11207 398.698L25.3757 339Z" fill="#F4C7C7"/>
<path d="M209.68 98.9256L196.48 92.8512L193.84 105L185.04 98.9256V102.397L176.24 92.8512L171.84 102.397L167.44 92.8512H158.64L155.12 86.7769L145.44 80.7025L151.6 74.6281L145.44 72.8926L149.84 61.6116H145.44L138.4 59.876L145.44 50.3306H134L141.04 43.3884L145.44 37.314L138.4 33.843L151.6 29.5041L141.04 19.9587L155.12 23.4298V15.6198H167.44L162.16 6.94215H180.64L183.28 5.20661L190.32 0L199.12 9.54545L212.32 5.20661L214.96 15.6198H229.04L225.52 29.5041L236.96 33.843L232.56 39.0496L244 47.7273H235.2L241.36 56.405L236.96 61.6116L229.04 66.8182L236.96 71.157L223.76 78.0992L229.04 91.1157H209.68V97.1901V98.9256Z" fill="#F08583"/>
</svg>
