<svg width="258" height="266" viewBox="0 0 258 266" fill="none" xmlns="http://www.w3.org/2000/svg">
<path d="M243.112 208.897L232.498 220.103C232.188 220.43 232.42 220.968 232.869 220.968C233.002 220.968 233.13 221.019 233.225 221.111L235.083 222.903C235.827 223.62 236.358 224.529 236.618 225.529C237.031 227.123 238.125 228.454 239.607 229.168L242.587 230.604C244.995 231.765 247.771 231.896 250.277 230.966L252.949 229.976C254.497 229.402 255.635 228.065 255.955 226.446L256.229 225.063C256.569 223.339 255.49 221.653 253.782 221.242C253.046 221.065 252.273 221.147 251.591 221.476L250.972 221.774C250.69 221.91 250.396 222.02 250.095 222.103L248.38 222.576C248.196 222.626 248.005 222.652 247.814 222.652C246.388 222.652 245.364 221.28 245.769 219.913L246.218 218.397C246.309 218.092 246.355 217.774 246.355 217.456V210.189C246.355 208.49 244.28 207.664 243.112 208.897Z" fill="#61908E"/>
<path d="M71.1441 124.02C70.4668 121.987 69.8926 119.109 70.8717 116.105C72.3954 111.445 79.0941 109.706 76.7901 108.19C68.7443 102.874 61.8984 99.2341 53.1091 88.7834C43.2819 77.0892 42.6783 56.7396 51.762 44.3469C61.9278 30.4801 83.6507 27.3575 84.593 27.2387C94.5232 25.9324 99.3889 23.9275 110.158 21.1122C113.478 20.246 112.315 15.81 115.539 14.2173C119.831 12.0936 123.637 14.839 127.384 12.1774C129.327 10.7942 128.473 9.935 130.88 7.32232C133.825 4.12983 137.387 2.94224 141.105 1.70576C145.374 0.280662 148.437 -0.739254 150.527 0.685843C151.815 1.56605 151.514 2.54405 153.486 4.26255C155.121 5.68765 155.68 5.33138 157.793 6.81935C159.154 7.7764 161.451 9.39709 162.099 11.9259C162.607 13.9099 161.569 14.371 162.099 15.5027C163.424 18.3389 170.093 15.824 175.82 19.0794C179.361 21.0843 178.772 23.1591 182.276 26.2328C187.532 30.8364 194.415 31.0739 197.079 31.3394C211.088 32.7296 240.319 47.9166 251.979 71.1792C253.989 75.196 262.027 91.2354 255.476 107.191C254.143 110.439 250.669 118.899 242.019 124.557C235.085 129.098 226.333 130.852 226.679 133.241C226.9 134.75 230.455 134.456 231.795 137.327C232.317 138.445 232.229 140.289 232.067 143.971C231.949 146.549 231.773 147.191 232.339 147.799C233.569 149.126 235.733 147.492 238.008 148.749C239.899 149.79 239.193 151.355 241.777 153.933C243.558 155.707 244.375 155.442 244.765 156.524C245.59 158.816 242.152 160.562 241.902 163.685C241.681 166.472 244.176 168.274 246.193 170.601C251.331 176.525 254.438 187.066 251.523 194.303C250.095 197.852 246.017 203.574 246.841 206.647C246.907 206.899 247.224 207.94 247.231 209.365C247.231 210.538 247.032 211.426 246.709 212.697C245.818 216.267 245.744 216.078 245.538 217.14C245.325 218.23 244.449 222.749 246.318 223.804C246.753 224.049 247.386 224.14 247.879 223.93C248.91 223.483 248.438 222.086 249.44 221.094C250.61 219.934 252.907 220.221 254.121 220.598C254.592 220.745 256.006 221.192 256.852 222.449C258.118 224.328 257.36 226.871 256.462 228.254C254.452 231.342 249.16 232.523 245.015 231.461C237.514 229.54 236.587 220.961 232.008 221.213C229.24 221.366 229.159 224.524 223.815 229.358C218.471 234.192 212.737 236.295 210.028 237.259C204.198 239.334 204.124 237.916 195.983 240.095C191.971 241.171 181.15 244.07 180.112 249.107C179.714 251.042 180.112 253.305 180.112 253.305C180.288 254.304 180.509 255.569 181.415 256.882C182.202 258.028 182.681 258.007 183.108 258.733C184.175 260.549 183.115 263.937 181.025 265.279C177.933 267.256 172.39 264.874 169.445 261.702C166.258 258.258 167.612 255.492 165.154 252.446C161.775 248.254 154.863 248.101 149.416 248.247C132.043 248.716 122.061 252.425 111.564 253.927C109.776 254.178 93.0289 256.414 76.054 250.965C50.2162 242.673 38.188 227.479 28.9644 225.662C25.5194 224.985 26.7193 229.728 21.6768 232.949C14.4555 237.559 3.50205 238.027 0.866742 234.059C-0.782165 231.572 0.55021 226.927 3.0751 225.662C4.03205 225.187 5.63679 224.957 6.45389 225.662C7.32987 226.417 6.61584 227.646 7.36668 228.38C8.43405 229.421 11.9306 228.918 13.2188 227.143C14.4555 225.439 13.4397 222.854 9.70753 215.785C5.41596 207.674 4.44428 206.724 3.46524 204.552C-2.79177 190.72 0.137987 178.592 6.58639 166.283C8.73586 162.183 1.08021 161.561 1.38202 158.627C1.82369 154.373 8.90516 151.991 19.336 148.26C25.8948 145.913 36.0827 142.217 48.9942 137.272" fill="#6C9F9C"/>
<path d="M76.6209 90.2154C87.0664 104.858 102.422 111.746 111.638 114.896L141.738 123.447L170.815 127.142C178.33 128.714 195.372 131.131 212.177 122.867C218.096 119.954 226.936 115.609 230.404 106.541C235.902 92.1505 223.44 77.3476 221.187 74.6721C203.498 53.6519 168.893 51.3955 165.08 57.9621C163.586 60.5259 166.987 64.1236 164.469 67.0925C162.283 69.6703 156.549 70.7042 153.001 68.839C151.661 68.1334 151.087 67.2532 149.725 67.2812C147.48 67.3371 146.633 69.789 144.808 69.6144C143.254 69.4677 142.997 67.6025 141.738 67.0856C138.558 65.7862 134.789 76.3696 130.269 76.2159C125.484 76.0553 124.756 64.417 118.19 63.3901C114.538 62.8173 112.757 66.1075 108.156 65.5277C105.234 65.1575 101.443 63.4739 100.169 60.477C98.513 56.572 102.481 53.624 100.986 51.151C99.1167 48.0493 90.2759 48.3707 83.7833 51.3466C75.8406 54.9862 70.1724 63.1805 69.6572 71.7521C69.1861 79.611 73.1905 85.4022 76.6209 90.2154Z" fill="#EBE1E1" fill-opacity="0.87"/>
<path d="M82.0012 137.09C82.0012 137.09 54.382 137.817 39.5418 150.915C37.5838 152.64 35.3607 155.036 35.3754 158.026C35.4122 164.53 46.0123 169.441 53.9035 172.641C103.776 192.913 153.339 189.099 158.396 181.729C158.742 181.226 160.413 178.474 163.806 176.399C166.478 174.757 169.055 174.254 170.262 174.031C171.948 173.716 175.083 173.165 178.587 174.226C180.634 174.848 181.937 175.756 182.334 176.001C188.547 179.822 215.305 170.098 214.598 161.973C214.333 158.948 210.27 156.105 153.405 145.18C122.76 139.297 104.968 136.475 82.0086 137.083L82.0012 137.09Z" fill="#477E7A"/>
<path d="M197.694 58.5981L201.188 60.2821L201.887 60.9558L203.085 61.2926L125.011 118.893L116.974 116.872L197.694 58.5981Z" fill="white" fill-opacity="0.5"/>
<path d="M203.15 65.0209L203.295 65.9074L134.096 121.587L131.166 120.655L203.15 65.0209Z" fill="white" fill-opacity="0.5"/>
<path d="M139.077 56.9262C139.077 62.6932 136.261 67.3683 132.787 67.3683C129.313 67.3683 126.497 62.6932 126.497 56.9262C126.497 51.1592 129.313 46.4841 132.787 46.4841C136.261 46.4841 139.077 51.1592 139.077 56.9262Z" fill="#F6BD60"/>
<path d="M117.028 54.993C113.895 59.9062 108.957 62.4677 105.997 60.7143C103.038 58.9609 103.178 53.5566 106.311 48.6434C109.444 43.7302 114.382 41.1687 117.342 42.9221C120.301 44.6755 120.161 50.0799 117.028 54.993Z" fill="#F6BD60"/>
<path d="M160.671 52.556C163.227 57.7698 162.754 63.1565 159.614 64.5876C156.473 66.0187 151.854 62.9522 149.297 57.7384C146.741 52.5246 147.214 47.1378 150.355 45.7067C153.495 44.2756 158.114 47.3422 160.671 52.556Z" fill="#F6BD60"/>
<path d="M54.0817 172.295C53.8903 166.047 76.6953 158.69 94.9805 156.889C108.753 155.533 124.322 159.335 155.467 166.929C155.467 166.929 182.761 173.367 182.407 176.505C182.268 177.775 184.326 174.948 180.66 179.536C178.754 181.916 161.651 184.838 160.834 185.236C150.984 189.967 102.628 186.497 97.0554 185.236C58.9612 176.59 54.1774 175.822 54.0743 172.285L54.0817 172.295Z" fill="#6CB7B2"/>
</svg>
