<svg width="169" height="268" viewBox="0 0 169 268" fill="none" xmlns="http://www.w3.org/2000/svg">
<path d="M31.1175 190.617C32.6232 174.808 28.5688 169.312 27.3491 164.712C26.4995 161.528 25.1032 162.54 20.5525 154.855C15.5897 146.474 15.2448 141.865 15.4971 138.906C15.7158 136.452 15.9009 134.305 17.4655 133.286C21.5619 130.608 29.452 139.296 32.5223 137.157C35.3318 135.201 31.9251 125.759 29.7128 119.641C27.6604 113.954 26.3397 111.99 22.79 103.783C18.2309 93.2467 15.985 87.9496 17.5496 86.4492C18.13 85.8938 20.6871 84.2359 33.355 92.3514C38.1749 30.5605 44.7191 7.69771 46.2837 9.24787C51.8101 14.7273 43.8107 9.78668 44.6855 8.69245C45.1649 8.0956 43.4321 7.26663 43.9452 7.23347C46.2416 7.08426 47.6211 9.57945 47.7641 10.8478C51.6503 43.9731 49.0299 4.09377 70.6226 54.6108C78.4538 72.9309 75.4047 64.4071 77.2637 68.6596C77.2637 68.6596 78.6768 76.0208 82.9751 79.0217C83.2022 79.1792 83.1602 79.5356 83.1602 79.5356C83.1854 79.602 83.2023 79.6517 83.2023 79.6517C83.3537 80.0745 80.0479 85.3798 79.8292 85.2057C79.7535 85.1394 80.8807 83.4483 83.1518 80.0579C83.1518 80.0579 83.1938 79.9916 83.2359 79.9335C88.9474 71.4118 93.3383 64.863 97.3927 65.4018C98.4273 65.5427 99.1675 66.1064 99.4199 66.2971C101.523 67.9384 101.514 71.1051 101.498 72.5309C101.413 77.9772 100.9 94.2663 101.397 103.012C101.809 110.265 102.936 112.545 103.727 112.586C104.938 112.653 105.232 107.505 108.992 105.955C110.355 105.391 112.012 105.366 113.291 105.905C116.58 107.281 117.353 112.338 117.799 117.03C119.011 129.821 115.705 133.369 117.648 142.918C118.809 148.63 121.357 153.977 122.913 153.778C125.336 153.463 122.173 140.207 130.089 132.225C134.631 127.632 140.569 127.077 141.629 126.994C150.462 126.306 156.77 132.573 159.403 135.184C164.913 140.655 171.634 151.481 167.941 158.387C164.946 163.99 156.442 164.513 156.627 168.168C156.77 170.821 161.313 171.824 161.01 173.631C160.497 176.748 146.634 175.695 145.776 179.318C145.154 181.962 152.161 184.192 151.782 187.732C151.32 192.009 140.712 192.573 140.241 197.29C140.107 198.633 140.965 198.633 143.16 204.021C145.364 209.434 144.901 210.445 144.548 210.877C143.413 212.261 140.83 210.761 139.291 212.095C137.684 213.496 138.542 216.862 139.442 220.012C142.513 230.697 145.112 235.057 146.087 242.551C146.693 247.243 146.121 248.992 145.473 250.161C143.253 254.157 138.021 255.301 135.741 255.798C132.065 256.602 128.844 256.196 126.934 255.947C124.419 255.632 123.141 255.16 121.837 254.878C117.168 253.891 111.12 252.772 107.773 257.771C106.292 259.993 92.8672 266.392 80.4264 263.706C78.13 263.209 75.5393 263.922 74.8663 262.637C73.3691 259.802 84.7163 250.518 81.8228 251.371C74.1009 253.626 62.1396 249.365 45.6696 257.008C39.6806 259.785 36.0215 262.413 27.7445 264.776C20.6282 266.807 10.6016 268.506 9.35667 265.845C8.04446 263.043 18.1805 259.122 18.4749 251.073C18.6767 245.594 14.1092 243.878 12.9148 237.677C11.7288 231.534 13.2681 228.666 19.4086 219.249C21.1245 216.613 25.3808 212.858 24.3293 211.449" fill="#1D1D1B"/>
<path d="M42.4135 126.098C47.3332 126.098 51.3214 122.168 51.3214 117.32C51.3214 112.471 47.3332 108.541 42.4135 108.541C37.4938 108.541 33.5056 112.471 33.5056 117.32C33.5056 122.168 37.4938 126.098 42.4135 126.098Z" fill="white"/>
<path d="M80.3907 115.728C85.8771 115.728 90.3248 111.345 90.3248 105.938C90.3248 100.531 85.8771 96.1478 80.3907 96.1478C74.9042 96.1478 70.4565 100.531 70.4565 105.938C70.4565 111.345 74.9042 115.728 80.3907 115.728Z" fill="white"/>
<path d="M84.5383 87.8087C86.2964 88.1817 88.9376 88.9692 91.6798 90.7763C93.4294 91.9286 94.7416 93.1803 95.6669 94.2248" stroke="white" stroke-width="0.3" stroke-miterlimit="10"/>
<path d="M87.5498 84.4932C89.9808 79.8261 93.2024 76.8916 94.9689 77.4553C96.8531 78.0605 97.8288 82.8601 96.2306 89.1105" stroke="white" stroke-width="0.3" stroke-miterlimit="10"/>
<path d="M31.2256 107.571C31.6293 105.955 32.4789 103.518 34.3799 101.097C35.2632 99.9698 36.1884 99.0911 37.0128 98.4196" stroke="white" stroke-width="0.3" stroke-miterlimit="10"/>
<path d="M27.5343 105.035C24.4304 100.766 23.2612 96.6043 24.5819 95.3111C25.9866 93.935 30.7644 95.278 35.6768 99.5388" stroke="white" stroke-width="0.3" stroke-miterlimit="10"/>
<path d="M57.9583 122.476C52.7852 125.95 47.1242 129.017 40.9332 131.495C40.622 131.62 40.3107 131.744 39.9995 131.86" stroke="white" stroke-width="0.3" stroke-miterlimit="10"/>
<path d="M57.8484 124.151C51.8341 130.923 47.805 134.836 43.9861 139.934" stroke="white" stroke-width="0.3" stroke-miterlimit="10"/>
<path d="M58.5302 125.353C57.7059 128.047 56.5872 131.081 55.0646 134.305C53.8366 136.9 52.5496 139.205 51.2878 141.211" stroke="white" stroke-width="0.3" stroke-miterlimit="10"/>
<path d="M60.1044 118.899L67.0935 116.74L64.8337 121.037L60.1044 118.899Z" fill="#1D1D1B" stroke="white" stroke-width="0.3" stroke-miterlimit="10"/>
<path d="M33.0102 141.533C34.4317 140.514 33.4476 142.669 35.0374 144.368C36.6272 146.068 38.217 146.035 39.2095 145.993C44.1976 145.794 60.1124 145.96 66.5305 146.408C68.7091 146.557 71.6952 146.88 73.8233 145.09C74.8159 144.252 75.2869 143.241 76.9272 142.196C78.5422 141.169 80.0479 140.912 80.6115 140.796C87.366 139.386 95.8449 129.994 97.7964 131.544C98.1581 131.834 98.1497 132.373 98.1329 132.862C97.8553 141.799 97.7123 146.267 95.2814 149.632C93.7673 151.73 91.8326 154.399 88.5773 155.004C83.4378 155.957 76.8263 151.406 75.6739 147.9C75.573 147.601 75.3795 145.985 74.5804 146.333C72.814 147.104 72.3597 147.245 70.3073 147.651C69.4829 147.817 70.2484 149.151 71.4765 151.531C73.857 156.148 74.5467 156.761 75.1608 158.801C75.4889 159.895 76.5403 163.368 75.0767 164.421C74.1766 165.068 72.4775 164.678 71.5606 163.758C70.5681 162.771 70.7699 161.437 70.6774 159.53C70.4671 155.12 68.9109 151.721 68.7511 151.754C68.5913 151.788 69.9624 155.137 69.8446 159.903C69.811 161.37 69.6344 162.871 70.6017 164.239C71.2914 165.217 71.8803 165.15 72.528 166.203C73.5458 167.869 73.4196 170.232 72.5952 170.613C72.2083 170.787 71.6279 170.613 71.3587 170.273C71.1232 169.975 71.1989 169.643 71.1989 169.047C71.1989 168.06 71.0055 167.231 70.8709 166.8C70.6017 165.971 70.3325 165.988 69.7942 164.885C69.4157 164.098 69.239 163.468 69.1297 163.053C68.524 160.782 68.8941 158.95 68.7595 158.933C68.6586 158.917 68.339 159.92 68.095 161.669C67.1782 168.359 69.0203 174.277 67.809 174.725C67.7838 174.733 67.6408 174.742 67.3548 174.766C66.9006 174.8 65.7229 174.866 65.4958 174.808C64.0238 174.41 66.1856 159.414 66.2865 159.431C66.3286 159.439 66.2865 163.252 63.9229 164.976C62.9051 165.722 61.3573 166.154 60.7769 165.59C60.0956 164.927 60.9956 163.136 62.1817 160.533C65.479 153.296 67.1025 149.649 65.9501 148.372C65.151 147.494 63.1995 147.701 62.0555 148.372C60.8106 149.102 60.4236 150.461 60.1965 151.108C58.7245 155.219 53.7196 158.535 49.8082 159.489C48.9754 159.696 43.9285 160.823 40.16 158.063C36.0131 155.029 34.9364 148.405 34.8523 146.938C34.8271 146.515 34.8523 145.935 34.5327 145.23C33.9943 144.045 31.9335 145.09 32.8756 142.652C33.0691 142.155 32.9008 141.641 33.0186 141.558L33.0102 141.533Z" fill="#84A59D"/>
<path d="M98.9742 204.104C95.3488 205.621 87.6438 209.418 81.4276 217.683C73.9497 227.622 73.1926 237.934 73.1001 241.723" stroke="white" stroke-width="0.3" stroke-miterlimit="10"/>
<path d="M80.4016 113.457C84.6151 113.457 88.0309 110.091 88.0309 105.939C88.0309 101.786 84.6151 98.42 80.4016 98.42C76.188 98.42 72.7722 101.786 72.7722 105.939C72.7722 110.091 76.188 113.457 80.4016 113.457Z" fill="#1D1D1B"/>
<path d="M42.5566 124.624C46.5146 124.624 49.7233 121.462 49.7233 117.561C49.7233 113.66 46.5146 110.498 42.5566 110.498C38.5985 110.498 35.3899 113.66 35.3899 117.561C35.3899 121.462 38.5985 124.624 42.5566 124.624Z" fill="#1D1D1B"/>
<path d="M117.933 144.419C118.859 144.112 125.024 151.805 133.89 172.645C138.954 184.541 137.322 199.239 144.809 209.824C144.935 210.007 145.498 210.769 145.238 211.3C144.834 212.129 142.773 211.748 140.948 211.673C134.782 211.433 131.636 214.806 129.979 213.223C129.769 213.024 129.769 212.925 129.054 209.8C128.759 208.523 128.44 207.246 128.17 205.961C127.338 201.991 127.026 201.369 123.721 185.743C123.721 185.743 122.013 177.669 117.858 146.807C117.748 146.011 117.563 144.544 117.925 144.419H117.933Z" fill="#84A59D"/>
<path d="M27.7013 164.124C26.9695 165.334 25.876 167.183 24.6059 169.471C20.7113 176.451 19.9795 178.805 16.3793 185.486C13.7801 190.319 12.4595 192.773 10.1379 196.13C6.25169 201.751 4.3086 204.561 2.90386 205.895C1.22154 207.495 -0.216833 208.532 0.0271037 209.7C0.363568 211.3 3.60203 211.897 6.56292 212.436C12.9053 213.588 13.8137 211.972 18.8439 213.315C19.9795 213.621 20.9804 213.978 22.2085 213.605C24.3199 212.966 25.3629 210.679 26.0695 209.012C29.207 201.61 29.9304 197.299 29.9304 197.299C31.0828 190.485 31.823 186.1 31.3183 179.825C30.822 173.624 29.3248 168.327 27.6845 164.132L27.7013 164.124Z" fill="#84A59D"/>
<path d="M36.8111 94.3908C38.7038 93.9348 41.8918 93.1556 45.8284 92.1277C64.1489 87.3777 63.6453 87.0123 68.2212 86.8797C73.352 86.2446 75.2715 85.8109 79.7484 84.0218C80.2363 83.6653 82.0993 82.1801 83.1592 80.0497C83.6639 79.0301 81.8806 77.5296 81.6955 77.2561C78.987 73.161 74.0157 53.2161 63.804 34.5147C57.5206 23.0087 47.8893 -1.30478 42.1189 0.0547225C40.7562 0.378018 39.4608 3.71045 38.9561 5.57562C38.443 7.48224 38.4935 9.00755 38.5019 9.40545C38.7458 17.9189 36.9373 26.366 36.5168 34.8712C36.5168 34.8712 35.9784 45.7223 34.9774 63.545C34.5989 70.2431 34.0017 80.174 33.0764 92.393" fill="#84A59D"/>
<path d="M131.518 190.186L132.822 194.132H137.028L133.621 196.569L134.925 200.515L131.518 198.078L128.111 200.515L129.415 196.569L126.009 194.132H130.214L131.518 190.186Z" fill="#F6BD60"/>
<path d="M10.2485 201.153L11.5439 205.099H15.7581L12.3514 207.544L13.6552 211.49L10.2485 209.045L6.84179 211.49L8.13716 207.544L4.73047 205.099H8.9447L10.2485 201.153Z" fill="#F6BD60"/>
<path d="M130.014 216.315C130.232 218.818 131.553 234.303 130.308 243.87C129.963 246.522 129.299 249.681 126.742 251.397C125.362 252.325 123.865 252.532 122.872 252.565" stroke="white" stroke-width="0.3" stroke-miterlimit="10"/>
<path d="M41.9766 63.8028L43.4654 68.3123H48.2769L44.3823 71.0976L45.8711 75.6072L41.9766 72.8219L38.082 75.6072L39.5709 71.0976L35.6763 68.3123H40.4877L41.9766 63.8028Z" fill="#F6BD60"/>
<path d="M73.1172 72.1662L74.6061 76.6758H79.4175L75.5313 79.4611L77.0118 83.979L73.1172 81.1854L69.231 83.979L70.7115 79.4611L66.8169 76.6758H71.6368L73.1172 72.1662Z" fill="#F6BD60"/>
<path d="M60.8267 41.2961L62.3155 45.8057H67.127L63.2324 48.5993L64.7212 53.1089L60.8267 50.3236L56.9321 53.1089L58.4209 48.5993L54.5264 45.8057H59.3378L60.8267 41.2961Z" fill="#F6BD60"/>
<path d="M44.8374 16.8915L46.3263 21.401H51.1377L47.2431 24.1863L48.732 28.7042L44.8374 25.9106L40.9428 28.7042L42.4317 24.1863L38.5371 21.401H43.357L44.8374 16.8915Z" fill="#F6BD60"/>
<path d="M40.1601 146.906L40.9087 149.161H43.3145L41.363 150.554L42.1116 152.808L40.1601 151.416L38.217 152.808L38.9572 150.554L37.0142 149.161H39.4199L40.1601 146.906Z" fill="#F6BD60"/>
<path d="M55.3858 146.906L56.126 149.161H58.5317L56.5887 150.554L57.3289 152.808L55.3858 151.416L53.4343 152.808L54.1745 150.554L52.2314 149.161H54.6372L55.3858 146.906Z" fill="#F6BD60"/>
<path d="M47.7723 152.137L48.5125 154.391H50.9182L48.9751 155.784L49.7154 158.039L47.7723 156.646L45.8208 158.039L46.5694 155.784L44.6179 154.391H47.0236L47.7723 152.137Z" fill="#F6BD60"/>
<path d="M80.3929 141.791L81.1331 144.046H83.5388L81.5957 145.439L82.336 147.693L80.3929 146.301L78.4498 147.693L79.19 145.439L77.2385 144.046H79.6527L80.3929 141.791Z" fill="#F6BD60"/>
<path d="M88.0297 146.906L88.77 149.161H91.1841L89.2326 150.554L89.9812 152.808L88.0297 151.416L86.0866 152.808L86.8269 150.554L84.8838 149.161H87.2895L88.0297 146.906Z" fill="#F6BD60"/>
<path d="M91.1839 137.216L91.9241 139.47H94.3298L92.3868 140.863L93.127 143.118L91.1839 141.725L89.2324 143.118L89.981 140.863L88.0295 139.47H90.4353L91.1839 137.216Z" fill="#F6BD60"/>
<path d="M24.0423 182.411L25.3461 186.356H29.5519L26.1452 188.794L27.449 192.739L24.0423 190.302L20.6356 192.739L21.9394 188.794L18.5327 186.356H22.7469L24.0423 182.411Z" fill="#F6BD60"/>
<path d="M128.382 168.691L129.686 172.637H133.9L130.493 175.074L131.789 179.02L128.382 176.583L124.975 179.02L126.279 175.074L122.872 172.637H127.087L128.382 168.691Z" fill="#F6BD60"/>
<path d="M71.4919 119.99C78.5577 121.407 85.6823 123.546 92.7481 126.588C93.1014 126.737 93.4547 126.895 93.808 127.052" stroke="white" stroke-width="0.3" stroke-miterlimit="10"/>
<path d="M72.9644 118.737C83.4452 118.19 89.9558 118.323 97.2739 117.336" stroke="white" stroke-width="0.3" stroke-miterlimit="10"/>
<path d="M73.4104 117.221C76.3124 115.728 79.7359 114.203 83.6389 112.852C86.7765 111.766 89.7374 110.97 92.4207 110.373" stroke="white" stroke-width="0.3" stroke-miterlimit="10"/>
<path d="M74.8595 163.386C75.4147 162.838 75.0193 161.595 74.6156 160.55C73.2445 157.003 70.9733 153.504 70.5443 153.736C70.2415 153.902 71.621 155.635 71.4444 158.428C71.4444 158.544 71.4107 159.39 71.3603 161.073C71.3266 162.134 71.3182 162.664 71.6631 163.062C72.0921 163.551 72.7818 163.618 73.2361 163.659C73.6735 163.701 74.4558 163.775 74.8595 163.386Z" fill="#1D1D1B"/>
<path d="M61.7201 164.223C61.4088 163.577 61.7958 162.731 62.393 161.803C64.4286 158.669 66.3044 153.107 66.5904 153.422C66.7923 153.646 65.9259 157.451 65.3455 160.194C65.3202 160.311 65.1184 161.131 64.723 162.764C64.4707 163.792 63.9828 164.265 63.6043 164.571C63.1332 164.953 62.9061 164.92 62.5276 164.862C62.1575 164.812 61.9388 164.679 61.7201 164.223Z" fill="#1D1D1B"/>
</svg>
