<svg width="429" height="123" viewBox="0 0 429 123" fill="none" xmlns="http://www.w3.org/2000/svg">
<path d="M20.208 38.88C19.696 39.296 18.944 39.504 17.952 39.504C16.96 39.504 16.304 39.344 15.984 39.024C15.664 38.672 15.248 37.984 14.736 36.96L9.168 26.736L8.64 28.8C8.256 30.176 7.872 32.368 7.488 35.376C7.104 38.384 6.752 40.352 6.432 41.28C6.112 42.208 5.6 42.768 4.896 42.96C4.192 43.152 3.44 43.024 2.64 42.576C1.84 42.128 1.44 41.6 1.44 40.992C1.44 38.784 2.064 34.464 3.312 28.032C4.56 21.6 5.44 18.096 5.952 17.52C6.464 16.944 7.088 16.656 7.824 16.656C8.56 16.656 9.232 16.992 9.84 17.664C11.056 18.912 13.152 22.432 16.128 28.224L17.904 31.584L19.824 27.936C21.136 25.472 22.48 23.232 23.856 21.216C25.168 19.2 26.208 17.872 26.976 17.232C27.744 16.592 28.544 16.256 29.376 16.224C30.208 16.192 30.88 16.464 31.392 17.04C31.84 17.616 32.192 18.96 32.448 21.072C32.704 23.184 32.96 26.704 33.216 31.632C33.472 36.56 33.568 39.376 33.504 40.08C33.44 40.784 33.184 41.424 32.736 42C32.288 42.512 31.76 42.768 31.152 42.768C30.576 42.768 29.984 42.56 29.376 42.144C28.8 41.728 28.496 41.344 28.464 40.992C28.464 40.96 28.4 39.92 28.272 37.872C28.144 35.824 27.936 32.832 27.648 28.896L27.312 25.728L26.208 27.504C25.44 28.816 24.384 30.96 23.04 33.936C21.696 36.912 20.752 38.56 20.208 38.88ZM60.8899 15.6C60.9219 16.368 60.8099 16.912 60.5539 17.232C60.2979 17.552 59.7859 17.808 59.0179 18C58.2499 18.256 57.2259 18.432 55.9459 18.528C54.6659 18.624 52.8419 18.72 50.4739 18.816L42.1699 19.104L42.4579 20.496C42.6499 21.488 42.7459 22.4 42.7459 23.232V24.576H51.1939C54.8739 24.576 57.2579 24.624 58.3459 24.72C59.4339 24.784 60.1859 25.008 60.6019 25.392C61.0179 25.776 61.2579 26.288 61.3219 26.928C61.3859 27.568 61.2579 28.16 60.9379 28.704C60.5539 29.248 59.5619 29.616 57.9619 29.808C56.3619 30 53.7379 30.032 50.0899 29.904L42.7459 29.664V36.24H45.4339C47.5459 36.24 50.4739 36.016 54.2179 35.568C57.9619 35.12 60.3619 34.896 61.4179 34.896C62.4739 34.896 63.1459 35.008 63.4339 35.232C63.9459 35.616 64.2019 36.32 64.2019 37.344C64.2019 38.368 63.9779 39.072 63.5299 39.456C62.8259 40.064 59.1139 40.656 52.3939 41.232C45.6739 41.808 41.6419 41.856 40.2979 41.376C39.9139 41.216 39.5939 41.072 39.3379 40.944C39.0819 40.816 38.8419 40.64 38.6179 40.416C38.3939 40.192 38.2179 39.84 38.0899 39.36C37.9619 38.88 37.8339 38.384 37.7059 37.872C37.5779 37.36 37.4979 36.592 37.4659 35.568C37.4019 34.544 37.3379 33.488 37.2739 32.4C37.1779 31.312 37.0659 28.608 36.9379 24.288C36.8099 19.968 36.6499 17.488 36.4579 16.848C36.2659 16.208 36.3779 15.616 36.7939 15.072C37.2099 14.528 37.5139 14.192 37.7059 14.064C37.8979 13.936 38.3619 13.84 39.0979 13.776C39.8339 13.712 40.6499 13.648 41.5459 13.584C42.4419 13.52 43.9139 13.456 45.9619 13.392C48.0099 13.328 51.6419 13.2 56.8579 13.008C58.1379 12.944 59.1299 13.168 59.8339 13.68C60.5379 14.192 60.8899 14.832 60.8899 15.6ZM90.489 13.104C91.129 13.168 91.561 13.248 91.785 13.344C92.009 13.376 92.313 13.52 92.697 13.776C93.081 14.032 93.305 14.224 93.369 14.352C93.497 14.48 93.657 14.8 93.849 15.312C94.041 15.824 94.153 16.224 94.185 16.512C94.217 16.8 94.265 17.392 94.329 18.288C94.393 19.184 94.457 19.92 94.521 20.496C94.585 21.072 94.617 21.936 94.617 23.088C94.649 24.24 94.729 25.936 94.857 28.176C94.985 30.416 95.017 32.64 94.953 34.848C94.921 37.056 94.745 38.576 94.425 39.408C94.105 40.24 93.529 40.816 92.697 41.136C91.865 41.456 91.049 41.392 90.249 40.944C89.641 40.688 89.305 40.4 89.241 40.08C89.177 39.76 89.241 38.704 89.433 36.912C89.625 35.12 89.609 31.52 89.385 26.112L89.049 18.048H86.313C84.713 18.048 82.905 18.144 80.889 18.336L78.057 18.672L77.817 28.032C77.721 32.416 77.497 35.792 77.145 38.16C76.761 40.528 76.217 42.384 75.513 43.728C74.809 45.072 73.817 46.096 72.537 46.8C71.257 47.504 70.169 47.824 69.273 47.76C68.377 47.696 67.737 47.28 67.353 46.512C66.969 45.744 66.921 45.04 67.209 44.4C67.497 43.76 68.089 43.152 68.985 42.576C69.881 42 70.505 41.392 70.857 40.752C71.209 40.112 71.513 39.152 71.769 37.872C72.025 36.592 72.249 34.432 72.441 31.392C72.697 28.384 72.777 26.096 72.681 24.528C72.585 22.96 72.233 20.416 71.625 16.896C71.497 16.256 71.561 15.68 71.817 15.168C72.105 14.688 72.569 14.288 73.209 13.968C73.849 13.648 74.825 13.424 76.137 13.296C77.417 13.104 80.489 13.04 85.353 13.104H90.489ZM117.398 38.496C117.398 38.88 117.254 39.296 116.966 39.744C116.678 40.192 116.326 40.576 115.91 40.896C115.494 41.216 115.126 41.36 114.806 41.328C114.358 41.328 113.126 40.384 111.11 38.496C109.094 36.608 107.286 34.72 105.686 32.832L103.43 30.096V35.04C103.43 37.504 103.366 38.96 103.238 39.408C103.11 39.856 102.79 40.208 102.278 40.464C101.766 40.72 101.334 40.832 100.982 40.8C100.662 40.768 100.246 40.608 99.7339 40.32C99.2219 40.032 98.8379 39.472 98.5819 38.64C98.3259 37.808 98.1499 36.368 98.0539 34.32C97.9579 32.272 97.8939 28.976 97.8619 24.432V16.992C97.9259 16.032 98.0219 15.328 98.1499 14.88C98.2139 14.432 98.3259 14.016 98.4859 13.632C98.6459 13.248 98.8219 12.992 99.0139 12.864C99.2059 12.736 99.4779 12.608 99.8299 12.48C101.078 12 101.99 12.176 102.566 13.008C103.142 13.84 103.43 15.504 103.43 18C103.43 20.496 103.558 21.76 103.814 21.792C104.07 21.76 105.35 20.656 107.654 18.48C109.958 16.304 111.51 14.896 112.31 14.256C113.11 13.616 113.798 13.136 114.374 12.816C114.95 12.56 115.43 12.464 115.814 12.528C116.198 12.592 116.598 12.832 117.014 13.248C117.942 14.112 118.022 15.184 117.254 16.464C116.486 17.744 114.534 19.744 111.398 22.464L107.174 26.112L108.614 28.032C109.766 29.504 111.478 31.392 113.75 33.696C116.182 36.288 117.398 37.888 117.398 38.496ZM122.227 13.488C122.643 13.232 123.043 13.104 123.427 13.104C123.811 13.104 124.227 13.232 124.675 13.488C125.123 13.744 125.635 14.224 126.211 14.928C126.787 15.632 127.427 16.48 128.131 17.472C128.835 18.464 130.051 20.208 131.779 22.704C133.443 25.2 134.387 26.448 134.611 26.448C134.771 26.448 135.347 25.728 136.339 24.288C137.331 22.848 138.355 21.248 139.411 19.488C140.467 17.728 141.219 16.384 141.667 15.456C142.115 14.528 142.499 13.904 142.819 13.584C143.139 13.264 143.699 13.072 144.499 13.008C145.299 12.944 145.955 13.216 146.467 13.824C146.979 14.432 147.139 15.248 146.947 16.272C146.755 17.296 145.907 19.12 144.403 21.744C142.835 24.368 141.315 26.672 139.843 28.656C138.371 30.64 137.475 31.984 137.155 32.688C136.835 33.392 136.579 34.736 136.387 36.72C136.195 38.704 135.987 40.304 135.763 41.52C135.539 42.736 135.283 43.744 134.995 44.544C134.707 45.344 134.387 45.872 134.035 46.128C133.683 46.384 133.187 46.512 132.547 46.512C131.907 46.512 131.299 46.144 130.723 45.408C130.211 44.704 130.051 43.872 130.243 42.912C130.435 41.952 130.659 39.904 130.915 36.768L131.443 31.776L127.411 25.776C124.723 21.808 122.931 19.28 122.035 18.192C121.075 17.104 120.611 16.192 120.643 15.456C120.675 14.72 121.203 14.064 122.227 13.488ZM168.708 38.88C168.196 39.296 167.444 39.504 166.452 39.504C165.46 39.504 164.804 39.344 164.484 39.024C164.164 38.672 163.748 37.984 163.236 36.96L157.668 26.736L157.14 28.8C156.756 30.176 156.372 32.368 155.988 35.376C155.604 38.384 155.252 40.352 154.932 41.28C154.612 42.208 154.1 42.768 153.396 42.96C152.692 43.152 151.94 43.024 151.14 42.576C150.34 42.128 149.94 41.6 149.94 40.992C149.94 38.784 150.564 34.464 151.812 28.032C153.06 21.6 153.94 18.096 154.452 17.52C154.964 16.944 155.588 16.656 156.324 16.656C157.06 16.656 157.732 16.992 158.34 17.664C159.556 18.912 161.652 22.432 164.628 28.224L166.404 31.584L168.324 27.936C169.636 25.472 170.98 23.232 172.356 21.216C173.668 19.2 174.708 17.872 175.476 17.232C176.244 16.592 177.044 16.256 177.876 16.224C178.708 16.192 179.38 16.464 179.892 17.04C180.34 17.616 180.692 18.96 180.948 21.072C181.204 23.184 181.46 26.704 181.716 31.632C181.972 36.56 182.068 39.376 182.004 40.08C181.94 40.784 181.684 41.424 181.236 42C180.788 42.512 180.26 42.768 179.652 42.768C179.076 42.768 178.484 42.56 177.876 42.144C177.3 41.728 176.996 41.344 176.964 40.992C176.964 40.96 176.9 39.92 176.772 37.872C176.644 35.824 176.436 32.832 176.148 28.896L175.812 25.728L174.708 27.504C173.94 28.816 172.884 30.96 171.54 33.936C170.196 36.912 169.252 38.56 168.708 38.88ZM188.27 41.328C187.79 41.328 187.182 40.96 186.446 40.224C185.966 39.68 185.694 39.28 185.63 39.024C185.566 38.768 185.598 38.416 185.726 37.968C185.886 37.52 186.142 37.04 186.494 36.528C186.878 36.016 187.358 35.44 187.934 34.8C188.51 34.16 189.118 33.552 189.758 32.976C190.398 32.4 190.958 31.856 191.438 31.344C191.95 30.832 192.334 30.416 192.59 30.096C192.846 29.776 192.942 29.6 192.878 29.568C192.206 29.312 191.47 29.04 190.67 28.752C187.886 27.856 186.094 26.352 185.294 24.24C184.494 22.128 184.862 19.904 186.398 17.568C187.294 16.192 188.878 15.088 191.15 14.256C193.422 13.424 195.998 12.912 198.878 12.72C201.758 12.528 203.422 12.208 203.87 11.76C204.702 10.928 205.582 10.784 206.51 11.328C207.438 11.872 208.046 12.976 208.334 14.64C208.622 16.304 208.862 20.368 209.054 26.832C209.246 33.296 209.246 36.832 209.054 37.44C208.638 38.496 208.078 39.152 207.374 39.408C206.67 39.664 205.902 39.472 205.07 38.832C204.686 38.544 204.414 38.08 204.254 37.44C204.126 36.8 204.014 35.568 203.918 33.744L203.678 29.328L197.918 33.12C197.246 33.632 196.606 34.176 195.998 34.752C195.326 35.296 194.67 35.856 194.03 36.432C193.39 37.008 192.718 37.632 192.014 38.304C191.31 39.04 190.558 39.728 189.758 40.368C188.958 41.008 188.462 41.328 188.27 41.328ZM197.87 18.288C197.198 18.288 196.542 18.352 195.902 18.48C195.262 18.608 194.366 18.848 193.214 19.2C192.062 19.552 191.23 20.144 190.718 20.976C190.206 21.808 190.318 22.528 191.054 23.136C191.598 23.616 192.862 23.984 194.846 24.24C196.83 24.496 198.654 24.544 200.318 24.384L203.534 24L203.246 18.288H197.87ZM231.536 34.608V30.288L229.808 30C228.688 29.808 226.72 29.712 223.904 29.712C221.12 29.712 219.44 29.792 218.864 29.952C218.288 30.112 217.936 30.448 217.808 30.96C217.68 31.472 217.552 32.768 217.424 34.848C217.296 36.928 217.136 38.32 216.944 39.024C216.816 39.728 216.544 40.24 216.128 40.56C215.424 41.072 214.896 41.328 214.544 41.328C214.192 41.328 213.664 41.072 212.96 40.56C212.48 40.144 212.208 39.344 212.144 38.16C212.08 36.976 212.128 33.328 212.288 27.216L212.576 14.688L213.728 13.968C214.24 13.648 214.608 13.488 214.832 13.488C215.088 13.488 215.536 13.648 216.176 13.968C216.816 14.352 217.264 15.088 217.52 16.176C217.776 17.264 217.936 19.088 218 21.648V24.528H231.536V22.8C231.536 21.872 231.408 20.336 231.152 18.192C230.896 16.048 230.88 14.56 231.104 13.728C231.264 12.896 231.632 12.288 232.208 11.904C233.136 11.264 234.176 11.424 235.328 12.384C235.872 12.8 236.208 13.584 236.336 14.736C236.464 15.888 236.56 19.488 236.624 25.536C236.688 31.584 236.688 35.328 236.624 36.768C236.56 38.208 236.304 39.168 235.856 39.648C235.408 40.128 234.864 40.368 234.224 40.368C233.584 40.368 233.04 40.176 232.592 39.792C232.144 39.376 231.84 38.848 231.68 38.208C231.584 37.568 231.536 36.368 231.536 34.608ZM258.432 35.664C258.368 34.64 258.336 33.52 258.336 32.304C258.336 31.088 258.32 29.488 258.288 27.504C258.288 20.464 258.128 16.512 257.808 15.648C257.488 14.784 257.36 14.208 257.424 13.92C257.456 13.632 257.712 13.28 258.192 12.864C258.736 12.256 259.568 11.792 260.688 11.472C262.32 11.088 264.912 11.168 268.464 11.712C272.016 12.256 274.704 12.992 276.528 13.92C277.584 14.432 278.528 15.168 279.36 16.128C280.192 17.088 280.704 18.016 280.896 18.912C281.28 20.544 280.784 22.608 279.408 25.104C278.032 27.6 276.464 29.296 274.704 30.192C273.712 30.704 272.88 30.992 272.208 31.056C271.536 31.12 270.112 31.04 267.936 30.816L263.328 30.384L263.664 34.224C263.856 36.72 263.856 38.288 263.664 38.928C263.472 39.568 263.024 40.048 262.32 40.368C261.616 40.688 261.008 40.784 260.496 40.656C259.984 40.528 259.648 40.384 259.488 40.224C259.328 40.064 259.168 39.792 259.008 39.408C258.848 39.024 258.72 38.56 258.624 38.016C258.56 37.472 258.496 36.688 258.432 35.664ZM263.424 21.12V24.96L270.96 25.536C271.472 25.568 271.84 25.52 272.064 25.392L272.784 25.008C273.04 24.88 273.264 24.72 273.456 24.528C273.616 24.336 273.808 24.048 274.032 23.664C275.216 21.904 275.648 20.64 275.328 19.872C275.04 19.104 273.968 18.464 272.112 17.952C270.256 17.472 268.464 17.136 266.736 16.944C265.008 16.752 264.016 16.752 263.76 16.944C263.504 17.136 263.392 18.528 263.424 21.12ZM285.493 13.488C285.909 13.232 286.309 13.104 286.693 13.104C287.077 13.104 287.493 13.232 287.941 13.488C288.389 13.744 288.901 14.224 289.477 14.928C290.053 15.632 290.693 16.48 291.397 17.472C292.101 18.464 293.317 20.208 295.045 22.704C296.709 25.2 297.653 26.448 297.877 26.448C298.037 26.448 298.613 25.728 299.605 24.288C300.597 22.848 301.621 21.248 302.677 19.488C303.733 17.728 304.485 16.384 304.933 15.456C305.381 14.528 305.765 13.904 306.085 13.584C306.405 13.264 306.965 13.072 307.765 13.008C308.565 12.944 309.221 13.216 309.733 13.824C310.245 14.432 310.405 15.248 310.213 16.272C310.021 17.296 309.173 19.12 307.669 21.744C306.101 24.368 304.581 26.672 303.109 28.656C301.637 30.64 300.741 31.984 300.421 32.688C300.101 33.392 299.845 34.736 299.653 36.72C299.461 38.704 299.253 40.304 299.029 41.52C298.805 42.736 298.549 43.744 298.261 44.544C297.973 45.344 297.653 45.872 297.301 46.128C296.949 46.384 296.453 46.512 295.813 46.512C295.173 46.512 294.565 46.144 293.989 45.408C293.477 44.704 293.317 43.872 293.509 42.912C293.701 41.952 293.925 39.904 294.181 36.768L294.709 31.776L290.677 25.776C287.989 21.808 286.197 19.28 285.301 18.192C284.341 17.104 283.877 16.192 283.909 15.456C283.941 14.72 284.469 14.064 285.493 13.488ZM321.606 14.304C324.262 13.312 326.854 13.072 329.382 13.584C331.91 14.096 334.134 15.264 336.054 17.088C337.206 18.176 337.862 19.072 338.022 19.776C338.182 20.48 337.926 21.248 337.254 22.08C336.87 22.592 336.246 22.784 335.382 22.656C334.518 22.528 333.766 22.144 333.126 21.504C331.942 20.256 330.486 19.44 328.758 19.056C327.03 18.672 325.286 18.768 323.526 19.344C321.766 19.92 320.438 20.976 319.542 22.512C318.646 24.048 318.326 25.744 318.582 27.6C318.838 29.456 319.606 31.024 320.886 32.304C322.294 33.68 323.862 34.32 325.59 34.224C327.318 34.128 329.526 33.296 332.214 31.728C333.43 31.024 334.262 30.608 334.71 30.48C335.158 30.352 335.686 30.432 336.294 30.72C336.902 31.008 337.334 31.504 337.59 32.208C337.846 32.912 337.814 33.584 337.494 34.224C337.174 34.864 336.23 35.648 334.662 36.576C331.238 38.784 328.022 39.84 325.014 39.744C322.006 39.648 319.366 38.432 317.094 36.096C315.59 34.496 314.534 32.88 313.926 31.248C313.318 29.616 313.094 27.728 313.254 25.584C313.67 19.888 316.454 16.128 321.606 14.304ZM364.38 13.104C365.02 13.168 365.452 13.248 365.676 13.344C365.9 13.376 366.204 13.52 366.588 13.776C366.972 14.032 367.196 14.224 367.26 14.352C367.388 14.48 367.548 14.8 367.74 15.312C367.932 15.824 368.044 16.224 368.076 16.512C368.108 16.8 368.156 17.392 368.22 18.288C368.284 19.184 368.348 19.92 368.412 20.496C368.476 21.072 368.508 21.936 368.508 23.088C368.54 24.24 368.62 25.936 368.748 28.176C368.876 30.416 368.908 32.64 368.844 34.848C368.812 37.056 368.636 38.576 368.316 39.408C367.996 40.24 367.42 40.816 366.588 41.136C365.756 41.456 364.94 41.392 364.14 40.944C363.532 40.688 363.196 40.4 363.132 40.08C363.068 39.76 363.132 38.704 363.324 36.912C363.516 35.12 363.5 31.52 363.276 26.112L362.94 18.048H360.204C358.604 18.048 356.796 18.144 354.78 18.336L351.948 18.672L351.708 28.032C351.612 32.416 351.388 35.792 351.036 38.16C350.652 40.528 350.108 42.384 349.404 43.728C348.7 45.072 347.708 46.096 346.428 46.8C345.148 47.504 344.06 47.824 343.164 47.76C342.268 47.696 341.628 47.28 341.244 46.512C340.86 45.744 340.812 45.04 341.1 44.4C341.388 43.76 341.98 43.152 342.876 42.576C343.772 42 344.396 41.392 344.748 40.752C345.1 40.112 345.404 39.152 345.66 37.872C345.916 36.592 346.14 34.432 346.332 31.392C346.588 28.384 346.668 26.096 346.572 24.528C346.476 22.96 346.124 20.416 345.516 16.896C345.388 16.256 345.452 15.68 345.708 15.168C345.996 14.688 346.46 14.288 347.1 13.968C347.74 13.648 348.716 13.424 350.028 13.296C351.308 13.104 354.38 13.04 359.244 13.104H364.38ZM381.401 14.016C382.041 13.408 382.793 13.072 383.657 13.008C384.521 12.944 385.225 13.232 385.769 13.872C385.993 14.128 386.585 15.072 387.545 16.704C388.505 18.336 389.609 20.24 390.857 22.416C392.041 24.592 393.241 26.8 394.457 29.04C395.673 31.28 396.697 33.2 397.529 34.8C398.361 36.432 398.809 37.376 398.873 37.632C399.033 38.432 398.809 39.12 398.201 39.696C397.593 40.272 396.937 40.496 396.233 40.368C395.529 40.24 394.937 39.936 394.457 39.456C394.009 38.944 393.289 37.824 392.297 36.096L389.993 31.968L379.865 32.256L378.377 36.384C377.513 38.848 376.713 40.48 375.977 41.28C375.241 42.08 374.393 42.256 373.433 41.808C372.473 41.36 371.929 40.8 371.801 40.128C371.673 39.456 371.929 38.304 372.569 36.672C373.177 35.04 374.105 32.288 375.353 28.416C378.009 20.288 380.025 15.488 381.401 14.016ZM386.969 26.64C386.969 26.512 386.441 25.504 385.385 23.616L383.801 20.736L382.793 23.376C382.153 25.104 381.833 26.128 381.833 26.448C381.833 26.768 382.681 26.896 384.377 26.832C386.105 26.768 386.969 26.704 386.969 26.64ZM421.239 34.608V30.288L419.511 30C418.391 29.808 416.423 29.712 413.607 29.712C410.823 29.712 409.143 29.792 408.567 29.952C407.991 30.112 407.639 30.448 407.511 30.96C407.383 31.472 407.255 32.768 407.127 34.848C406.999 36.928 406.839 38.32 406.647 39.024C406.519 39.728 406.247 40.24 405.831 40.56C405.127 41.072 404.599 41.328 404.247 41.328C403.895 41.328 403.367 41.072 402.663 40.56C402.183 40.144 401.911 39.344 401.847 38.16C401.783 36.976 401.831 33.328 401.991 27.216L402.279 14.688L403.431 13.968C403.943 13.648 404.311 13.488 404.535 13.488C404.791 13.488 405.239 13.648 405.879 13.968C406.519 14.352 406.967 15.088 407.223 16.176C407.479 17.264 407.639 19.088 407.703 21.648V24.528H421.239V22.8C421.239 21.872 421.111 20.336 420.855 18.192C420.599 16.048 420.583 14.56 420.807 13.728C420.967 12.896 421.335 12.288 421.911 11.904C422.839 11.264 423.879 11.424 425.031 12.384C425.575 12.8 425.911 13.584 426.039 14.736C426.167 15.888 426.263 19.488 426.327 25.536C426.391 31.584 426.391 35.328 426.327 36.768C426.263 38.208 426.007 39.168 425.559 39.648C425.111 40.128 424.567 40.368 423.927 40.368C423.287 40.368 422.743 40.176 422.295 39.792C421.847 39.376 421.543 38.848 421.383 38.208C421.287 37.568 421.239 36.368 421.239 34.608Z" fill="#FCF3E8"/>
<path d="M251.096 79.328C251.8 79.232 252.376 79.184 252.824 79.184C253.272 79.184 253.992 79.152 254.984 79.088C255.976 79.024 257.976 78.928 260.984 78.8C263.992 78.672 265.576 78.544 265.736 78.416C265.896 78.288 266.296 78.288 266.936 78.416C267.576 78.608 268.104 78.848 268.52 79.136C268.936 79.488 269.112 80.112 269.048 81.008C268.984 81.904 268.728 82.544 268.28 82.928C267.832 83.312 267.064 83.584 265.976 83.744C264.888 83.904 262.808 84.096 259.736 84.32L252.296 84.8V89.696L256.616 89.888C260.616 90.112 263.928 91.024 266.552 92.624C269.176 94.224 270.488 96.112 270.488 98.288C270.488 100.464 269.304 102.48 266.936 104.336C264.568 106.192 261.368 107.648 257.336 108.704C255.352 109.184 253.752 109.328 252.536 109.136C251.32 108.944 250.296 108.432 249.464 107.6C248.664 106.768 248.136 105.936 247.88 105.104C247.624 104.272 247.432 102.928 247.304 101.072C247.176 99.216 247.112 96.976 247.112 94.352C247.08 91.728 247.048 89.84 247.016 88.688C246.984 87.536 246.968 86.704 246.968 86.192C246.232 98.608 246.28 97.408 247.112 82.592C247.112 82.304 247.224 81.904 247.448 81.392C247.64 80.88 247.784 80.576 247.88 80.48C247.976 80.384 248.232 80.208 248.648 79.952C249.064 79.696 249.4 79.552 249.656 79.52C249.912 79.488 250.392 79.424 251.096 79.328ZM252.536 95.648C252.376 95.84 252.296 96.432 252.296 97.424C252.296 98.416 252.408 99.728 252.632 101.36L252.92 103.856L254.792 103.616C256.232 103.456 257.88 102.992 259.736 102.224C261.592 101.456 262.984 100.64 263.912 99.776L265.544 98.24L263.96 97.28C262.968 96.672 261.88 96.208 260.696 95.888C258.04 95.184 255.752 94.96 253.832 95.216C253.128 95.312 252.696 95.456 252.536 95.648ZM286.402 103.28C288.674 103.28 290.962 103.504 293.266 103.952C295.602 104.4 297.058 104.88 297.634 105.392C298.21 105.904 298.498 106.528 298.498 107.264C298.498 108 298.242 108.592 297.73 109.04C297.218 109.488 296.738 109.728 296.29 109.76C295.842 109.792 294.882 109.648 293.41 109.328C291.938 109.008 289.122 108.768 284.962 108.608C280.802 108.448 278.21 108.304 277.186 108.176C276.162 108.048 275.346 107.728 274.738 107.216C274.13 106.704 273.826 106.144 273.826 105.536C273.826 104.896 276.002 102.352 280.354 97.904C284.706 93.424 286.882 90.864 286.882 90.224C286.882 89.584 286.658 88.832 286.21 87.968C285.762 87.104 285.186 86.384 284.482 85.808C283.778 85.232 283.058 85.104 282.322 85.424C281.586 85.712 280.642 86.576 279.49 88.016C278.69 89.104 278.05 89.824 277.57 90.176C277.122 90.528 276.578 90.704 275.938 90.704C275.298 90.704 274.706 90.48 274.162 90.032C273.618 89.584 273.346 88.992 273.346 88.256C273.346 87.52 274.082 86.192 275.554 84.272C277.026 82.352 278.306 81.104 279.394 80.528C281.25 79.536 283.17 79.344 285.154 79.952C287.138 80.56 288.786 81.856 290.098 83.84C292.722 87.744 293.01 91.2 290.962 94.208C289.97 95.552 287.122 98.576 282.418 103.28H286.402ZM314.29 81.968C314.642 81.584 315.298 81.392 316.258 81.392C317.218 81.392 317.89 81.872 318.274 82.832C318.658 83.792 318.93 86 319.09 89.456C319.25 92.912 319.426 94.752 319.618 94.976C319.81 95.232 320.098 95.36 320.482 95.36C321.314 95.36 322.098 95.76 322.834 96.56C323.57 97.36 323.826 98.096 323.602 98.768C323.154 100.176 322.13 100.912 320.53 100.976C319.666 100.976 319.202 101.152 319.138 101.504L318.946 105.056C318.882 105.856 318.626 106.544 318.178 107.12C317.73 107.696 317.058 107.984 316.162 107.984C315.266 107.984 314.626 107.648 314.242 106.976C313.858 106.336 313.65 105.328 313.618 103.952V101.36L307.378 101.84C306.93 101.84 306.434 101.808 305.89 101.744C305.346 101.68 304.93 101.616 304.642 101.552C304.322 101.488 304.002 101.328 303.682 101.072C303.362 100.816 303.138 100.576 303.01 100.352C302.882 100.128 302.722 99.728 302.53 99.152C302.338 98.576 302.21 98.064 302.146 97.616L301.762 92.912L301.378 81.056L302.482 80.336C303.218 79.856 303.778 79.616 304.162 79.616C304.546 79.616 305.01 79.84 305.554 80.288C306.098 80.736 306.434 81.392 306.562 82.256C306.69 83.12 306.834 85.264 306.993 88.688L307.234 96.32C310.69 96.288 312.642 96.144 313.09 95.888C313.538 95.632 313.714 93.84 313.618 90.512C313.554 87.184 313.57 85.024 313.666 84.032C313.762 83.04 313.97 82.352 314.29 81.968ZM354.1 109.808C354.1 111.088 354.036 112.016 353.908 112.592C353.78 113.168 353.524 113.632 353.14 113.984C352.02 115.104 350.964 115.312 349.972 114.608C348.98 113.904 348.484 112.592 348.484 110.672V108.368L331.972 108.656L332.116 110.288C332.276 112.112 331.908 113.44 331.012 114.272C330.116 115.104 329.028 115.104 327.748 114.272C327.236 113.856 326.916 113.424 326.788 112.976C326.66 112.528 326.596 111.328 326.596 109.376C326.596 107.424 326.66 106.192 326.788 105.68C326.916 105.168 327.236 104.72 327.748 104.336C328.26 103.952 328.772 103.008 329.284 101.504C329.86 100 330.692 97.344 331.78 93.536C332.868 89.728 333.684 86.992 334.228 85.328C334.772 83.664 335.252 82.448 335.668 81.68C336.084 80.912 336.548 80.304 337.06 79.856C337.38 79.664 339.108 79.6 342.244 79.664C345.38 79.728 347.428 79.824 348.388 79.952C349.348 80.08 349.972 80.304 350.26 80.624C350.548 80.944 350.724 81.776 350.788 83.12C350.852 84.464 350.884 87.6 350.884 92.528C350.884 97.456 350.9 100.416 350.932 101.408C350.996 102.4 351.252 103.024 351.7 103.28C353.3 104.08 354.1 106.256 354.1 109.808ZM337.396 93.584C335.796 99.216 334.996 102.256 334.996 102.704C334.996 103.152 336.708 103.344 340.132 103.28H345.22V98.48C345.22 95.536 345.316 92.512 345.508 89.408L345.844 85.136H339.796L337.396 93.584ZM362.395 94.256C362.395 92.944 363.515 91.936 365.755 91.232C366.683 90.88 367.339 90.512 367.723 90.128C368.107 89.744 368.411 89.136 368.635 88.304C369.051 86.48 368.603 85.568 367.291 85.568C366.363 85.536 365.643 85.712 365.131 86.096C364.619 86.48 364.091 87.248 363.547 88.4C362.299 90.832 360.875 91.504 359.275 90.416C358.571 89.968 358.219 89.248 358.219 88.256C358.219 87.264 358.507 86.256 359.083 85.232C359.659 84.208 360.443 83.248 361.435 82.352C362.459 81.456 363.547 80.848 364.699 80.528C368.443 79.472 371.259 80.416 373.147 83.36C373.563 83.968 373.803 84.592 373.867 85.232C373.931 85.872 373.915 87.04 373.819 88.736C373.723 90.432 373.451 91.6 373.003 92.24C372.555 92.88 372.331 93.296 372.331 93.488C372.331 93.68 372.443 93.84 372.667 93.968C375.963 95.888 377.899 98.192 378.475 100.88C379.051 103.568 378.171 106.032 375.835 108.272C374.427 109.552 372.987 110.32 371.515 110.576C370.043 110.832 368.027 110.64 365.467 110C362.011 109.168 359.483 107.568 357.883 105.2C357.339 104.336 357.035 103.744 356.971 103.424C356.907 103.104 357.035 102.64 357.355 102.032C357.867 100.944 358.571 100.432 359.467 100.496C360.363 100.56 361.355 101.168 362.443 102.32C363.915 103.888 365.771 104.816 368.011 105.104C370.251 105.392 371.835 104.896 372.763 103.616L373.771 102.368L372.811 101.072C372.299 100.368 371.371 99.632 370.027 98.864C368.683 98.096 367.275 97.552 365.803 97.232C363.531 96.688 362.395 95.696 362.395 94.256ZM388.926 85.232C391.806 82.672 393.63 81.392 394.398 81.392C395.166 81.392 395.87 81.728 396.51 82.4C397.15 83.072 397.374 83.696 397.182 84.272C396.99 84.848 396.734 88.176 396.414 94.256C396.062 100.336 395.95 103.424 396.078 103.52C396.11 103.552 397.054 103.776 398.91 104.192C400.766 104.608 402.014 105.296 402.654 106.256C403.294 107.216 403.086 108.176 402.03 109.136C401.614 109.52 401.182 109.728 400.734 109.76C400.286 109.792 399.534 109.696 398.478 109.472C397.422 109.248 396.206 109.12 394.83 109.088C393.454 109.056 392.19 109.072 391.038 109.136C389.886 109.2 388.414 109.264 386.622 109.328C384.83 109.392 383.63 109.44 383.022 109.472L382.158 108.176C381.742 107.6 381.534 107.184 381.534 106.928C381.534 106.672 381.694 106.256 382.014 105.68C382.334 105.168 382.75 104.816 383.262 104.624C383.774 104.432 384.942 104.24 386.766 104.048L390.846 103.616C390.846 96.48 390.926 92.576 391.086 91.904C391.246 91.232 391.262 90.896 391.134 90.896C391.006 90.896 390.302 91.376 389.022 92.336C387.742 93.296 386.75 93.776 386.046 93.776C385.342 93.776 384.702 93.328 384.126 92.432C383.55 91.536 383.566 90.656 384.174 89.792C384.782 88.928 386.366 87.408 388.926 85.232ZM418.294 102.272C420.598 100.256 421.75 97.584 421.75 94.256C421.75 90.928 421.094 88.544 419.782 87.104C418.758 86.016 417.526 85.792 416.086 86.432C414.646 87.072 413.382 88.416 412.294 90.464C411.59 91.808 411.27 93.584 411.334 95.792C411.398 98 411.782 99.856 412.486 101.36C413.222 102.768 414.054 103.552 414.982 103.712C415.91 103.872 417.014 103.392 418.294 102.272ZM414.55 81.2C417.846 80.176 420.582 80.528 422.758 82.256C424.934 83.984 426.294 86.832 426.838 90.8C427.382 94.768 426.95 98.32 425.542 101.456C424.134 104.592 421.878 106.944 418.774 108.512C417.654 109.056 416.326 109.296 414.79 109.232C413.254 109.168 412.022 108.784 411.094 108.08C408.63 106.288 407.014 103.296 406.246 99.104C405.478 94.912 405.846 91.264 407.35 88.16C408.086 86.528 409.126 85.072 410.47 83.792C411.814 82.512 413.174 81.648 414.55 81.2Z" fill="#FCF3E8"/>
<path d="M14.496 103.28C16.768 103.28 19.056 103.504 21.36 103.952C23.696 104.4 25.152 104.88 25.728 105.392C26.304 105.904 26.592 106.528 26.592 107.264C26.592 108 26.336 108.592 25.824 109.04C25.312 109.488 24.832 109.728 24.384 109.76C23.936 109.792 22.976 109.648 21.504 109.328C20.032 109.008 17.216 108.768 13.056 108.608C8.896 108.448 6.304 108.304 5.28 108.176C4.256 108.048 3.44 107.728 2.832 107.216C2.224 106.704 1.92 106.144 1.92 105.536C1.92 104.896 4.096 102.352 8.448 97.904C12.8 93.424 14.976 90.864 14.976 90.224C14.976 89.584 14.752 88.832 14.304 87.968C13.856 87.104 13.28 86.384 12.576 85.808C11.872 85.232 11.152 85.104 10.416 85.424C9.68 85.712 8.736 86.576 7.584 88.016C6.784 89.104 6.144 89.824 5.664 90.176C5.216 90.528 4.672 90.704 4.032 90.704C3.392 90.704 2.8 90.48 2.256 90.032C1.712 89.584 1.44 88.992 1.44 88.256C1.44 87.52 2.176 86.192 3.648 84.272C5.12 82.352 6.4 81.104 7.488 80.528C9.344 79.536 11.264 79.344 13.248 79.952C15.232 80.56 16.88 81.856 18.192 83.84C20.816 87.744 21.104 91.2 19.056 94.208C18.064 95.552 15.216 98.576 10.512 103.28H14.496ZM41.9033 102.272C44.2073 100.256 45.3593 97.584 45.3593 94.256C45.3593 90.928 44.7033 88.544 43.3913 87.104C42.3673 86.016 41.1353 85.792 39.6953 86.432C38.2553 87.072 36.9913 88.416 35.9033 90.464C35.1993 91.808 34.8793 93.584 34.9433 95.792C35.0073 98 35.3913 99.856 36.0953 101.36C36.8313 102.768 37.6633 103.552 38.5913 103.712C39.5193 103.872 40.6233 103.392 41.9033 102.272ZM38.1593 81.2C41.4553 80.176 44.1913 80.528 46.3673 82.256C48.5433 83.984 49.9033 86.832 50.4473 90.8C50.9913 94.768 50.5593 98.32 49.1513 101.456C47.7433 104.592 45.4873 106.944 42.3833 108.512C41.2633 109.056 39.9353 109.296 38.3993 109.232C36.8633 109.168 35.6313 108.784 34.7033 108.08C32.2393 106.288 30.6233 103.296 29.8553 99.104C29.0873 94.912 29.4553 91.264 30.9593 88.16C31.6953 86.528 32.7353 85.072 34.0793 83.792C35.4233 82.512 36.7833 81.648 38.1593 81.2ZM66.621 103.28C68.893 103.28 71.181 103.504 73.485 103.952C75.821 104.4 77.277 104.88 77.853 105.392C78.429 105.904 78.717 106.528 78.717 107.264C78.717 108 78.461 108.592 77.949 109.04C77.437 109.488 76.957 109.728 76.509 109.76C76.061 109.792 75.101 109.648 73.629 109.328C72.157 109.008 69.341 108.768 65.181 108.608C61.021 108.448 58.429 108.304 57.405 108.176C56.381 108.048 55.565 107.728 54.957 107.216C54.349 106.704 54.045 106.144 54.045 105.536C54.045 104.896 56.221 102.352 60.573 97.904C64.925 93.424 67.101 90.864 67.101 90.224C67.101 89.584 66.877 88.832 66.429 87.968C65.981 87.104 65.405 86.384 64.701 85.808C63.997 85.232 63.277 85.104 62.541 85.424C61.805 85.712 60.861 86.576 59.709 88.016C58.909 89.104 58.269 89.824 57.789 90.176C57.341 90.528 56.797 90.704 56.157 90.704C55.517 90.704 54.925 90.48 54.381 90.032C53.837 89.584 53.565 88.992 53.565 88.256C53.565 87.52 54.301 86.192 55.773 84.272C57.245 82.352 58.525 81.104 59.613 80.528C61.469 79.536 63.389 79.344 65.373 79.952C67.357 80.56 69.005 81.856 70.317 83.84C72.941 87.744 73.229 91.2 71.181 94.208C70.189 95.552 67.341 98.576 62.637 103.28H66.621ZM94.5083 81.968C94.8603 81.584 95.5163 81.392 96.4763 81.392C97.4363 81.392 98.1083 81.872 98.4923 82.832C98.8763 83.792 99.1483 86 99.3083 89.456C99.4683 92.912 99.6443 94.752 99.8363 94.976C100.028 95.232 100.316 95.36 100.7 95.36C101.532 95.36 102.316 95.76 103.052 96.56C103.788 97.36 104.044 98.096 103.82 98.768C103.372 100.176 102.348 100.912 100.748 100.976C99.8843 100.976 99.4203 101.152 99.3563 101.504L99.1643 105.056C99.1003 105.856 98.8443 106.544 98.3963 107.12C97.9483 107.696 97.2763 107.984 96.3803 107.984C95.4843 107.984 94.8443 107.648 94.4603 106.976C94.0763 106.336 93.8683 105.328 93.8363 103.952V101.36L87.5963 101.84C87.1483 101.84 86.6523 101.808 86.1083 101.744C85.5643 101.68 85.1483 101.616 84.8603 101.552C84.5403 101.488 84.2203 101.328 83.9003 101.072C83.5803 100.816 83.3563 100.576 83.2283 100.352C83.1003 100.128 82.9403 99.728 82.7483 99.152C82.5563 98.576 82.4283 98.064 82.3643 97.616L81.9803 92.912L81.5963 81.056L82.7003 80.336C83.4363 79.856 83.9963 79.616 84.3803 79.616C84.7643 79.616 85.2283 79.84 85.7723 80.288C86.3163 80.736 86.6523 81.392 86.7803 82.256C86.9083 83.12 87.0523 85.264 87.2122 88.688L87.4523 96.32C90.9083 96.288 92.8603 96.144 93.3083 95.888C93.7563 95.632 93.9323 93.84 93.8363 90.512C93.7723 87.184 93.7883 85.024 93.8843 84.032C93.9803 83.04 94.1883 82.352 94.5083 81.968Z" fill="#FCF3E8"/>
<path d="M114 93.5H235" stroke="#FCF3E8" stroke-width="4"/>
</svg>
