<svg width="51" height="25" viewBox="0 0 51 25" fill="none" xmlns="http://www.w3.org/2000/svg">
<path d="M5.60998 7.62566C5.29138 7.49151 5.03147 7.42444 4.83025 7.42444C4.62903 7.42444 4.31882 7.50828 3.89961 7.67596C3.4804 7.84364 3.17019 8.12871 2.96897 8.53115C2.76774 8.93359 2.74259 9.36957 2.89351 9.83908C3.1115 10.5769 3.50555 10.929 4.07568 10.8955C4.6458 10.862 5.32492 10.4511 6.11303 9.66301C6.39809 9.37795 6.6077 9.15158 6.74185 8.98389C6.87599 8.81621 6.9766 8.68206 7.04368 8.58145C7.07721 8.48084 7.07721 8.397 7.04368 8.32993C7.01014 8.26285 6.84246 8.16224 6.54063 8.0281C6.2388 7.89395 5.92858 7.7598 5.60998 7.62566ZM7.01852 5.18586C7.68926 5.538 8.11685 5.81467 8.3013 6.01589C8.48576 6.21711 8.57798 6.51056 8.57798 6.89623C8.57798 7.2819 8.75405 7.52505 9.10618 7.62566C9.5757 7.79334 9.82722 8.19578 9.86076 8.83298C9.8943 9.47018 9.70985 10.7446 9.30741 12.6562C8.90497 14.5678 8.65344 15.9763 8.55283 16.8818C8.41868 17.7873 8.251 18.4077 8.04978 18.7431C7.84856 19.0784 7.53834 19.2377 7.11913 19.221C6.39809 19.221 5.95373 18.9527 5.78605 18.4161C5.61837 17.8795 5.6519 16.9405 5.88666 15.599C6.08788 14.2575 6.15495 13.5533 6.08788 13.4862C5.95373 13.4694 5.50099 13.5281 4.72964 13.6623C3.9583 13.7964 3.44686 13.8216 3.19534 13.7377C2.67552 13.6539 2.13893 13.3604 1.58557 12.8574C1.03222 12.3543 0.638162 11.8177 0.403405 11.2476C0.168648 10.6775 0.0512695 9.98161 0.0512695 9.15996C0.0512695 8.33831 0.168648 7.7095 0.403405 7.27352C0.772309 6.63632 1.28374 6.07458 1.93771 5.5883C2.59168 5.10202 3.37141 4.77503 4.2769 4.60735C5.18239 4.43967 6.09626 4.6325 7.01852 5.18586Z" fill="#885757"/>
<path d="M14.8207 16.0015C14.871 16.253 14.8962 16.7476 14.8962 17.4855C14.8962 18.2233 14.8543 18.7431 14.7704 19.0449C14.6866 19.3467 14.4854 19.7408 14.1668 20.2271C13.3283 21.4176 12.5486 21.6859 11.8276 21.032C11.5593 20.7972 11.4084 20.4954 11.3748 20.1265C11.3413 19.7576 11.4503 19.4054 11.7018 19.0701C11.9198 18.7179 12.0791 18.1562 12.1797 17.3848C12.2803 16.6135 12.3809 16.0769 12.4815 15.7751C12.5821 15.4732 12.7834 15.2804 13.0852 15.1966C13.387 15.1127 13.6302 15.0876 13.8146 15.1211C13.9991 15.1547 14.2003 15.2385 14.4183 15.3726C14.6363 15.5403 14.7704 15.7499 14.8207 16.0015Z" fill="#885757"/>
<path d="M21.969 7.62566C21.6504 7.49151 21.3905 7.42444 21.1892 7.42444C20.988 7.42444 20.6778 7.50828 20.2586 7.67596C19.8394 7.84364 19.5292 8.12871 19.3279 8.53115C19.1267 8.93359 19.1016 9.36957 19.2525 9.83908C19.4705 10.5769 19.8645 10.929 20.4347 10.8955C21.0048 10.862 21.6839 10.4511 22.472 9.66301C22.7571 9.37795 22.9667 9.15158 23.1008 8.98389C23.235 8.81621 23.3356 8.68206 23.4027 8.58145C23.4362 8.48084 23.4362 8.397 23.4027 8.32993C23.3691 8.26285 23.2014 8.16224 22.8996 8.0281C22.5978 7.89395 22.2876 7.7598 21.969 7.62566ZM23.3775 5.18586C24.0482 5.538 24.4758 5.81467 24.6603 6.01589C24.8447 6.21711 24.937 6.51056 24.937 6.89623C24.937 7.2819 25.113 7.52505 25.4652 7.62566C25.9347 7.79334 26.1862 8.19578 26.2197 8.83298C26.2533 9.47018 26.0688 10.7446 25.6664 12.6562C25.2639 14.5678 25.0124 15.9763 24.9118 16.8818C24.7777 17.7873 24.61 18.4077 24.4088 18.7431C24.2075 19.0784 23.8973 19.2377 23.4781 19.221C22.7571 19.221 22.3127 18.9527 22.145 18.4161C21.9773 17.8795 22.0109 16.9405 22.2456 15.599C22.4469 14.2575 22.5139 13.5533 22.4469 13.4862C22.3127 13.4694 21.86 13.5281 21.0886 13.6623C20.3173 13.7964 19.8058 13.8216 19.5543 13.7377C19.0345 13.6539 18.4979 13.3604 17.9446 12.8574C17.3912 12.3543 16.9971 11.8177 16.7624 11.2476C16.5276 10.6775 16.4102 9.98161 16.4102 9.15996C16.4102 8.33831 16.5276 7.7095 16.7624 7.27352C17.1313 6.63632 17.6427 6.07458 18.2967 5.5883C18.9507 5.10202 19.7304 4.77503 20.6359 4.60735C21.5414 4.43967 22.4552 4.6325 23.3775 5.18586Z" fill="#885757"/>
<path d="M33.2925 7.62566C32.9739 7.49151 32.714 7.42444 32.5128 7.42444C32.3116 7.42444 32.0014 7.50828 31.5821 7.67596C31.1629 7.84364 30.8527 8.12871 30.6515 8.53115C30.4503 8.93359 30.4251 9.36957 30.576 9.83908C30.794 10.5769 31.1881 10.929 31.7582 10.8955C32.3283 10.862 33.0075 10.4511 33.7956 9.66301C34.0806 9.37795 34.2902 9.15158 34.4244 8.98389C34.5585 8.81621 34.6591 8.68206 34.7262 8.58145C34.7598 8.48084 34.7598 8.397 34.7262 8.32993C34.6927 8.26285 34.525 8.16224 34.2232 8.0281C33.9213 7.89395 33.6111 7.7598 33.2925 7.62566ZM34.7011 5.18586C35.3718 5.538 35.7994 5.81467 35.9838 6.01589C36.1683 6.21711 36.2605 6.51056 36.2605 6.89623C36.2605 7.2819 36.4366 7.52505 36.7887 7.62566C37.2582 7.79334 37.5098 8.19578 37.5433 8.83298C37.5768 9.47018 37.3924 10.7446 36.9899 12.6562C36.5875 14.5678 36.336 15.9763 36.2354 16.8818C36.1012 17.7873 35.9335 18.4077 35.7323 18.7431C35.5311 19.0784 35.2209 19.2377 34.8017 19.221C34.0806 19.221 33.6363 18.9527 33.4686 18.4161C33.3009 17.8795 33.3344 16.9405 33.5692 15.599C33.7704 14.2575 33.8375 13.5533 33.7704 13.4862C33.6363 13.4694 33.1835 13.5281 32.4122 13.6623C31.6408 13.7964 31.1294 13.8216 30.8779 13.7377C30.3581 13.6539 29.8215 13.3604 29.2681 12.8574C28.7148 12.3543 28.3207 11.8177 28.0859 11.2476C27.8512 10.6775 27.7338 9.98161 27.7338 9.15996C27.7338 8.33831 27.8512 7.7095 28.0859 7.27352C28.4548 6.63632 28.9663 6.07458 29.6202 5.5883C30.2742 5.10202 31.0539 4.77503 31.9594 4.60735C32.8649 4.43967 33.7788 4.6325 34.7011 5.18586Z" fill="#885757"/>
<path d="M47.7853 16.58C47.9194 16.3117 47.9027 15.9931 47.735 15.6242C47.5673 15.2553 47.2655 14.9534 46.8295 14.7187C46.3935 14.4839 46.142 14.3582 46.0749 14.3414C45.9743 14.3582 45.9156 14.6013 45.8989 15.0708C45.8821 15.5403 45.8905 16.0266 45.924 16.5297C45.9575 17.0327 46.0414 17.3262 46.1755 17.41C46.3097 17.4938 46.5864 17.4435 47.0056 17.2591C47.4248 17.0746 47.6847 16.8483 47.7853 16.58ZM42.6542 9.13481C42.7045 9.10127 42.7296 8.83298 42.7296 8.32993C42.7296 7.82688 42.629 7.58373 42.4278 7.6005C42.3104 7.61727 42.2014 7.77657 42.1008 8.0784C42.0002 8.38023 42.0589 8.64014 42.2769 8.85813C42.4949 9.07612 42.6206 9.16834 42.6542 9.13481ZM43.2075 15.096C43.2075 14.0396 43.1237 13.3437 42.956 13.0083C42.7883 12.6729 42.2853 12.237 41.4469 11.7004C40.6252 11.1302 40.0635 10.6188 39.7616 10.1661C39.4598 9.71332 39.3089 9.16835 39.3089 8.53115C39.3089 7.89395 39.5436 7.08907 40.0132 6.1165C40.4994 5.14394 40.927 4.50674 41.2959 4.20491C41.6648 3.90308 41.8744 3.66832 41.9248 3.50064C41.9751 3.33295 41.9667 3.04789 41.8996 2.64545C41.8325 2.24301 41.8241 1.94118 41.8744 1.73996C41.9248 1.53874 42.0841 1.30398 42.3523 1.03569C42.6374 0.767395 42.9141 0.641633 43.1824 0.658401C43.4507 0.675169 43.7609 0.901542 44.113 1.33752C44.4652 1.7735 44.6748 2.22624 44.7418 2.69576C44.8089 3.16527 44.9011 3.4671 45.0185 3.60125C45.1191 3.7354 45.3539 3.84439 45.7228 3.92823C46.0917 4.01207 46.863 4.32229 48.0368 4.85888C49.2106 5.39546 49.9484 5.86498 50.2502 6.26742C50.5521 6.66986 50.5521 7.10584 50.2502 7.57535C49.9484 8.04486 49.5795 8.26285 49.1435 8.22932C48.7076 8.19578 47.9781 7.92749 46.9553 7.42444C45.9324 6.92138 45.3958 6.71178 45.3455 6.79562C45.312 7.03038 45.4377 8.45569 45.7228 11.0716L47.4835 11.9519C48.5566 12.522 49.3112 13.0754 49.7472 13.612C50.1832 14.1485 50.4347 14.8864 50.5018 15.8254C50.6695 18.0388 49.6885 19.4222 47.5589 19.9756C47.2739 20.0594 47.0643 20.1349 46.9301 20.2019C46.796 20.269 46.6786 20.3361 46.578 20.4031C46.4774 20.4702 46.4271 20.6044 46.4271 20.8056C46.4606 21.0068 46.4941 21.2164 46.5277 21.4344C46.5612 21.6524 46.687 22.1471 46.905 22.9184C47.1229 23.6897 47.1649 24.2096 47.0307 24.4779C46.8966 24.7462 46.4606 24.8468 45.7228 24.7797L44.5658 24.7042L43.3081 19.9001L41.4217 19.2964C40.3653 18.9946 39.6778 18.6592 39.3592 18.2903C39.0406 17.9214 38.9819 17.5022 39.1831 17.0327C39.4011 16.5632 39.6946 16.3033 40.0635 16.253C40.4324 16.2027 41.0193 16.2949 41.8241 16.5297L43.2075 16.9572V15.096Z" fill="#885757"/>
</svg>
