<svg width="144" height="265" viewBox="0 0 144 265" fill="none" xmlns="http://www.w3.org/2000/svg">
<path d="M73.7994 206.449L2.5 261C4.33333 225.5 10.1 152.8 10.5 148C10.9 143.2 27.6667 146 36 148C34 144.167 31.2 132.5 36 116.5C40.8 100.5 117.167 12.5 141.5 0C153 75.5 97.1 168.8 91.5 174C85.9 179.2 75 186.5 62.5 193.5L73.7359 201.636C75.3631 202.815 75.3949 205.228 73.7994 206.449Z" fill="#F2E9E9"/>
<path d="M4 258.5L142 2.5" stroke="#B5B5B5"/>
<path d="M116.5 50.5L141.5 43.5" stroke="#B5B5B5"/>
<path d="M102.5 75.5L137.38 67" stroke="#B5B5B5"/>
<path d="M89.3033 98.2978L130.039 94.7049" stroke="#B5B5B5"/>
<path d="M75.5001 125.558L120.33 122.371" stroke="#B5B5B5"/>
<path d="M63.5 149L108.697 144.943" stroke="#B5B5B5"/>
<path d="M52.5001 168.817L97.3304 165.63" stroke="#B5B5B5"/>
<path d="M41.5001 191.558L73.9265 187.141" stroke="#B5B5B5"/>
<path d="M30.5001 209.558L74.5055 206.289" stroke="#B5B5B5"/>
<path d="M19.5001 232.558L46.7457 227.627" stroke="#B5B5B5"/>
<path d="M5 259L2.5 257.5L1 264.5L5 259Z" fill="black" stroke="black"/>
</svg>
