<svg width="196" height="392" viewBox="0 0 196 392" fill="none" xmlns="http://www.w3.org/2000/svg">
<path d="M11.9259 0H182L196 49H0L11.9259 0Z" fill="#C0954E"/>
<path d="M98.6219 390.001C105.307 382.003 116.5 370.899 133.504 362.494C135.797 361.348 141.296 358.747 148.778 356.321C158.203 353.273 174.468 349.391 196 350.885V48H0V352.594C5.75213 351.274 10.3966 350.847 13.1949 350.672C58.3958 347.915 90.2657 384.119 92.0924 386.273C94.3661 388.933 95.9984 391.165 96.5814 392" fill="#E3AF59"/>
<path d="M148.873 47V258.469L97.7687 306.673L43.2524 258.04V47H148.873Z" fill="#FCF3E8"/>
<path d="M38 31L43.5 47H149.5L140 31H38Z" fill="#E6DCD1"/>
</svg>
