<svg width="398" height="120" viewBox="0 0 398 120" fill="none" xmlns="http://www.w3.org/2000/svg">
<path d="M20 31L28.1352 21.75M36.2704 12.5L28.1352 21.75M28.1352 21.75L20 12.5L36.2704 29.5" stroke="#6C9F9C" stroke-width="2"/>
<path d="M42.7784 9C36.7042 8.2 38.4397 16 40.0667 20C40.4283 20.8333 42.453 22.5 47.6596 22.5C54.1677 22.5 50.3713 10 42.7784 9Z" stroke="#6C9F9C" stroke-width="2"/>
<path d="M55.7947 11.5C56.2286 18.3 60.6758 19.6667 62.8452 19.5V11.5V27.5" stroke="#6C9F9C" stroke-width="2"/>
<path d="M76.404 9.5C76.404 12.8212 75.7826 16.327 74.947 19.5M74.947 19.5C73.8706 23.5879 72.4389 27.1233 71.5229 29L74.947 19.5ZM74.947 19.5C72.2077 18.3 69.3535 13 68.2688 10.5" stroke="#6C9F9C" stroke-width="2"/>
<path d="M103.415 13.7683C99.7993 9.60938 92.4151 2.74096 91.7999 8.53845C91.0309 15.7853 85.0358 31.8048 89.8424 26.985C93.6877 23.1292 97.9525 22.5158 99.6043 22.6911" stroke="#6C9F9C" stroke-width="2"/>
<path d="M104.073 26.5119L110.958 5.11889L117.364 24.4654" stroke="#6C9F9C" stroke-width="2"/>
<path d="M105 17.5L119.101 15" stroke="#6C9F9C" stroke-width="2"/>
<path d="M122.395 24.4336L127.218 5.83868L133.293 15.7073L137.079 6.88511L139.646 22.9699" stroke="#6C9F9C" stroke-width="2"/>
<path d="M154.021 10.6942L149.578 20.7961M149.578 20.7961L148.19 23.9529L142.114 32.5598L149.578 20.7961ZM149.578 20.7961C146.689 17.8461 144.044 12.0585 143.083 9.53348" stroke="#6C9F9C" stroke-width="2"/>
<path d="M158.036 10.7643L157.918 18.6457M156.311 27.027L157.918 18.6457M157.918 18.6457C157.869 17.273 160.03 15.8511 160.208 14.2838M160.208 14.2838C160.685 10.0708 162.204 6.4387 165.979 10.2914C171.158 15.5774 167.033 22.9021 164.322 25.9036L160.208 14.2838Z" stroke="#6C9F9C" stroke-width="2"/>
<path d="M18.4978 50.8896C14.1099 46.2957 5.21855 38.7849 4.7565 45.493C4.17893 53.8782 -2.09479 72.6449 3.28633 66.837C7.59123 62.1908 12.5261 61.2551 14.4554 61.368" stroke="#6C9F9C" stroke-width="2"/>
<path d="M20.0332 64.756L26.6745 40.6533L34.3521 61.7675" stroke="#6C9F9C" stroke-width="2"/>
<path d="M16.6342 53.842L38.3947 51.2891" stroke="#6C9F9C" stroke-width="2"/>
<path d="M40.1404 62.1063L44.9705 40.1936L52.5038 51.3497L56.5463 40.8713L60.2472 59.4566" stroke="#6C9F9C" stroke-width="2"/>
<path d="M76.2328 44.3199L71.6128 56.2952M71.6128 56.2952L70.1691 60.0375L63.6461 70.3707L71.6128 56.2952ZM71.6128 56.2952C68.232 53.0359 65.0156 46.4696 63.8301 43.5938" stroke="#6C9F9C" stroke-width="2"/>
<path d="M81.2465 43.8481L81.4433 53.0439M79.9338 62.9053L81.4433 53.0439M81.4433 53.0439C81.3282 51.4462 83.7771 49.6684 83.9165 47.8312M83.9165 47.8312C84.2911 42.8926 85.9011 38.5734 90.4468 42.856C96.6835 48.7317 92.2053 57.5008 89.1867 61.1509L83.9165 47.8312Z" stroke="#6C9F9C" stroke-width="2"/>
<path d="M100.313 40.0833L100.509 49.2792M99 59.1405L100.509 49.2792M100.509 49.2792C100.394 47.6815 102.843 45.9037 102.983 44.0665M102.983 44.0665C103.357 39.1278 104.967 34.8087 109.513 39.0912C115.75 44.9669 111.272 53.736 108.253 57.3861L102.983 44.0665Z" stroke="#6C9F9C" stroke-width="2"/>
<path d="M119.313 42.0833L119.509 51.2792M118 61.1405L119.509 51.2792M119.509 51.2792C119.394 49.6815 121.843 47.9037 121.983 46.0665M121.983 46.0665C122.357 41.1278 123.967 36.8087 128.513 41.0912C134.75 46.9669 130.272 55.736 127.253 59.3861L121.983 46.0665Z" stroke="#6C9F9C" stroke-width="2"/>
<path d="M142.313 42.0833L142.509 51.2792M141 61.1405L142.509 51.2792M142.509 51.2792C142.394 49.6815 144.843 47.9037 144.983 46.0665M144.983 46.0665C145.357 41.1278 146.967 36.8087 151.513 41.0912C157.75 46.9669 153.272 55.736 150.253 59.3861L144.983 46.0665Z" stroke="#6C9F9C" stroke-width="2"/>
<path d="M157.304 82.7012L157.8 99.5858M153.992 117.692L157.8 99.5858M157.8 99.5858C157.51 96.6521 163.688 93.388 164.04 90.0146M164.04 90.0146C164.985 80.9467 169.047 73.0163 180.515 80.8795C196.249 91.668 184.951 107.769 177.336 114.471L164.04 90.0146Z" stroke="#6C9F9C" stroke-width="2"/>
<path d="M174.799 13.9046L187.154 11.1932" stroke="#6C9F9C" stroke-width="2"/>
<path d="M1 81V99L3.22207 88.5007M3.22207 88.5007L3.5 87.1875L16 83.8125L3.22207 88.5007ZM3.22207 88.5007L11 96.75" stroke="#6C9F9C" stroke-width="2"/>
<path d="M23.2843 110L21.7286 94.8421M21.7286 94.8421L20 78C33.9583 82.4912 56.1273 77.4386 42.9901 88.6667C32.4803 97.6491 24.4367 96.5263 21.7286 94.8421Z" stroke="#6C9F9C" stroke-width="2"/>
<path d="M53.1818 100L51.4545 74L59.2273 86.1702M67 98.3404L59.2273 86.1702M59.2273 86.1702L66.1364 86.7234L48 87.8298" stroke="#6C9F9C" stroke-width="2"/>
<path d="M86 77.3132C80.7382 73.7401 70.2146 67.8802 70.2146 73.0255C70.2146 79.4571 65.8298 96.6082 73.7225 92.3204C80.0366 88.8902 83.3691 86.9607 84.246 86.4247" stroke="#6C9F9C" stroke-width="2"/>
<path d="M89 71L95.4 88.7778L102.6 71C103.933 77.4815 107.08 90.5556 109 91" stroke="#6C9F9C" stroke-width="2"/>
<path d="M115.532 77L114 100.526C117.065 102.393 123.041 105.007 122.428 100.526C121.815 96.0447 118.597 91.5636 117.065 89.8832C117.831 91.5636 119.977 93.9161 122.428 89.8832C124.88 85.8502 118.853 79.614 115.532 77Z" stroke="#6C9F9C" stroke-width="2"/>
<path d="M149 80.6851C147.833 84.3618 145.876 89.788 143.628 94.7273M137.497 104.963C136.71 105.773 135.937 106.32 135.197 106.523C130.289 107.871 134.686 106.045 137.497 104.963ZM137.497 104.963C139.547 102.857 141.695 98.9722 143.628 94.7273M143.628 94.7273C141.073 94.5401 135.504 92.8176 133.663 87.4254C131.823 82.0331 131.874 79.5617 132.13 79" stroke="#6C9F9C" stroke-width="2"/>
<path d="M222 18.5V38L238 33.25M250 12L254 28.5L238 33.25M238 33.25V18.5" stroke="#6C9F9C" stroke-width="2"/>
<path d="M259 39L262.5 10.5L270.5 27" stroke="#6C9F9C" stroke-width="2"/>
<path d="M282.5 35V22.75M282.5 22.75V10.5C276 10.5 269 6 273.5 15C277.1 22.2 281 23.1667 282.5 22.75ZM282.5 22.75L273 34" stroke="#6C9F9C" stroke-width="2"/>
<path d="M289 38V8L302 2.5L299.5 30" stroke="#6C9F9C" stroke-width="2"/>
<path d="M311 4V22M311 40V22M311 22L322.5 4M311 22C307.333 18.3333 302.4 13.4 312 23C321.6 32.6 320.667 40 319 42.5" stroke="#6C9F9C" stroke-width="2"/>
<path d="M349.5 11C350.821 15.2571 351.754 24.8152 346.492 32.5M346.492 32.5C345.78 33.5403 344.954 34.5462 344 35.5C336 43.5 332.333 47.5 331.5 48.5L346.492 32.5ZM346.492 32.5C344.495 32.5 339.6 30.6 336 23C332.4 15.4 331.5 10.8333 331.5 9.5" stroke="#6C9F9C" stroke-width="2"/>
<path d="M228 63.5217L234.039 85.2609M240.079 107L234.039 85.2609M234.039 85.2609L250.737 71.4928L248.605 57L255 100.478" stroke="#6C9F9C" stroke-width="2"/>
<path d="M262.857 101C263.571 76.7556 272.143 31.8322 275.714 50.372C276.886 56.4561 278.018 63.2282 279.012 69.625M279.012 69.625C280.44 78.8224 281.581 87.2441 282.143 91.7301L279.012 69.625ZM260 69.625H285" stroke="#6C9F9C" stroke-width="2"/>
<path d="M322 66.0001C317.667 59.0001 309 48.7001 309 63.5001C309 78.3001 315.667 87 319 89.5L324 80" stroke="#6C9F9C" stroke-width="2"/>
<path d="M327.5 95V93M327.5 93V56.5C331.5 56.5 349.5 60.5 338.5 67.5C329.7 73.1 328.833 75.8333 329.5 76.5C332.833 75.1667 339.3 74.2 338.5 81C337.7 87.8 330.833 91.8333 327.5 93Z" stroke="#6C9F9C" stroke-width="2"/>
<path d="M355 51.5L345.5 52.5V83L359 75" stroke="#6C9F9C" stroke-width="2"/>
<path d="M343.5 71L352.5 65.5" stroke="#6C9F9C" stroke-width="2"/>
<path d="M362.5 65.5L363.5 43.5H350.5L374.5 39" stroke="#6C9F9C" stroke-width="2"/>
<path d="M386 43L366.5 53V61M388.5 58.5L366.5 74V61M366.5 61L379 55" stroke="#6C9F9C" stroke-width="2"/>
<path d="M396.5 20V63" stroke="#6C9F9C" stroke-width="2"/>
<ellipse cx="396" cy="67.5" rx="1" ry="2.5" fill="#6C9F9C"/>
</svg>
