<svg width="462" height="322" viewBox="0 0 462 322" fill="none" xmlns="http://www.w3.org/2000/svg">
<path d="M24.804 209.624C23.724 226.614 -0.666044 232.724 0.0139564 243.764C2.23396 279.584 32.134 256.374 32.504 266.894C32.674 271.634 26.664 273.344 25.344 281.764C24.324 288.284 26.864 294.124 28.094 296.084C36.534 309.444 81.574 295.404 110.694 288.374C183.164 270.874 181.454 291.594 222.484 275.704C268.664 257.834 323.814 212.594 325.334 172.544C325.494 168.234 325.364 155.544 330.884 153.514C339.094 150.494 347.744 175.404 361.804 174.924C372.084 174.564 398.514 154.854 398.674 105.544C398.694 99.594 390.764 99.204 389.164 98.014C385.654 95.394 381.514 111.844 376.084 108.714C373.114 107.004 374.324 102.974 374.894 94.044C376.324 71.754 365.864 46.974 356.264 46.074C345.944 45.114 333.424 68.304 326.924 66.294C323.744 65.314 328.704 62.044 326.924 53.214C322.314 30.294 305.184 11.174 299.174 13.174C292.934 15.254 296.144 33.854 289.264 36.564C278.974 40.624 257.674 -2.26598 244.864 0.0940177C214.734 5.64402 244.444 24.244 234.164 24.274C221.104 24.324 188.014 -2.08598 180.644 3.26402C160.424 17.934 191.884 32.334 184.604 32.994C176.924 33.694 141.424 15.044 131.484 22.734C123.044 29.264 139.364 53.084 135.044 54.794C133.154 55.544 130.814 49.584 124.344 45.284C110.844 36.294 90.214 41.264 87.474 47.264C81.134 61.144 103.904 59.264 102.544 65.504C100.464 74.964 56.364 68.644 54.174 80.574C50.604 100.004 72.474 101.744 69.634 106.344C68.294 108.524 63.224 106.324 55.754 106.344C42.104 106.384 27.004 114.464 22.844 123.394C14.914 140.444 42.474 144.624 39.494 155.904C36.534 167.084 13.854 164.894 9.36396 176.124C-5.70604 213.784 25.744 194.534 24.794 209.634L24.804 209.624Z" fill="#776038"/>
<path d="M311.264 161.774C315.384 150.884 318.214 139.614 328.984 132.244C332.044 130.144 337.364 127.924 342.594 128.134C354.214 128.604 355.174 149.704 358.674 152.134C359.704 152.844 360.144 152.784 360.834 152.534C374.024 147.704 398.204 164.404 426.834 182.834C440.414 191.574 452.414 183.024 458.424 191.304C460.164 193.704 462.464 198.324 461.244 208.254C460.254 216.344 455.994 235.654 424.264 262.954C400.314 283.564 377.964 293.884 373.674 295.824C365.904 299.344 340.084 310.504 279.684 317.144C242.334 321.244 203.174 325.274 153.334 317.404C121.074 312.304 75.8339 300.884 76.5439 292.494C76.8539 288.884 85.6339 286.094 177.764 274.744C191.704 273.024 207.084 276.824 224.974 269.074C241.974 261.714 254.034 249.054 259.344 243.394C265.584 236.734 270.264 229.544 279.364 215.444C298.064 186.464 307.414 171.974 311.274 161.774H311.264Z" fill="#FCF3E8"/>
<path d="M370.222 190.994C364.162 198.364 363.352 208.374 367.942 215.744C371.932 222.144 380.152 226.814 387.002 224.844C395.652 222.354 402.162 209.264 396.962 194.974" stroke="#F28482" stroke-width="4" stroke-miterlimit="10"/>
<path d="M439.458 185.994C439.088 187.634 438.168 192.734 440.868 197.994C445.258 206.524 461.304 207.934 462.004 207.994L461.504 198.494L460.004 192.994L456.528 187.914L439.448 185.994H439.458Z" fill="#F4C7C7"/>
<g filter="url(#filter0_f_197_79)">
<path d="M343.304 236.726C349.684 234.666 356.864 237.096 360.914 242.226C365.484 248.016 366.264 257.486 360.694 262.926C354.514 268.946 344.284 266.346 338.894 261.606C338.204 261.006 331.314 254.726 333.394 246.636C335.234 239.476 342.534 236.976 343.304 236.726Z" fill="#F28482"/>
</g>
<ellipse cx="66.504" cy="231.994" rx="41.5" ry="4" fill="#5E4C2C"/>
<ellipse cx="61.2243" cy="194.435" rx="40.1809" ry="4" transform="rotate(10.7749 61.2243 194.435)" fill="#5E4C2C"/>
<ellipse cx="154.529" cy="189.385" rx="40.1809" ry="4.66261" transform="rotate(5.94856 154.529 189.385)" fill="#5E4C2C"/>
<ellipse cx="159.452" cy="231.796" rx="40.1809" ry="4.66261" transform="rotate(-8.29547 159.452 231.796)" fill="#5E4C2C"/>
<ellipse cx="221.548" cy="101.245" rx="40.1809" ry="4.66261" transform="rotate(32.0076 221.548 101.245)" fill="#5E4C2C"/>
<ellipse cx="277.281" cy="99.1265" rx="40.1809" ry="4.66261" transform="rotate(45.9763 277.281 99.1265)" fill="#5E4C2C"/>
<ellipse cx="164.181" cy="142.321" rx="40.1809" ry="4.60715" transform="rotate(14.206 164.181 142.321)" fill="#5E4C2C"/>
<ellipse cx="23.4171" cy="4.64586" rx="23.4171" ry="4.64586" transform="matrix(0.877042 0.480413 -0.373109 0.927787 214.303 175.756)" fill="#5E4C2C"/>
<ellipse cx="23.6479" cy="4.6301" rx="23.6479" ry="4.6301" transform="matrix(0.997213 0.074608 -0.236221 0.971699 199.875 226.178)" fill="#5E4C2C"/>
<ellipse cx="24.5295" cy="4.5136" rx="24.5295" ry="4.5136" transform="matrix(0.741129 0.671363 -0.450472 0.89279 237.149 127.941)" fill="#5E4C2C"/>
<ellipse cx="24.5295" cy="4.5136" rx="24.5295" ry="4.5136" transform="matrix(0.24889 0.968532 -0.867677 0.497128 351.028 75.4905)" fill="#5E4C2C"/>
<ellipse cx="69.2243" cy="139.435" rx="40.1809" ry="4" transform="rotate(19.9972 69.2243 139.435)" fill="#5E4C2C"/>
<ellipse cx="105.13" cy="99.4937" rx="40.1809" ry="4" transform="rotate(19.9972 105.13 99.4937)" fill="#5E4C2C"/>
<ellipse cx="138.79" cy="67.4029" rx="40.1809" ry="4" transform="rotate(26.3334 138.79 67.4029)" fill="#5E4C2C"/>
<ellipse cx="176.79" cy="52.4029" rx="40.1809" ry="4" transform="rotate(26.3334 176.79 52.4029)" fill="#5E4C2C"/>
<ellipse cx="221.79" cy="34.4029" rx="40.1809" ry="4" transform="rotate(26.3334 221.79 34.4029)" fill="#5E4C2C"/>
<ellipse cx="269.501" cy="42.4054" rx="40.1809" ry="4" transform="rotate(52.7666 269.501 42.4054)" fill="#5E4C2C"/>
<ellipse cx="309.465" cy="60.1056" rx="40.1809" ry="4" transform="rotate(77.7104 309.465 60.1056)" fill="#5E4C2C"/>
<ellipse cx="83.6194" cy="257.124" rx="39.4789" ry="4" transform="rotate(-9.0778 83.6194 257.124)" fill="#5E4C2C"/>
<rect x="359" y="218.71" width="9.15133" height="3.71538" transform="rotate(-38.6069 359 218.71)" fill="#F28482"/>
<rect x="376" y="233.097" width="9.15133" height="3.71538" transform="rotate(-83.7563 376 233.097)" fill="#F28482"/>
<rect x="395.571" y="229.827" width="9.15133" height="3.71538" transform="rotate(-106.317 395.571 229.827)" fill="#F28482"/>
<defs>
<filter id="filter0_f_197_79" x="288.004" y="190.994" width="121.605" height="120.436" filterUnits="userSpaceOnUse" color-interpolation-filters="sRGB">
<feFlood flood-opacity="0" result="BackgroundImageFix"/>
<feBlend mode="normal" in="SourceGraphic" in2="BackgroundImageFix" result="shape"/>
<feGaussianBlur stdDeviation="22.5" result="effect1_foregroundBlur_197_79"/>
</filter>
</defs>
</svg>
