<svg width="398" height="158" viewBox="0 0 398 158" fill="none" xmlns="http://www.w3.org/2000/svg">
<path d="M47.44 144.55H62.59V156.31H35.52V79.8299C38.29 79.7099 41.01 79.5799 44.61 79.4199C29.86 72.5899 36.81 60.0899 34.72 49.5699H46.85C46.85 54.1199 46.84 58.5299 46.85 62.9399C46.85 65.4499 47.4 68.1199 50.51 67.4899C51.92 67.1999 53.63 64.7699 53.89 63.1099C54.78 57.3699 53.7 51.9499 49.73 47.3199C47.25 44.4299 45.16 41.1899 42.61 38.3599C35.39 30.3299 34.49 20.8199 36.18 10.8699C36.61 8.34994 38.41 5.64994 40.36 3.87994C44.74 -0.0900636 56.44 -0.430063 61.11 3.17994C62.82 4.49994 64.56 6.72994 64.83 8.73994C65.61 14.5699 65.64 20.4899 65.99 26.6699H54.06C54.06 23.0799 54.35 19.4699 53.92 15.9399C53.74 14.4399 52.04 13.1299 51.04 11.7299C49.97 13.0599 48.21 14.2699 47.95 15.7499C47.07 20.7199 48.62 25.1799 51.83 29.1299C54.76 32.7399 57.42 36.5599 60.4 40.1099C66.79 47.7199 67.67 56.5099 66.41 65.8499C65.6 71.8399 62.98 76.4899 55.67 79.1399C58.42 79.4699 59.91 79.6499 61.7 79.8599V91.1999H47.35V110.83H58.68V122.84H47.45V144.54L47.44 144.55Z" fill="#FCF3E8"/>
<path d="M171.08 116.15V79.9101H181.58V156.29H172.16C168.82 143.31 165.39 129.99 161.96 116.67C161.7 116.7 161.44 116.72 161.19 116.75V155.69C160.48 156.17 160.22 156.48 159.93 156.51C153.523 157.123 150.317 154.267 150.31 147.94C150.31 127.23 150.31 106.53 150.31 85.8201V80.3101C151.36 79.9201 151.66 79.7201 151.97 79.7001C157.95 79.2734 161.647 81.9268 163.06 87.6601C165.42 97.2001 167.81 106.73 170.18 116.26L171.08 116.15Z" fill="#FCF3E8"/>
<path d="M277.15 156.42H265.24V79.9501H276.77V110.14H284.41V79.8501H296.33V156.26H284.61V123.45H277.15V156.43V156.42Z" fill="#FCF3E8"/>
<path d="M274.09 38.1601V2.02009H284.64V78.2001H275.2C271.81 65.0201 268.38 51.7001 264.95 38.3701C264.67 38.4101 264.4 38.4501 264.12 38.4901V78.1601H253.73V1.76009C256.27 1.76009 258.58 1.89009 260.86 1.73009C263.55 1.53009 264.52 2.61009 265.13 5.25009C267.66 16.2901 270.5 27.2501 273.23 38.2501C273.52 38.2201 273.8 38.1901 274.09 38.1701V38.1601Z" fill="#FCF3E8"/>
<path d="M300.87 118.29C300.87 109.21 300.2 100.06 301.06 91.06C301.89 82.34 307.19 78.98 316.93 79.14C326.37 79.29 331.61 82.8 331.9 91.42C332.5 109.25 332.49 127.12 331.88 144.95C331.59 153.55 326.06 157.43 317.04 157.58C307.59 157.74 301.93 154.09 301.12 145.52C300.27 136.52 300.93 127.38 300.93 118.3C300.91 118.3 300.89 118.3 300.87 118.3V118.29ZM320.16 118.09C320.16 110.64 320.16 103.18 320.16 95.73C320.16 93.08 319.79 90.53 316.36 90.48C313.13 90.43 312.74 92.87 312.73 95.31C312.7 110.55 312.6 125.79 312.89 141.02C312.92 142.67 315.26 144.28 316.53 145.91C317.74 144.26 319.91 142.65 320 140.94C320.38 133.34 320.17 125.71 320.17 118.09H320.16Z" fill="#FCF3E8"/>
<path d="M171.29 35.9999C172.41 40.2299 173.87 43.3899 173.97 46.5899C174.28 56.9899 174.09 67.3999 174.09 78.2199C174.43 78.0799 174 78.4099 173.57 78.4099C162.2 78.2199 162.2 81.1499 162.16 67.5599C162.14 61.7599 162.19 55.9699 162.15 50.1699C162.11 44.4699 161.66 44.1299 155.15 44.9499V78.2099H143.53V2.09988C151.35 2.09988 159.13 1.66988 166.83 2.26988C171.19 2.60988 173.76 6.20988 173.92 10.6499C174.15 16.9299 174.28 23.2499 173.84 29.5099C173.66 32.0999 171.89 34.5699 171.3 35.9999H171.29ZM155.36 32.4699C161.19 33.3099 162.03 32.6499 162.14 27.1899C162.2 24.2199 162.18 21.2499 162.14 18.2799C162.07 12.6699 161.49 12.1999 155.36 12.9599V32.4699Z" fill="#FCF3E8"/>
<path d="M0.389883 79.74C7.24988 79.74 13.8899 79.3699 20.4699 79.8399C27.0899 80.3199 30.8599 84.18 30.9599 90.9C31.2199 108.94 31.2399 127 30.9299 145.04C30.8099 151.95 26.9199 155.88 20.0999 156.39C13.6799 156.88 7.18988 156.49 0.379883 156.49V79.73L0.389883 79.74ZM12.2499 90.67V144.89C17.3599 145.91 19.1599 143.76 19.1199 139.05C18.9999 124.85 19.1199 110.64 19.0599 96.43C19.0399 91.03 18.1599 90.34 12.2499 90.67Z" fill="#FCF3E8"/>
<path d="M289.31 78.3901V2.04006C296.79 2.04006 304.07 1.68006 311.29 2.17006C316.2 2.50006 319.87 6.94006 319.92 12.2001C320.09 30.5501 320.11 48.9101 319.92 67.2601C319.86 73.3601 315.66 77.9501 309.86 78.3001C303.12 78.7101 296.33 78.4001 289.31 78.4001V78.3901ZM301.49 12.8001V66.7001C306.83 67.6001 308.11 65.0701 308.08 60.8001C307.99 46.7301 308.08 32.6601 308.03 18.5901C308.01 13.0501 307.23 12.4201 301.49 12.8001Z" fill="#FCF3E8"/>
<path d="M0.419922 2H11.9599V32.04H19.7999V2.06H31.4699V78.17H20.0399V44.96H12.1199V78.19H0.419922V2Z" fill="#FCF3E8"/>
<path d="M138.08 150.94C137.56 151.11 137.36 151.11 137.28 151.21C133.51 155.82 129.27 159.58 122.79 156.88C116.44 154.23 115.22 148.51 115.19 142.46C115.11 127.05 114.85 111.62 115.36 96.2201C115.51 91.7201 117.22 86.8101 119.64 82.9701C122.27 78.7701 133.1 77.7801 138.8 80.1501C144.42 82.4901 145.76 87.3401 145.95 92.7201C146.08 96.3401 145.97 99.9801 145.97 103.96H134.35C134.35 100.99 134.73 97.9901 134.21 95.1501C133.9 93.4501 132.17 92.0201 131.08 90.4601C129.88 91.9701 127.71 93.4401 127.64 95.0101C127.27 103.45 127.41 111.91 127.4 120.36C127.4 126.99 127.34 133.62 127.49 140.25C127.55 142.75 127.85 145.49 131.48 145.35C134.97 145.21 135.22 142.74 135.21 140.07C135.18 134.29 135.21 128.51 135.21 122.41C133.53 122.14 132.12 121.91 130.42 121.63V109.69C135.08 109.69 139.71 109.54 144.3 109.82C145.17 109.87 146.64 111.65 146.65 112.64C146.81 126.4 146.81 140.15 146.65 153.91C146.64 154.85 144.96 156.59 144.17 156.52C142.48 156.38 140.64 155.59 139.31 154.52C138.49 153.86 138.49 152.17 138.13 150.94H138.08Z" fill="#FCF3E8"/>
<path d="M368.01 118.44C368.01 126.55 368.2 134.67 367.96 142.77C367.67 152.44 362.58 157.29 352.97 157.58C342.82 157.89 336.52 153.12 336.25 143.39C335.77 126.52 335.75 109.62 336.27 92.7499C336.56 83.1399 342.77 78.7699 353.36 79.1699C362.89 79.5299 367.71 84.1099 367.98 93.6199C368.22 101.89 368.03 110.17 368.03 118.45C368.03 118.45 368.02 118.45 368.01 118.45V118.44ZM356.06 118.65C356.06 111.05 356.31 103.44 355.89 95.8699C355.79 93.9999 353.52 92.2599 352.24 90.4499C350.87 92.1799 348.35 93.8899 348.31 95.6499C347.99 110.67 348.08 125.71 348.18 140.73C348.2 143.29 349.18 146.32 352.28 145.65C353.85 145.31 355.78 142.32 355.89 140.43C356.31 133.19 356.06 125.91 356.06 118.64V118.65Z" fill="#FCF3E8"/>
<path d="M249.78 109.01C249.78 104.29 249.87 100.19 249.75 96.08C249.67 93.4 249.51 90.34 245.7 90.5C242.01 90.66 242.5 93.82 242.49 96.15C242.4 110.73 242.41 125.3 242.48 139.88C242.49 142.47 242.31 145.84 246.11 145.75C249.71 145.67 249.74 142.47 249.77 139.79C249.83 134.37 249.79 128.95 249.79 123.27H261.97C261.56 131.63 261.71 139.74 260.61 147.69C259.68 154.43 254.18 157.58 245.98 157.56C237.59 157.53 232.77 154.46 231.15 147.83C230.56 145.44 230.22 142.93 230.2 140.47C230.11 125.56 230.05 110.65 230.19 95.75C230.34 80.1 239.14 76.62 253.99 80.47C256.83 81.21 259.94 85.57 260.66 88.77C261.91 94.32 261.55 100.27 261.49 106.05C261.49 107.04 259.74 108.69 258.63 108.85C255.91 109.26 253.09 108.98 249.79 108.98L249.78 109.01Z" fill="#FCF3E8"/>
<path d="M226.3 104.97H215C215 101.51 215.35 97.8999 214.85 94.4199C214.61 92.6899 212.82 91.1799 211.74 89.5699C210.65 91.1499 208.43 92.9299 208.68 94.2599C209.49 98.6699 210.72 103.16 212.69 107.17C214.33 110.52 217.07 113.41 219.64 116.22C227.4 124.7 228.78 134.68 226.91 145.45C225.38 154.25 219.42 158.04 208.67 157.29C200.3 156.71 196.2 152.56 195.86 143.94C195.65 138.65 195.82 133.35 195.82 127.67H207.54C207.54 131.81 207.46 136.06 207.57 140.3C207.63 142.76 207.56 145.85 211.01 145.89C214.64 145.93 214.75 142.76 214.97 140.1C215.39 134.97 214.3 130.27 210.96 126.16C207.82 122.29 204.79 118.34 201.8 114.37C196.01 106.69 194.91 97.9999 196.86 88.8899C198.15 82.8699 201.85 79.9699 208.01 79.3899C209.34 79.2699 210.67 79.1399 212 79.1399C222.75 79.1399 226.04 82.2799 226.29 92.9199C226.38 96.8499 226.31 100.78 226.31 104.96L226.3 104.97Z" fill="#FCF3E8"/>
<path d="M64.7 127.52H76.4C76.4 131.97 76.02 136.27 76.57 140.44C76.83 142.42 78.85 144.16 80.08 146.02C81.35 144.17 83.39 142.46 83.74 140.45C84.91 133.77 81.88 128.34 77.75 123.24C72.77 117.1 66.82 111.39 65.7 103.04C65.15 98.97 64.89 94.75 65.33 90.69C66.09 83.7 70.48 79.89 77.56 79.34C79.71 79.17 81.89 79.14 84.04 79.3C91.7 79.87 94.75 82.96 95.07 90.55C95.23 94.35 95.15 98.17 95.15 101.98C95.15 102.8 95.02 103.62 94.92 104.83H83.91C83.91 101.54 84.29 98.08 83.76 94.76C83.46 92.89 81.64 91.26 80.51 89.53C79.43 91.32 77.21 93.32 77.5 94.86C78.29 99.11 79.71 103.38 81.67 107.25C83.29 110.44 85.81 113.27 88.31 115.9C96.29 124.27 97.47 134.33 95.9 145.05C94.61 153.85 88.83 157.8 78.51 157.35C69.47 156.96 65.2 152.91 64.74 143.86C64.48 138.59 64.69 133.29 64.69 127.52H64.7Z" fill="#FCF3E8"/>
<path d="M241.82 1.75994C245.2 27.5699 248.49 52.6499 251.85 78.2999H240.4C239.85 73.6899 239.33 69.2999 238.82 64.9799C230.8 63.2499 230.56 63.4499 229.87 71.0699C229.66 73.3699 229.2 75.6399 228.81 78.1899H218.24C220.37 61.1699 222.47 44.4499 224.53 27.7299C225.4 20.6699 226.49 13.6199 226.95 6.52994C227.21 2.58994 228.69 1.34994 232.46 1.69994C235.41 1.97994 238.4 1.75994 241.82 1.75994ZM231.82 52.4399C233.99 52.3399 235.49 52.2699 237.45 52.1799C236.53 44.0199 235.69 36.4899 234.84 28.9599C234.6 28.9699 234.35 28.9799 234.11 28.9999C233.36 36.6399 232.62 44.2899 231.82 52.4499V52.4399Z" fill="#FCF3E8"/>
<path d="M117.47 2.03003H131.66C134.97 27.26 138.28 52.45 141.65 78.2C137.9 78.41 134.36 78.62 130.53 78.83C130.06 75.96 129.57 73.4 129.24 70.82C128.31 63.57 128.33 63.56 120.39 64.82C119.85 69.09 119.29 73.47 118.69 78.16H108.09C111.21 52.82 114.29 27.73 117.45 2.03003H117.47ZM121.63 52.18H127.23C126.38 44.29 125.56 36.75 124.75 29.2C124.52 29.2 124.29 29.2 124.06 29.19C123.27 36.68 122.48 44.17 121.64 52.18H121.63Z" fill="#FCF3E8"/>
<path d="M82.08 44.56V66.42H96.8V78.4H70.25V2.04004H96.51V12.75H82.18V32.61H93.27V44.56H82.09H82.08Z" fill="#FCF3E8"/>
<path d="M176.44 2.08008H207.47V12.6901C204.53 12.8301 201.63 12.9701 198.09 13.1501V78.1401H186.17V13.1501H176.44V2.08008Z" fill="#FCF3E8"/>
<path d="M372.41 79.8799H383.89V144.41H397.88V156.43H372.41V79.8799Z" fill="#FCF3E8"/>
<path d="M99.79 156.45V79.8999H111.44V85.9799C111.44 107.17 111.44 128.36 111.44 149.55C111.44 154.377 109.023 156.76 104.19 156.7C102.88 156.68 101.57 156.55 99.79 156.45Z" fill="#FCF3E8"/>
</svg>
