<svg width="98" height="156" viewBox="0 0 98 156" fill="none" xmlns="http://www.w3.org/2000/svg">
<path d="M69.5862 64.9398C69.4086 64.6086 69.6275 64.2037 70.0019 64.171L77.3733 63.5255L95.4983 64.2402L29.3705 59.8724L96.4963 64.2402C98.9086 78.1871 91.0796 97.4705 86.5748 112.28C84.372 119.5 80.8724 126.373 76.0758 132.899C71.234 139.347 65.4057 144.538 58.5907 148.472C52.0891 152.226 45.4129 154.411 38.562 155.027C34.6154 155.427 30.7953 155.233 27.1018 154.444C23.4415 153.531 19.7435 151.648 16.008 148.796C12.2272 145.866 8.91354 141.935 6.06687 137.005C0.509072 127.378 -1.23015 117.582 0.849224 107.616C2.96174 97.5265 7.77796 90.3109 15.2979 85.9693C28.9277 78.1001 38.9774 79.982 46.4511 91.8414L56.3192 64.2402L58.9876 64.9398L26.9623 144.976C31.6317 148.541 36.5589 150.653 41.7436 151.312C46.9616 151.847 52.3122 150.532 57.7955 147.366C63.3571 144.155 68.0888 139.597 71.9905 133.692C75.9255 127.664 78.6418 121.243 80.1395 114.431C83.123 100.603 86.4358 63.8829 58.8083 63.5255L69.5862 64.9398ZM41.5171 104.781C36.2876 95.9039 32.1732 90.0528 28.3261 87.3694C24.5575 84.6408 20.6756 84.4297 16.6807 86.7362C12.764 88.9975 10.0449 91.9761 8.52327 95.6721C7.03478 99.2446 6.51787 103.143 6.97252 107.368C7.98126 115.446 10.6997 123.321 15.1279 130.991L18.3451 136.02C20.7701 139.316 23.3277 142.118 26.0179 144.426L41.5171 104.781Z" fill="url(#paint0_linear_175_25)"/>
<path d="M31.7134 10.8262L51.3124 16.8385L66.5235 0L64.7772 21.6834L83.5859 29.491L62.9076 36.8798L59.3209 58.5436L48.2873 41.4268L27.262 47.0082L41.1212 29.0406L31.7134 10.8262Z" fill="#F6BD60"/>
<path d="M28.538 58.1734L97.8004 62.8376L84.5077 68.4345L28.3048 60.7387L28.538 58.1734Z" fill="black"/>
<defs>
<linearGradient id="paint0_linear_175_25" x1="90.6828" y1="63.9654" x2="-6.8955" y2="86.1216" gradientUnits="userSpaceOnUse">
<stop stop-color="#F28482"/>
<stop offset="1" stop-color="#E76764"/>
</linearGradient>
</defs>
</svg>
