<svg width="32" height="32" viewBox="0 0 32 32" fill="none" xmlns="http://www.w3.org/2000/svg">
<g clip-path="url(#clip0_175_11)">
<rect width="32" height="32" fill="white"/>
<path d="M18.9621 13.6781C18.929 13.6164 18.9698 13.541 19.0395 13.5349L20.4121 13.4147L23.7871 13.5478L11.4736 12.7345L23.9729 13.5478C24.4221 16.1448 22.9643 19.7355 22.1255 22.4932C21.7153 23.8376 21.0636 25.1174 20.1705 26.3326C19.2689 27.5332 18.1836 28.4998 16.9146 29.2324C15.704 29.9314 14.4608 30.3383 13.1852 30.453C12.4503 30.5275 11.7389 30.4913 11.0512 30.3443C10.3696 30.1743 9.68103 29.8238 8.98544 29.2927C8.28144 28.747 7.66441 28.0151 7.13434 27.097C6.09944 25.3045 5.77559 23.4804 6.16278 21.6247C6.55614 19.7459 7.45296 18.4024 8.85322 17.5939C11.3912 16.1286 13.2625 16.479 14.6542 18.6874L16.4917 13.5478L16.9885 13.6781L11.0252 28.5814C11.8947 29.2452 12.8122 29.6385 13.7776 29.7612C14.7492 29.8609 15.7455 29.616 16.7666 29.0265C17.8022 28.4286 18.6832 27.5798 19.4098 26.4803C20.1425 25.3577 20.6483 24.1622 20.9272 22.8936C21.4827 20.3189 22.0996 13.4813 16.9552 13.4147L18.9621 13.6781V13.6781ZM13.7354 21.0967C12.7617 19.4438 11.9955 18.3543 11.2792 17.8546C10.5774 17.3465 9.85459 17.3072 9.1107 17.7367C8.3814 18.1578 7.87508 18.7124 7.59174 19.4006C7.31457 20.0659 7.21832 20.7918 7.30298 21.5785C7.49081 23.0828 7.99701 24.549 8.82156 25.9772L9.42063 26.9138C9.87218 27.5274 10.3484 28.0491 10.8494 28.4789L13.7354 21.0967Z" fill="url(#paint0_linear_175_11)"/>
<g filter="url(#filter0_d_175_11)">
<path d="M11.9099 3.60176L15.5594 4.72128L18.3918 1.58585L18.0666 5.62344L21.5689 7.07727L17.7185 8.45311L17.0506 12.4871L14.9961 9.2998L11.081 10.3391L13.6617 6.9934L11.9099 3.60176Z" fill="#F6BD60"/>
</g>
<path d="M11.3186 12.4181L24.2158 13.2866L21.7406 14.3288L11.2752 12.8958L11.3186 12.4181Z" fill="black"/>
</g>
<defs>
<filter id="filter0_d_175_11" x="-10.018" y="-15.5141" width="52.6883" height="53.1014" filterUnits="userSpaceOnUse" color-interpolation-filters="sRGB">
<feFlood flood-opacity="0" result="BackgroundImageFix"/>
<feColorMatrix in="SourceAlpha" type="matrix" values="0 0 0 0 0 0 0 0 0 0 0 0 0 0 0 0 0 0 127 0" result="hardAlpha"/>
<feOffset dy="4"/>
<feGaussianBlur stdDeviation="10.55"/>
<feComposite in2="hardAlpha" operator="out"/>
<feColorMatrix type="matrix" values="0 0 0 0 0.987549 0 0 0 0 0.746534 0 0 0 0 0.264504 0 0 0 0.25 0"/>
<feBlend mode="normal" in2="BackgroundImageFix" result="effect1_dropShadow_175_11"/>
<feBlend mode="normal" in="SourceGraphic" in2="effect1_dropShadow_175_11" result="shape"/>
</filter>
<linearGradient id="paint0_linear_175_11" x1="22.6541" y1="14.3722" x2="10.7557" y2="30.9605" gradientUnits="userSpaceOnUse">
<stop stop-color="#F28482"/>
<stop offset="1" stop-color="#E76764"/>
</linearGradient>
<clipPath id="clip0_175_11">
<rect width="32" height="32" fill="white"/>
</clipPath>
</defs>
</svg>
