<svg width="180" height="180" viewBox="0 0 180 180" fill="none" xmlns="http://www.w3.org/2000/svg">
<g clip-path="url(#clip0_175_18)">
<rect width="180" height="180" fill="white"/>
<path d="M109.093 77.8274C108.915 77.4962 109.134 77.0913 109.508 77.0586L116.88 76.4131L135.005 77.1278L68.877 72.76L136.003 77.1278C138.415 91.0747 130.586 110.358 126.081 125.168C123.878 132.388 120.379 139.261 115.582 145.787C110.74 152.234 104.912 157.425 98.0972 161.36C91.5956 165.114 84.9193 167.299 78.0685 167.915C74.1218 168.315 70.3018 168.121 66.6083 167.331C62.9479 166.418 59.25 164.536 55.5144 161.684C51.7337 158.753 48.42 154.823 45.5733 149.892C40.0155 140.266 38.2763 130.47 40.3557 120.504C42.4682 110.414 47.2844 103.198 54.8043 98.8569C68.4342 90.9877 78.4838 92.8696 85.9575 104.729L95.8256 77.1278L98.494 77.8274L66.4688 157.864C71.1382 161.429 76.0653 163.541 81.2501 164.2C86.468 164.735 91.8186 163.42 97.3019 160.254C102.864 157.043 107.595 152.485 111.497 146.58C115.432 140.552 118.148 134.131 119.646 127.318C122.629 113.491 125.942 76.7705 98.3147 76.4131L109.093 77.8274V77.8274ZM81.0235 117.668C75.794 108.791 71.6796 102.94 67.8326 100.257C64.0639 97.5284 60.1821 97.3173 56.1871 99.6238C52.2705 101.885 49.5513 104.864 48.0297 108.56C46.5412 112.132 46.0243 116.031 46.479 120.255C47.4877 128.334 50.2061 136.208 54.6343 143.878L57.8515 148.908C60.2765 152.204 62.8341 155.005 65.5243 157.313L81.0235 117.668Z" fill="url(#paint0_linear_175_18)"/>
<g filter="url(#filter0_d_175_18)">
<path d="M71.2192 23.7136L90.8182 29.7258L106.029 12.8874L104.283 34.5707L123.092 42.3784L102.413 49.7672L98.8266 71.431L87.793 54.3142L66.7677 59.8955L80.6269 41.928L71.2192 23.7136Z" fill="#F6BD60"/>
</g>
<path d="M68.0459 71.0608L137.308 75.725L124.016 81.3219L67.8126 73.6261L68.0459 71.0608Z" fill="black"/>
</g>
<defs>
<filter id="filter0_d_175_18" x="45.6695" y="-4.21279" width="98.5203" height="100.744" filterUnits="userSpaceOnUse" color-interpolation-filters="sRGB">
<feFlood flood-opacity="0" result="BackgroundImageFix"/>
<feColorMatrix in="SourceAlpha" type="matrix" values="0 0 0 0 0 0 0 0 0 0 0 0 0 0 0 0 0 0 127 0" result="hardAlpha"/>
<feOffset dy="4"/>
<feGaussianBlur stdDeviation="10.55"/>
<feComposite in2="hardAlpha" operator="out"/>
<feColorMatrix type="matrix" values="0 0 0 0 0.987549 0 0 0 0 0.746534 0 0 0 0 0.264504 0 0 0 0.25 0"/>
<feBlend mode="normal" in2="BackgroundImageFix" result="effect1_dropShadow_175_18"/>
<feBlend mode="normal" in="SourceGraphic" in2="effect1_dropShadow_175_18" result="shape"/>
</filter>
<linearGradient id="paint0_linear_175_18" x1="128.92" y1="81.5552" x2="65.0216" y2="170.64" gradientUnits="userSpaceOnUse">
<stop stop-color="#F28482"/>
<stop offset="1" stop-color="#E76764"/>
</linearGradient>
<clipPath id="clip0_175_18">
<rect width="180" height="180" fill="white"/>
</clipPath>
</defs>
</svg>
