<svg width="16" height="16" viewBox="0 0 16 16" fill="none" xmlns="http://www.w3.org/2000/svg">
<g clip-path="url(#clip0_175_4)">
<rect width="16" height="16" fill="white"/>
<path d="M9.99746 6.78621C9.97992 6.75349 10.0015 6.7135 10.0385 6.71026L10.7666 6.64651L12.5569 6.7171L6.02525 6.28568L12.6554 6.7171C12.8937 8.09467 12.1204 9.99935 11.6755 11.4622C11.4579 12.1753 11.1122 12.8541 10.6385 13.4987C10.1602 14.1356 9.58454 14.6483 8.91141 15.0369C8.26923 15.4077 7.6098 15.6235 6.93312 15.6844C6.5433 15.7239 6.16598 15.7047 5.80117 15.6267C5.43962 15.5366 5.07437 15.3506 4.7054 15.0689C4.33197 14.7795 4.00466 14.3912 3.72349 13.9042C3.17453 12.9534 3.00274 11.9858 3.20813 11.0014C3.41679 10.0049 3.8925 9.29218 4.63526 8.86334C5.98152 8.08608 6.97415 8.27196 7.71235 9.44335L8.68704 6.7171L8.9506 6.78621L5.78739 14.6916C6.2486 15.0437 6.73526 15.2523 7.24738 15.3174C7.76277 15.3703 8.29126 15.2404 8.83286 14.9277C9.38219 14.6105 9.84955 14.1603 10.2349 13.5771C10.6236 12.9816 10.8919 12.3475 11.0398 11.6745C11.3345 10.3088 11.6617 6.68181 8.9329 6.64651L9.99746 6.78621V6.78621ZM7.225 10.7214C6.70847 9.84461 6.30208 9.26669 5.9221 9.00164C5.54985 8.73212 5.16643 8.71127 4.77184 8.93909C4.38499 9.16244 4.11641 9.45665 3.96611 9.82171C3.81909 10.1746 3.76803 10.5596 3.81294 10.9769C3.91258 11.7749 4.18109 12.5526 4.61847 13.3102L4.93624 13.807C5.17577 14.1325 5.42839 14.4093 5.6941 14.6372L7.225 10.7214Z" fill="url(#paint0_linear_175_4)"/>
<g filter="url(#filter0_d_175_4)">
<path d="M6.25752 1.44129L8.19336 2.03514L9.6958 0.371958L9.52331 2.51368L11.3811 3.28486L9.33864 4.01467L8.98438 6.15447L7.89457 4.46379L5.81783 5.01508L7.18674 3.24037L6.25752 1.44129Z" fill="#F6BD60"/>
</g>
<path d="M5.94251 6.11784L12.7837 6.57853L11.4708 7.13136L5.91947 6.37122L5.94251 6.11784Z" fill="black"/>
</g>
<defs>
<filter id="filter0_d_175_4" x="-15.2836" y="-16.7279" width="47.7664" height="47.9822" filterUnits="userSpaceOnUse" color-interpolation-filters="sRGB">
<feFlood flood-opacity="0" result="BackgroundImageFix"/>
<feColorMatrix in="SourceAlpha" type="matrix" values="0 0 0 0 0 0 0 0 0 0 0 0 0 0 0 0 0 0 127 0" result="hardAlpha"/>
<feOffset dy="4"/>
<feGaussianBlur stdDeviation="10.55"/>
<feComposite in2="hardAlpha" operator="out"/>
<feColorMatrix type="matrix" values="0 0 0 0 0.987549 0 0 0 0 0.746534 0 0 0 0 0.264504 0 0 0 0.25 0"/>
<feBlend mode="normal" in2="BackgroundImageFix" result="effect1_dropShadow_175_4"/>
<feBlend mode="normal" in="SourceGraphic" in2="effect1_dropShadow_175_4" result="shape"/>
</filter>
<linearGradient id="paint0_linear_175_4" x1="11.9559" y1="7.15441" x2="5.64445" y2="15.9536" gradientUnits="userSpaceOnUse">
<stop stop-color="#F28482"/>
<stop offset="1" stop-color="#E76764"/>
</linearGradient>
<clipPath id="clip0_175_4">
<rect width="16" height="16" fill="white"/>
</clipPath>
</defs>
</svg>
