<svg width="162" height="133" viewBox="0 0 162 133" fill="none" xmlns="http://www.w3.org/2000/svg">
<path d="M16.8363 48.4767L33.3778 75.618" stroke="black"/>
<ellipse cx="12.7229" cy="40.6427" rx="9.30977" ry="9.01884" transform="rotate(-55.11 12.7229 40.6427)" fill="#F6ABAA"/>
<path d="M81.82 21.6919L84.2599 53.3828" stroke="black"/>
<ellipse cx="81.7051" cy="12.8443" rx="9.30977" ry="9.01884" transform="rotate(-28.1521 81.7051 12.8443)" fill="#73ADA9"/>
<path d="M5.74238 118.941C5.60229 109.162 7.33861 99.451 10.8522 90.3637C14.3658 81.2763 19.5879 72.9902 26.2203 65.9786C32.8527 58.9669 40.7655 53.367 49.507 49.4985C58.2484 45.63 67.6473 43.5688 77.167 43.4324C86.6867 43.296 99.98 44.887 108.829 48.5035C117.677 52.12 124.691 54.1947 131.521 61.0135C138.352 67.8323 142.877 77.0505 146.649 86.0335C150.422 95.0165 150.585 107.085 150.725 116.865L78.2338 117.903L5.74238 118.941Z" fill="#F69B9E"/>
<path d="M5.62166 119.59C5.94119 118.88 6.64383 118.419 7.42246 118.41L148.667 116.782C149.407 116.774 150.092 117.175 150.446 117.824L156.368 128.679C157.094 130.01 156.134 131.633 154.618 131.637L3.10291 132.074C1.64912 132.078 0.676722 130.579 1.27329 129.253L5.62166 119.59Z" fill="#E3AF59"/>
<circle cx="104.153" cy="60.7226" r="9.01884" fill="#F8C470"/>
<path d="M100.953 69.1595L91.934 90.6884" stroke="black"/>
<path d="M62.841 50.249L75.0601 79.633" stroke="black"/>
<circle cx="9.01884" cy="9.01884" r="9.01884" transform="matrix(-1 0 0 1 68.0776 33.666)" fill="#A2A54E"/>
<path d="M146.569 45.3008L131.335 73.1967" stroke="black"/>
<ellipse cx="151.297" cy="37.8215" rx="9.30977" ry="9.01884" transform="rotate(4.89004 151.297 37.8215)" fill="#F28482"/>
</svg>
