<svg width="362" height="241" viewBox="0 0 362 241" fill="none" xmlns="http://www.w3.org/2000/svg">
<g clip-path="url(#clip0_45_381)">
<path d="M45.1073 33.1033L68.5174 26.4507L73.4278 0L85.6239 22.685L109.468 18.9536L93.5947 39.6304L103.427 63.7646L81.4215 53.8599L63.6527 72.5054L65.9252 45.7124L45.1073 33.1033Z" fill="#FCF3E8"/>
<path d="M50.4174 124.277C51.5022 123.649 51.8334 121.424 52.2102 120.123C53.6833 113.676 55.0765 107.195 56.5497 100.725C57.2919 97.6894 58.1256 94.2433 60.7635 92.3377C64.0409 89.9071 69.7278 91.0939 71.1781 95.0877C71.8404 96.7195 71.9546 98.4539 71.8747 100.291C70.1618 114.703 65.6054 128.625 61.9625 142.637C61.4372 144.52 60.9119 146.437 60.124 148.229C58.4453 152.736 53.3179 156.365 48.7158 153.946C45.1187 152.154 43.223 148.126 41.4644 144.509C40.0141 142.158 37.6617 133.486 33.9504 136.909C28.743 142.569 24.9175 156.353 15.0053 150.762C11.5338 148.468 10.289 143.984 9.23843 140.115C6.47489 129.275 3.72278 118.332 1.01635 107.446C0.182717 103.863 -0.845043 99.5494 1.13054 96.2516C2.58082 93.8781 5.75546 92.8626 8.519 93.5016C12.9955 94.4601 14.5714 99.3212 15.6105 103.269C17.0266 108.701 18.317 114.235 19.6645 119.633C20.8978 124.722 22.7249 124.482 25.2829 120.34C27.7495 116.677 29.5881 112.33 33.1396 109.568C38.975 105.312 44.5249 110.766 46.4548 116.381C47.3912 118.058 48.6016 124.288 50.3603 124.311H50.4059V124.277H50.4174Z" fill="#FCF3E8"/>
<path d="M340.725 80.0481C347.451 80.0823 355.673 80.9153 359.522 87.1571C364.181 94.4145 358.528 105.415 349.473 102.996C345.647 101.98 344.322 97.0733 340.543 96.0577C338.601 95.4415 336.34 96.0463 335.598 97.3015C334.056 100.223 337.962 103.566 340.645 105.107C347.783 108.918 356.541 111.805 359.922 119.861C362.559 125.863 362.822 133.486 359.933 139.465C355.948 148.023 345.499 149.37 336.888 148C329.774 146.757 321.803 144.406 317.155 138.529C313.067 133.235 314.335 123.444 322.568 124.403C325.423 124.768 328.004 126.673 330.562 128.408C334.365 130.85 338.83 133.703 343.455 132.664C346.138 132.014 347.143 128.876 345.601 126.639C344.688 125.133 343.032 123.969 341.262 122.988C337.379 120.934 333.211 118.96 329.797 116.13C325.846 112.957 322.762 108.838 320.935 104.114C314.7 87.625 325.126 79.9225 340.565 80.0366H340.737L340.725 80.0481Z" fill="#FCF3E8"/>
<path d="M104.249 196.28C104.249 191.647 104.249 187.003 104.249 182.37C104.283 178.628 104.089 174.029 106.419 171.484C109 168.62 114.378 168.586 116.891 171.53C120.979 175.866 116.16 187.197 121.767 189.514C123.971 190.369 126.54 190.027 128.904 190.027C132.421 189.993 137.16 190.118 137.651 185.645C138.177 179.472 135.356 170.902 140.906 166.463C145.051 163.497 150.635 166.292 151.321 171.313C151.937 174.474 151.8 177.795 152.223 180.978C153.673 191.488 155.454 201.974 157.065 212.427C157.624 216.284 158.663 221.076 155.957 224.283C153.627 226.987 148.877 227.238 146.285 224.728C142.299 220.78 142.733 214.036 141.374 208.924C140.278 204.302 135.219 205.227 131.61 205.124C126.826 205.261 119.894 204.348 119.072 210.133C118.604 212.872 118.992 216.021 118.227 218.691C117.222 223.792 110.553 224.876 106.967 221.818C104.055 219.365 104.249 214.39 104.226 210.384C104.226 205.74 104.226 201.073 104.226 196.429V196.269L104.249 196.28Z" fill="#FCF3E8"/>
<path d="M228.06 121.904C228.06 117.305 228.06 112.695 228.06 108.085C227.946 102.859 228.151 96.1718 234.147 95.3274C241.409 94.3118 242.894 100.017 242.666 106.385C242.46 112.284 243.1 116.164 249.723 115.856C252.943 115.65 256.54 116.232 259.464 114.863C265.196 111.862 257.054 97.6096 265.174 92.0639C267.64 90.4321 271.226 90.8885 273.236 93.0908C276.388 96.7081 275.383 102.14 276.091 106.59C277.564 117.088 279.368 127.529 280.967 137.993C281.526 141.907 282.588 146.859 279.802 150.077C277.724 152.439 273.727 152.93 271.123 151.184C269.079 149.838 267.971 147.613 267.24 145.125C266.178 141.656 266.11 137.776 265.128 134.364C264.169 130.987 260.708 130.827 257.762 130.873C253.88 130.998 249.803 130.496 246.046 131.591C243.419 132.447 242.7 135.243 242.688 137.753C242.586 141.496 242.791 146.426 239.057 148.411C235.254 150.534 229.978 148.457 228.837 144.166C227.923 141.451 228.083 138.335 228.071 135.323V121.881L228.06 121.904Z" fill="#FCF3E8"/>
<path d="M165.823 231.574C165.721 224.42 168.324 217.642 170.094 210.772C171.693 205.033 173.292 199.281 174.891 193.542C175.667 190.746 176.455 187.95 177.232 185.155C178.956 178.228 181.48 172.477 189.382 174.508C193.31 175.478 195.092 179.244 196.211 182.861C200.961 198.209 207.665 212.838 213.534 227.763C214.905 231.392 215.898 236.185 212.883 239.174C210.371 241.685 206.009 241.536 203.508 239.06C200.151 236.07 199.625 230.353 195.834 228.197C193.676 226.907 190.661 226.919 187.806 226.862C186.618 226.862 185.362 226.93 184.255 227.307C181.011 228.265 180.749 232.008 179.847 234.792C178.602 239.711 172.321 241.65 168.518 238.41C166.623 236.766 165.96 234.188 165.835 231.734V231.574H165.823ZM187.635 205.5C186.892 205.683 186.561 207.566 186.321 208.422C186.139 209.449 185.705 210.51 186.219 211.354C186.561 211.776 187.452 211.845 188.377 211.799C189.154 211.742 190.158 211.594 190.204 210.658C190.124 209.14 189.279 207.783 188.617 206.379C188.411 206.037 188.126 205.523 187.726 205.489H187.646L187.635 205.5Z" fill="#FCF3E8"/>
<path d="M177.197 117.955C176.729 128.933 179.744 133.645 191.403 133.897C195.925 134.102 199.671 130.907 203.965 130.302C211.856 129.868 212.678 140.469 207.254 144.532C203.485 147.681 198.369 148.252 193.584 148.457C177.46 149.039 165.641 142.478 162.843 125.772C161.164 116.152 161.724 104.867 167.776 96.7424C173.349 89.6219 183.832 88.2526 192.442 88.6292C199.42 88.9943 208.498 92.5431 209.4 100.268C209.869 104.422 206.192 108.644 201.898 107.492C198.506 106.716 195.423 104.023 191.917 103.144C179.995 100.246 176.649 106.967 177.186 117.796V117.955H177.197Z" fill="#FCF3E8"/>
<path d="M120.145 123.923C120.145 119.382 120.145 114.737 120.134 110.082C120.1 108.404 120.031 106.567 119.117 105.152C118.158 103.498 115.646 103.064 113.453 103.167C110.267 103.235 106.83 103.498 104.181 102.208C100.686 100.668 99.453 95.9207 101.292 92.6572C102.902 89.6561 106.602 88.7774 109.776 88.3438C120.83 86.7919 131.885 85.2514 142.95 83.7452C147.506 83.1746 154.153 82.0107 156.676 86.8718C159.497 93.3646 154.415 97.1873 148.386 98.1801C145.794 98.7278 143.178 99.093 140.621 99.6293C137.925 100.074 135.493 101.672 135.162 104.547C134.465 116.803 135.31 129.104 134.797 141.371C134.671 145.901 131.953 148.879 127.157 148.56C121.401 148.434 120.145 143.835 120.191 138.461C120.134 133.566 120.191 128.796 120.168 124.072V123.912H120.157L120.145 123.923Z" fill="#FCF3E8"/>
<path d="M235.334 228.676C230.196 228.596 228.346 224.203 228.437 219.707C228.106 210.727 228.825 201.758 228.014 192.857C227.421 189.422 223.641 189.411 220.843 189.594C217.874 189.685 214.459 189.902 211.879 188.464C209.629 187.277 208.304 184.755 208.476 182.108C208.601 178.434 211.616 176.026 215.019 175.33C228.894 173.196 242.86 171.108 256.837 169.681C259.772 169.579 263.13 170.275 264.625 172.922C266.213 175.569 265.722 179.472 263.426 181.617C260.663 184.276 256.141 184.653 252.418 185.371C249.3 185.931 246.171 186.216 244.504 188.441C243.271 190.073 243.191 192.412 243.18 194.443C243.202 202.397 243.202 210.316 243.259 218.247C243.522 224.123 242.437 228.836 235.483 228.665H235.323L235.334 228.676Z" fill="#FCF3E8"/>
<path d="M96.1184 133.463C96.1184 137.035 96.3468 141.234 93.1722 143.402C90.8426 144.897 87.1541 144.897 84.8245 143.356C82.3007 141.702 81.8896 138.221 81.6498 135.311C80.8733 122.531 80.1539 109.739 79.56 96.9478C79.286 88.1613 78.0755 79.0782 80.1653 70.4515C81.0788 65.9784 86.309 63.0115 89.8947 66.2864C92.2015 68.4888 92.5441 72.3343 93.0009 75.4266C94.5311 94.6656 95.2277 114.076 96.1184 133.315V133.474V133.463Z" fill="#FCF3E8"/>
<path d="M293.357 100.074C284.747 99.8803 285.592 91.8926 287.168 85.7421C288.755 78.6673 290.388 71.6039 292.01 64.5519C292.638 61.9958 293.323 59.1659 295.173 57.2489C296.749 55.5601 299.421 54.8412 301.91 55.2177C308.043 55.9937 308.522 62.8517 307.289 67.7128C305.645 75.1527 303.943 82.5813 302.207 90.0326C301.225 94.8138 299.364 100.245 293.528 100.074H293.368H293.357Z" fill="#FCF3E8"/>
</g>
<defs>
<clipPath id="clip0_45_381">
<rect width="362" height="241" fill="white"/>
</clipPath>
</defs>
</svg>
