<svg width="356" height="620" viewBox="0 0 356 620" fill="none" xmlns="http://www.w3.org/2000/svg">
<path d="M270.886 371.179C271.662 375.294 271.118 377.434 273.133 383.102C276.702 393.091 289.778 395.68 299.067 399.264C324.837 409.212 338.866 433.618 343.606 441.863C356.873 464.947 356.178 487.854 355.837 498.66C355.456 511.293 354.666 537.062 336.755 559.383C325.845 572.969 313.219 579.524 302.009 585.329C291.194 590.943 283.185 593.287 250.619 601.981C222.138 609.585 207.905 613.374 206.08 613.728C176.673 619.451 131.957 627.505 82.2552 605.402C82.2552 605.402 32.9488 583.476 3.46034 515.79C2.58862 513.8 1.2402 510.421 0.722615 505.896C0.518307 504.07 -0.189961 496.385 4.27758 486.205C8.35012 476.912 14.3023 471.134 15.6916 469.757C33.3847 452.451 65.0661 417.388 78.3325 400.722C93.9007 381.154 108.23 363.152 112.588 335.598C116.552 310.579 110.477 289.103 108.189 281.24C102.591 262.148 94.7997 251.315 88.616 240.604C68.5529 205.895 59.7404 162.943 62.1921 128.466C63.2818 113.136 66.2238 71.7636 97.9188 38.8541C145.918 -10.9803 217.902 2.15622 225.162 3.60069C236.59 5.87642 274.496 13.4259 300.538 45.2179C322.276 71.7636 328.569 106.445 332.846 129.924C334.235 137.583 334.916 143.32 335.461 147.994C338.172 171.187 339.03 199.327 333.486 244.583C326.853 298.669 323.175 326.155 304.951 348.312C291.317 364.897 279.358 368.957 276.62 369.816C267.535 372.691 253.615 374.081 213.557 355.889C196.477 348.135 173.908 336.484 148.86 319.232" fill="#EDEDED"/>
<path d="M147.13 340.45L249.216 403.448L274.019 387.736L270.886 371.179L206.829 353.341L149.118 322.026L147.13 340.45Z" fill="#DADADA"/>
<path d="M178.58 606.764C165.327 626.769 111.144 625.243 62.8731 593.233C14.6019 561.222 -9.49283 510.843 3.75996 490.838C17.0127 470.834 66.8912 480.564 115.176 512.574C163.447 544.584 191.846 586.76 178.58 606.764Z" fill="#DADADA"/>
</svg>
