<svg width="640" height="234" viewBox="0 0 640 234" fill="none" xmlns="http://www.w3.org/2000/svg">
<path d="M28.9208 113.828C31.9275 116.284 29.8925 116.451 35.2975 120.27C36.8003 121.335 66.1422 141.762 97.4162 150.129C122.571 156.857 137.084 152.609 223.345 141.739C246.282 138.851 250.259 138.525 256.672 140.498C261.029 141.849 264.029 143.502 267.049 141.369C275.568 135.359 275.295 105.535 268.969 102.503C267.399 101.765 265.75 102.801 265.363 103.049C252.89 110.788 216.27 99.5458 211.383 98.0551C171.545 85.8663 151.598 79.7897 138.359 77.592C138.359 77.592 102.626 71.7146 25.3881 92.5052C22.2686 93.3499 15.699 84.1947 15.7402 84.9537C15.7767 85.9774 24.3034 96.3644 24.2967 97.1323C24.2665 98.068 8.57526 94.6599 8.29151 96.4346C7.95518 98.4829 26.3407 104.467 26.0783 105.421C25.8669 106.189 10.1832 111.771 9.71134 112.99C9.39678 113.803 20.7235 111.063 22.5478 112.86L28.9208 113.828Z" fill="#FCF3E8"/>
<path d="M264.193 103.062C260.572 104.44 258.642 106.579 257.756 108.257C253.691 116.037 250.744 133.162 261.473 141.127C260.088 141.853 249.723 145.968 246.761 141.214C242.635 134.602 243.005 118.394 250.83 102.878L264.193 103.062Z" fill="#F6BD60"/>
<path d="M246.241 104.183C242.666 105.393 240.783 107.362 239.929 108.922C236.014 116.158 233.356 132.231 244.137 140.006C242.774 140.657 232.543 144.28 229.527 139.725C225.325 133.389 225.438 118.116 232.966 103.68L246.241 104.183Z" fill="#F6BD60"/>
<path d="M229.901 102.549C226.24 104.072 224.374 104.759 223.46 106.538C219.266 114.789 216.069 132.821 226.753 140.95C225.35 141.742 214.868 146.281 211.954 141.355C207.893 134.505 209.131 115.684 217.213 99.2358L229.901 102.549Z" fill="#F6BD60"/>
<ellipse cx="266.951" cy="123.485" rx="5.34152" ry="12.4118" transform="rotate(2.49038 266.951 123.485)" fill="#AF7351"/>
<path d="M270.509 130.961C281.046 136.918 323.566 131.15 323.566 131.15C349.248 127.67 362.1 125.925 369.076 122.852C374.114 120.629 381.622 116.586 394.739 114.793C401.461 113.878 406.92 113.923 409.498 113.953C440.663 114.226 471.767 114.294 502.959 114.683C550.803 115.259 551.468 113.079 564.749 116.586C584.73 121.877 594.187 129.73 609.693 128.944C624.7 128.191 637.653 119.739 634.629 114.427C632.116 110 618.582 107.806 554.03 104.619C460.14 99.9966 412.733 97.8503 389.698 106.226C383.019 108.66 366.471 115.426 340.868 119.475C325.365 121.925 317.613 123.151 306.638 122.827C288.052 122.285 270.171 118.072 266.92 122.481C265.176 124.851 266.473 127.336 266.473 127.336C266.473 127.336 267.477 129.254 270.507 130.975L270.509 130.961Z" fill="#B87B57"/>
</svg>
