<svg width="292" height="321" viewBox="0 0 292 321" fill="none" xmlns="http://www.w3.org/2000/svg">
<ellipse cx="168.677" cy="154.895" rx="33.153" ry="32.9895" fill="#F6ABAA"/>
<path fill-rule="evenodd" clip-rule="evenodd" d="M150.977 0.0587915L178.094 60.7687C175.847 61.1666 173.527 61.3775 171.153 61.3826C150.916 61.4267 134.478 46.5085 134.438 28.0617C134.412 16.3576 140.994 6.04512 150.977 0.0587915Z" fill="#F6ABAA"/>
<path fill-rule="evenodd" clip-rule="evenodd" d="M66.3537 137.379L93.5012 77.1341C103.071 83.3239 109.227 94.2174 108.775 106.393C108.091 124.827 92.5182 139.219 73.9927 138.538C71.3532 138.441 68.7962 138.043 66.3537 137.379Z" fill="#F6ABAA"/>
<path fill-rule="evenodd" clip-rule="evenodd" d="M20.6408 241.137L0 287.375C3.71338 295.082 10.3183 301.179 18.462 304.227L60.8479 257.948C56.1746 247.179 46.3645 239.483 33.6102 239.058C29.1659 238.911 24.7677 239.659 20.6408 241.137Z" fill="#F6ABAA"/>
<path fill-rule="evenodd" clip-rule="evenodd" d="M291.025 311.76L264.56 254.373C249.306 255.814 237.198 267.272 234.622 281.816L271.215 320.848C278.904 320.068 285.782 316.74 291.025 311.76Z" fill="#F6ABAA"/>
</svg>
