<svg width="292" height="322" viewBox="0 0 292 322" fill="none" xmlns="http://www.w3.org/2000/svg">
<ellipse cx="169.281" cy="155.821" rx="33.153" ry="32.9895" fill="#F6BE61"/>
<path fill-rule="evenodd" clip-rule="evenodd" d="M151.581 0.984634L178.698 61.6946C176.451 62.0925 174.131 62.3033 171.757 62.3085C151.52 62.3526 135.082 47.4343 135.042 28.9876C135.016 17.2834 141.598 6.97097 151.581 0.984634Z" fill="#F6BE61"/>
<path fill-rule="evenodd" clip-rule="evenodd" d="M66.9577 138.305L94.1052 78.0599C103.675 84.2498 109.831 95.1433 109.379 107.319C108.695 125.753 93.1223 140.145 74.5967 139.464C71.9572 139.367 69.4002 138.969 66.9577 138.305Z" fill="#F6BE61"/>
<path fill-rule="evenodd" clip-rule="evenodd" d="M21.2448 242.063L0.604004 288.301C4.31739 296.007 10.9223 302.104 19.066 305.152L61.4519 258.874C56.7786 248.105 46.9685 240.409 34.2142 239.984C29.7699 239.836 25.3717 240.585 21.2448 242.063Z" fill="#F6BE61"/>
<path fill-rule="evenodd" clip-rule="evenodd" d="M291.629 312.686L265.164 255.299C249.91 256.74 237.802 268.198 235.226 282.741L271.819 321.774C279.508 320.993 286.386 317.666 291.629 312.686Z" fill="#F6BE61"/>
</svg>
