<svg width="238" height="275" viewBox="0 0 238 275" fill="none" xmlns="http://www.w3.org/2000/svg">
<path d="M152.159 115.99L158.67 136.026H179.738L162.693 148.41L169.204 168.446L152.159 156.063L135.115 168.446L141.625 148.41L124.581 136.026H145.649L152.159 115.99Z" fill="#F6BE61"/>
<path d="M101.683 0L108.193 20.0367H129.261L112.217 32.4201L118.727 52.4569L101.683 40.0735L84.6385 52.4569L91.1488 32.4201L74.1045 20.0367H95.1724L101.683 0Z" fill="#F6BE61"/>
<path d="M72.6852 81.6223L79.1955 101.659H100.263L83.2191 114.042L89.7294 134.079L72.6852 121.696L55.6409 134.079L62.1512 114.042L45.107 101.659H66.1749L72.6852 81.6223Z" fill="#F6BE61"/>
<path fill-rule="evenodd" clip-rule="evenodd" d="M34.0885 190.799L27.5782 170.762L21.0679 190.799H0L17.0443 203.183L10.5339 223.219L27.5782 210.836L32.0021 214.05L39.1307 206.317L38.1121 203.183L49.9483 194.583L53.4366 190.799H34.0885Z" fill="#F6BE61"/>
<path fill-rule="evenodd" clip-rule="evenodd" d="M216.664 262.756L210.154 242.719L205.58 256.796L221.887 274.268L237.732 262.756H216.664Z" fill="#F6BE61"/>
</svg>
