<svg width="417" height="186" viewBox="0 0 417 186" fill="none" xmlns="http://www.w3.org/2000/svg">
<rect y="131" width="416.579" height="54.6125" fill="#674531"/>
<path d="M366.797 131.261V9.33516" stroke="#8A5E44" stroke-width="3"/>
<path d="M48.0117 131.261V9.33516" stroke="#8A5E44" stroke-width="3"/>
<path d="M42 0.666667V3.97275C42 6.38333 43.5128 8.53464 45.7813 9.35004V9.35004C46.9545 9.77174 48.2334 9.79819 49.423 9.42535L49.6026 9.36907C52.2192 8.549 54 6.12462 54 3.38253V0" stroke="#A2755B" stroke-width="3"/>
<path d="M360.5 1.5L361.699 6.37962C362.153 8.2266 363.498 9.72554 365.285 10.3759V10.3759C366.4 10.7818 367.615 10.8294 368.758 10.5121L368.94 10.4617C371.396 9.78013 373.198 7.68278 373.502 5.15161L374 1" stroke="#A2755B" stroke-width="3"/>
</svg>
