<svg width="133" height="29" viewBox="0 0 133 29" fill="none" xmlns="http://www.w3.org/2000/svg">
<path d="M4.856 28.264C4.504 28.264 4.232 28.168 4.04 27.976C3.72 27.624 3.56 27.288 3.56 26.968C3.56 26.808 3.608 26.632 3.704 26.44C3.768 26.28 3.88 26.056 4.04 25.768C4.232 25.48 4.392 25.224 4.52 25C4.616 24.84 4.728 24.728 4.856 24.664C4.984 24.6 5.08 24.52 5.144 24.424C5.176 24.392 5.304 24.2 5.528 23.848C5.752 23.464 5.992 23.032 6.248 22.552C6.536 22.04 6.792 21.576 7.016 21.16C7.24 20.744 7.384 20.488 7.448 20.392C7.64 20.328 7.752 20.216 7.784 20.056C7.848 19.896 7.896 19.752 7.928 19.624C7.992 19.432 8.152 19.208 8.408 18.952C8.664 18.696 8.84 18.392 8.936 18.04C8.84 17.88 8.84 17.816 8.936 17.848C9.064 17.88 9.112 17.848 9.08 17.752L9.176 17.56C9.4 17.4 9.56 17.192 9.656 16.936C9.784 16.68 9.864 16.44 9.896 16.216C10.056 16.024 10.232 15.832 10.424 15.64C10.616 15.448 10.76 15.24 10.856 15.016C10.888 14.952 10.888 14.904 10.856 14.872C10.856 14.808 10.872 14.76 10.904 14.728V14.68C11.448 13.752 11.992 12.76 12.536 11.704C13.112 10.648 13.592 9.576 13.976 8.488C14.36 7.368 14.552 6.312 14.552 5.32C14.552 4.424 14.328 3.672 13.88 3.064C13.784 3.064 13.688 3.064 13.592 3.064C13.496 3.032 13.416 3.016 13.352 3.016C13.224 2.984 12.984 2.952 12.632 2.92C12.312 2.888 11.992 2.84 11.672 2.776C11.384 2.712 11.224 2.68 11.192 2.68C11.064 2.648 10.92 2.632 10.76 2.632C10.6 2.6 10.424 2.584 10.232 2.584C10.008 2.584 9.768 2.6 9.512 2.632C9.288 2.664 9.08 2.712 8.888 2.776L7.592 2.92C7.496 2.888 7.32 2.872 7.064 2.872C6.392 2.872 5.624 2.984 4.76 3.208C3.896 3.4 3.32 3.608 3.032 3.832L2.696 4.072C2.6 4.136 2.472 4.184 2.312 4.216C2.152 4.248 2.008 4.296 1.88 4.36C1.56 4.488 1.272 4.456 1.016 4.264C0.792 4.072 0.68 3.848 0.68 3.592C0.68 3.336 0.808 3.112 1.064 2.92C1.768 2.376 2.52 1.944 3.32 1.624C4.12 1.272 4.952 0.983999 5.816 0.76C5.88 0.727999 5.96 0.695998 6.056 0.663999C6.184 0.631999 6.296 0.615999 6.392 0.615999C6.744 0.615999 6.968 0.615999 7.064 0.615999C7.16 0.584 7.352 0.535999 7.64 0.471998L7.688 0.423999C7.816 0.423999 7.912 0.439999 7.976 0.471998H8.12C8.28 0.407999 8.424 0.343999 8.552 0.279998C8.712 0.215999 8.872 0.263999 9.032 0.423999L9.704 0.375999C9.928 0.375999 10.104 0.423999 10.232 0.519998C12.088 0.807998 13.448 1.528 14.312 2.68C14.44 2.68 14.536 2.664 14.6 2.632C14.824 2.664 15.064 2.728 15.32 2.824C15.576 2.92 15.816 3.016 16.04 3.112C16.264 3.144 16.456 3.176 16.616 3.208C16.776 3.24 16.936 3.288 17.096 3.352L17.768 3.688C17.832 3.88 17.912 3.992 18.008 4.024C18.104 4.056 18.232 4.136 18.392 4.264C18.52 4.328 18.6 4.424 18.632 4.552C18.696 4.648 18.76 4.76 18.824 4.888C18.856 4.92 18.872 5 18.872 5.128C18.872 5.224 18.872 5.288 18.872 5.32C18.808 5.576 18.728 5.704 18.632 5.704C18.472 5.704 18.328 5.576 18.2 5.32C17.88 4.808 17.624 4.44 17.432 4.216C17.24 3.992 16.76 3.784 15.992 3.592C15.96 3.592 15.816 3.56 15.56 3.496C15.304 3.432 15.16 3.384 15.128 3.352C15.032 3.352 14.888 3.32 14.696 3.256C15.08 4.056 15.272 4.936 15.272 5.896C15.272 6.056 15.256 6.232 15.224 6.424C15.224 6.616 15.208 6.808 15.176 7C14.984 7.128 14.888 7.272 14.888 7.432C14.888 7.496 14.888 7.576 14.888 7.672C14.92 7.736 14.952 7.816 14.984 7.912C14.984 8.008 14.968 8.104 14.936 8.2C14.936 8.264 14.92 8.344 14.888 8.44C14.76 8.536 14.68 8.664 14.648 8.824C14.616 8.984 14.616 9.144 14.648 9.304L14.456 9.88C14.296 10.04 14.2 10.2 14.168 10.36C13.88 10.456 13.736 10.584 13.736 10.744C13.736 10.904 13.784 11.08 13.88 11.272C13.752 11.816 13.48 12.456 13.064 13.192C12.68 13.928 12.36 14.568 12.104 15.112C11.976 15.144 11.88 15.16 11.816 15.16C11.752 15.16 11.64 15.192 11.48 15.256C11.576 15.352 11.672 15.432 11.768 15.496C11.864 15.56 11.848 15.704 11.72 15.928H11.624C11.4 15.928 11.288 16.008 11.288 16.168C11.32 16.296 11.336 16.44 11.336 16.6C11.208 16.92 11.016 17.352 10.76 17.896C10.504 18.408 10.232 18.904 9.944 19.384C9.656 19.864 9.4 20.232 9.176 20.488C9.048 20.616 8.968 20.744 8.936 20.872C8.936 21 8.92 21.144 8.888 21.304C8.888 21.368 8.776 21.592 8.552 21.976C8.36 22.36 8.152 22.76 7.928 23.176C7.704 23.592 7.544 23.864 7.448 23.992C7.48 24.12 7.496 24.28 7.496 24.472C7.496 24.952 7.336 25.368 7.016 25.72C6.728 26.104 6.472 26.472 6.248 26.824C6.152 26.952 6.024 27.128 5.864 27.352C5.736 27.576 5.592 27.768 5.432 27.928L5.048 28.12C5.016 28.12 4.984 28.136 4.952 28.168C4.952 28.2 4.92 28.232 4.856 28.264ZM2.552 2.776H3.176C3.304 2.776 3.416 2.776 3.512 2.776C3.608 2.776 3.72 2.76 3.848 2.728C4.2 2.664 4.552 2.6 4.904 2.536C5.288 2.44 5.624 2.376 5.912 2.344C6.008 2.312 6.104 2.296 6.2 2.296C6.296 2.296 6.376 2.296 6.44 2.296C6.568 2.296 6.68 2.296 6.776 2.296C6.904 2.296 7.032 2.312 7.16 2.344C7.224 2.344 7.32 2.312 7.448 2.248C7.608 2.152 7.768 2.104 7.928 2.104C8.216 2.104 8.504 2.088 8.792 2.056C9.08 2.024 9.288 2.008 9.416 2.008H11.144C11.464 2.008 11.768 2.072 12.056 2.2C12.344 2.296 12.6 2.328 12.824 2.296C12.888 2.296 12.952 2.312 13.016 2.344C12.568 2.056 12.008 1.816 11.336 1.624C10.504 1.368 9.64 1.24 8.744 1.24C6.76 1.24 4.696 1.752 2.552 2.776ZM22.28 25.336C22.024 25.336 21.848 25.272 21.752 25.144C21.688 25.048 21.656 24.904 21.656 24.712C21.656 24.616 21.656 24.504 21.656 24.376C21.688 24.216 21.704 24.072 21.704 23.944C21.704 23.72 21.672 23.48 21.608 23.224C21.544 22.968 21.384 22.728 21.128 22.504C21 22.216 20.792 22.056 20.504 22.024C20.376 21.832 20.248 21.736 20.12 21.736H20.072C20.008 21.736 19.944 21.672 19.88 21.544C19.816 21.384 19.72 21.304 19.592 21.304C19.528 21.368 19.528 21.432 19.592 21.496C19.528 21.464 19.464 21.432 19.4 21.4C19.336 21.368 19.256 21.368 19.16 21.4C19.032 21.336 18.968 21.304 18.968 21.304H18.92C18.792 21.144 18.616 21.048 18.392 21.016C18.2 20.952 18.024 20.952 17.864 21.016L17.288 20.872C17.064 20.744 16.856 20.664 16.664 20.632C16.568 20.632 16.504 20.68 16.472 20.776C16.44 20.84 16.344 20.84 16.184 20.776C15.96 20.68 15.768 20.664 15.608 20.728C15.288 20.728 14.968 20.728 14.648 20.728C14.36 20.696 14.056 20.696 13.736 20.728L13.304 20.776L12.92 20.824C12.792 20.856 12.664 20.872 12.536 20.872C12.408 20.872 12.28 20.872 12.152 20.872C11.832 20.872 11.64 20.856 11.576 20.824C11.352 20.728 11.112 20.552 10.856 20.296C10.6 20.008 10.472 19.752 10.472 19.528C10.472 19.368 10.488 19.176 10.52 18.952C10.552 18.728 10.664 18.552 10.856 18.424C11.528 17.88 12.264 17.608 13.064 17.608C13.8 17.608 14.344 17.656 14.696 17.752C15.048 17.848 15.368 17.992 15.656 18.184C15.976 18.344 16.408 18.52 16.952 18.712C17.496 18.872 18.04 18.952 18.584 18.952C18.968 18.952 19.352 18.936 19.736 18.904C20.152 18.84 20.536 18.792 20.888 18.76C21.08 18.728 21.288 18.712 21.512 18.712C21.736 18.68 21.944 18.648 22.136 18.616H22.28C22.376 18.616 22.456 18.632 22.52 18.664C22.616 18.696 22.728 18.696 22.856 18.664C22.92 18.664 23.032 18.632 23.192 18.568C23.352 18.472 23.464 18.424 23.528 18.424C23.592 18.424 23.64 18.424 23.672 18.424C23.736 18.392 23.8 18.376 23.864 18.376L24.056 17.848C24.12 17.656 24.184 17.464 24.248 17.272C24.312 17.048 24.344 16.824 24.344 16.6V16.552C24.376 16.52 24.408 16.392 24.44 16.168C24.504 15.912 24.536 15.784 24.536 15.784L25.016 14.488L25.16 14.152L25.208 13.768C25.272 13.64 25.304 13.544 25.304 13.48C25.464 12.936 25.672 12.408 25.928 11.896C26.216 11.384 26.424 10.856 26.552 10.312L26.648 9.928L26.792 9.64V9.592C26.856 9.528 26.872 9.48 26.84 9.448C26.84 9.384 26.84 9.336 26.84 9.304C26.808 9.304 26.776 9.288 26.744 9.256C26.744 9.224 26.744 9.208 26.744 9.208C27 9.016 27.208 8.808 27.368 8.584C27.528 8.328 27.56 8.04 27.464 7.72V7.672L27.704 6.952L27.8 6.568C27.864 6.472 27.96 6.408 28.088 6.376C28.248 6.312 28.296 6.216 28.232 6.088C27.976 5.992 27.928 5.816 28.088 5.56C28.12 5.528 28.168 5.512 28.232 5.512C28.36 5.512 28.52 5.496 28.712 5.464C28.904 5.432 29.064 5.352 29.192 5.224V5.08C29.096 4.92 28.936 4.84 28.712 4.84C28.52 4.808 28.424 4.696 28.424 4.504L28.52 4.36L28.616 3.928C28.712 3.448 29.048 3.08 29.624 2.824C30.2 2.536 30.728 2.392 31.208 2.392C31.464 2.392 31.672 2.44 31.832 2.536C31.992 2.632 32.024 2.792 31.928 3.016L31.112 4.936C31.016 5.032 30.936 5.16 30.872 5.32C30.808 5.448 30.728 5.576 30.632 5.704C30.6 5.768 30.536 5.816 30.44 5.848C30.376 5.848 30.328 5.88 30.296 5.944C30.264 6.04 30.28 6.088 30.344 6.088C30.408 6.056 30.424 6.088 30.392 6.184C30.328 6.408 30.2 6.68 30.008 7C29.848 7.288 29.704 7.528 29.576 7.72C29.544 7.72 29.512 7.736 29.48 7.768C29.352 7.768 29.288 7.688 29.288 7.528C29.288 7.368 29.24 7.272 29.144 7.24C29.144 7.272 29.128 7.304 29.096 7.336C29.096 7.368 29.096 7.416 29.096 7.48C29.096 7.608 29.112 7.736 29.144 7.864C29.208 7.992 29.224 8.136 29.192 8.296C29.128 8.328 29.096 8.424 29.096 8.584C29.096 8.68 29.048 8.744 28.952 8.776C28.856 8.776 28.792 8.84 28.76 8.968L27.848 10.456L27.656 10.84C27.592 10.968 27.512 11.096 27.416 11.224C27.32 11.352 27.224 11.496 27.128 11.656C27.032 11.816 26.984 11.912 26.984 11.944C26.984 11.944 26.936 12.024 26.84 12.184C26.808 12.248 26.776 12.344 26.744 12.472C26.712 12.6 26.664 12.712 26.6 12.808C26.6 12.808 26.536 12.792 26.408 12.76C26.28 12.728 26.216 12.728 26.216 12.76C26.152 12.856 26.12 12.968 26.12 13.096C26.12 13.16 26.12 13.24 26.12 13.336C26.152 13.4 26.184 13.512 26.216 13.672C26.216 13.8 26.2 13.88 26.168 13.912C26.104 14.04 26.072 14.136 26.072 14.2C26.072 14.264 25.992 14.392 25.832 14.584C25.672 14.744 25.592 14.856 25.592 14.92C25.496 15.24 25.448 15.464 25.448 15.592C25.448 15.688 25.384 15.896 25.256 16.216L25.016 16.84C25.016 16.84 25.016 16.904 25.016 17.032C25.016 17.16 25 17.224 24.968 17.224C24.904 17.32 24.824 17.464 24.728 17.656C24.664 17.816 24.6 17.992 24.536 18.184C24.728 18.12 24.904 18.072 25.064 18.04C25.224 17.976 25.336 17.944 25.4 17.944C25.592 17.912 25.752 17.912 25.88 17.944C26.04 17.944 26.184 17.944 26.312 17.944C26.408 17.944 26.488 17.912 26.552 17.848C26.648 17.784 26.712 17.752 26.744 17.752C26.84 17.72 26.92 17.736 26.984 17.8C27.048 17.832 27.08 17.848 27.08 17.848C27.08 17.848 27.08 17.896 27.08 17.992C27.08 18.056 27.048 18.12 26.984 18.184C26.952 18.216 26.888 18.216 26.792 18.184C26.696 18.152 26.616 18.152 26.552 18.184C26.328 18.216 26.04 18.264 25.688 18.328C25.336 18.392 24.984 18.456 24.632 18.52C24.536 18.52 24.456 18.536 24.392 18.568C24.296 18.856 24.248 19.112 24.248 19.336L24.104 19.768C24.072 19.864 24.04 19.976 24.008 20.104C23.976 20.2 23.944 20.28 23.912 20.344L23.864 20.584L23.816 20.632C23.784 20.76 23.784 20.856 23.816 20.92C23.848 20.984 23.848 21.096 23.816 21.256V21.832C24.072 22.216 24.2 22.536 24.2 22.792C24.2 23.048 24.136 23.272 24.008 23.464C23.88 23.656 23.8 23.912 23.768 24.232C23.736 24.456 23.592 24.696 23.336 24.952C23.112 25.208 22.76 25.336 22.28 25.336ZM22.52 22.552C22.584 22.552 22.648 22.472 22.712 22.312C22.808 22.152 22.92 21.864 23.048 21.448L23.096 21.064C23.128 21 23.16 20.888 23.192 20.728C23.256 20.536 23.304 20.424 23.336 20.392V20.344C23.496 20.152 23.592 19.976 23.624 19.816C23.656 19.624 23.672 19.416 23.672 19.192V19L23.768 18.664C23.608 18.696 23.384 18.76 23.096 18.856C22.808 18.952 22.488 19.016 22.136 19.048C21.56 19.112 20.936 19.208 20.264 19.336C19.624 19.464 19.048 19.544 18.536 19.576C18.44 19.576 18.328 19.592 18.2 19.624C18.072 19.624 17.976 19.608 17.912 19.576C17.816 19.512 17.768 19.448 17.768 19.384C17.736 19.256 17.656 19.208 17.528 19.24C17.432 19.272 17.384 19.288 17.384 19.288C17.352 19.288 17.304 19.32 17.24 19.384C17.208 19.416 17.16 19.432 17.096 19.432C16.968 19.432 16.856 19.448 16.76 19.48C16.696 19.512 16.6 19.528 16.472 19.528C16.344 19.496 16.216 19.464 16.088 19.432C15.96 19.4 15.848 19.384 15.752 19.384C15.624 19.416 15.48 19.448 15.32 19.48C15.192 19.48 15.048 19.496 14.888 19.528C14.856 19.528 14.824 19.528 14.792 19.528C14.792 19.496 14.776 19.48 14.744 19.48C14.584 19.48 14.504 19.56 14.504 19.72C14.504 19.944 14.648 20.008 14.936 19.912L16.088 20.056H16.424L16.472 20.104C16.536 20.136 16.6 20.168 16.664 20.2C16.76 20.232 16.856 20.264 16.952 20.296C17.208 20.392 17.544 20.456 17.96 20.488C18.408 20.52 18.744 20.584 18.968 20.68L19.496 20.92C19.624 20.952 19.72 20.968 19.784 20.968C19.848 20.968 19.944 20.984 20.072 21.016L20.312 21.304C20.44 21.336 20.52 21.336 20.552 21.304C20.584 21.272 20.648 21.288 20.744 21.352L21.224 21.64C21.32 21.8 21.448 21.912 21.608 21.976C21.768 22.04 21.864 22.072 21.896 22.072C22.056 22.136 22.168 22.232 22.232 22.36C22.328 22.488 22.424 22.552 22.52 22.552ZM31.4761 24.52C31.2521 24.52 30.9001 24.328 30.4201 23.944C29.9721 23.56 29.7481 23.256 29.7481 23.032C29.7481 22.936 29.9561 22.808 30.3721 22.648C30.8201 22.456 31.2841 22.264 31.7641 22.072C32.2441 21.88 32.5481 21.736 32.6761 21.64V21.688C32.6761 21.816 32.6121 21.976 32.4841 22.168C32.3561 22.36 32.2601 22.488 32.1961 22.552L32.2441 22.888L32.1961 23.272C32.1001 23.4 32.0201 23.64 31.9561 23.992C31.8921 24.344 31.7321 24.52 31.4761 24.52ZM44.6128 28.696C44.1967 28.696 43.7647 28.6 43.3167 28.408C42.8367 28.248 42.4687 28.152 42.2127 28.12C42.0207 28.056 41.8447 27.912 41.6847 27.688C41.5247 27.496 41.4447 27.4 41.4447 27.4C41.5407 27.144 41.6367 27.032 41.7327 27.064C41.7967 27.096 41.9407 27.096 42.1647 27.064C42.1967 27.064 42.2447 27.048 42.3087 27.016C42.3407 27.016 42.3727 27.016 42.4047 27.016C42.5007 27.016 42.6127 27.016 42.7407 27.016C42.8367 27.048 42.9487 27.064 43.0767 27.064C43.3007 27.064 43.4767 27.016 43.6047 26.92C43.8607 26.728 44.1807 26.456 44.5648 26.104C44.9808 25.752 45.2688 25.464 45.4288 25.24C45.4928 25.176 45.5248 25.064 45.5248 24.904C45.5568 24.744 45.6368 24.68 45.7648 24.712C46.4048 23.944 46.9968 23.192 47.5408 22.456C48.1168 21.688 48.6928 20.92 49.2688 20.152C49.4288 19.704 49.6528 19.272 49.9408 18.856C50.2608 18.44 50.5648 18.056 50.8528 17.704C51.4928 16.968 52.0688 16.216 52.5808 15.448C52.5488 15.32 52.6608 15.112 52.9168 14.824C53.1728 14.504 53.3328 14.28 53.3968 14.152C53.3648 13.992 53.4128 13.672 53.5408 13.192C53.6688 12.68 53.8128 12.168 53.9728 11.656C54.1328 11.112 54.2288 10.712 54.2608 10.456C54.1968 10.488 54.1808 10.392 54.2128 10.168C54.2768 9.912 54.3408 9.624 54.4048 9.304C54.5008 8.984 54.5488 8.776 54.5488 8.68L54.7888 6.52C54.8208 6.36 54.8368 6.232 54.8368 6.136C54.8368 6.008 54.8368 5.912 54.8368 5.848C54.8368 5.656 54.8208 5.496 54.7888 5.368C54.7888 5.208 54.7728 4.984 54.7408 4.696C54.7408 4.44 54.7568 4.184 54.7888 3.928C54.8208 3.64 54.8368 3.368 54.8368 3.112C54.8368 2.856 54.8208 2.68 54.7888 2.584C54.7888 2.456 54.7888 2.36 54.7888 2.296C54.8208 2.232 54.8368 2.184 54.8368 2.152C54.8368 2.088 54.7728 1.912 54.6448 1.624C54.5808 1.624 54.5488 1.576 54.5488 1.48C54.5488 1.352 54.5808 1.224 54.6448 1.096C54.7088 0.967999 54.7728 0.935999 54.8368 1C54.9648 1.096 55.0928 1.368 55.2208 1.816C55.3488 2.264 55.4608 2.728 55.5568 3.208C55.6848 3.688 55.7488 4.056 55.7488 4.312C55.7488 4.408 55.7488 4.504 55.7488 4.6C55.7488 4.696 55.7648 4.792 55.7968 4.888C55.8288 5.08 55.8608 5.368 55.8928 5.752C55.9568 6.104 55.9888 6.376 55.9888 6.568V6.904C55.9888 7.032 55.9888 7.192 55.9888 7.384C55.9888 7.544 55.9728 7.72 55.9408 7.912C55.9088 8.328 55.8608 8.712 55.7968 9.064C55.7648 9.416 55.7488 9.736 55.7488 10.024C55.7488 10.28 55.7808 10.504 55.8448 10.696C55.9408 10.44 56.0688 10.216 56.2288 10.024C56.4208 9.8 56.6128 9.608 56.8047 9.448C56.8688 9.48 56.9008 9.496 56.9008 9.496C56.9008 9.496 56.9648 9.4 57.0928 9.208L57.7168 8.632C57.7488 8.6 57.7968 8.536 57.8608 8.44C57.9248 8.312 57.9888 8.264 58.0528 8.296L58.2928 7.912L59.1568 7.384C59.2528 7.256 59.3648 7.096 59.4928 6.904C59.6528 6.712 59.7968 6.552 59.9248 6.424C60.4048 5.976 60.9168 5.56 61.4608 5.176C62.0048 4.792 62.5648 4.408 63.1408 4.024C63.3328 3.896 63.5088 3.816 63.6688 3.784C63.8608 3.72 64.0368 3.624 64.1968 3.496C64.2288 3.464 64.2768 3.432 64.3408 3.4C64.4048 3.336 64.4528 3.336 64.4848 3.4L64.9648 3.112L65.0128 3.16C65.0768 3.16 65.3328 3.032 65.7808 2.776L66.1168 2.584L66.1648 2.632L66.8848 2.296V2.344C67.1728 2.344 67.3648 2.312 67.4608 2.248L67.5088 2.152C67.7008 1.992 67.9248 1.896 68.1808 1.864C68.4688 1.832 68.7248 1.768 68.9488 1.672L69.0448 1.768L69.9088 1.576C70.1648 1.608 70.3728 1.608 70.5328 1.576C70.7248 1.512 70.9168 1.48 71.1088 1.48C71.1728 1.48 71.2368 1.48 71.3008 1.48C71.3968 1.48 71.5088 1.512 71.6368 1.576C71.7008 1.512 71.7968 1.48 71.9248 1.48C72.1488 1.48 72.4048 1.528 72.6927 1.624C73.0128 1.688 73.2208 1.736 73.3168 1.768L73.8928 1.912C74.5968 2.296 75.1888 2.792 75.6688 3.4C75.8288 3.656 75.9888 3.96 76.1488 4.312C76.3408 4.664 76.4528 4.968 76.4848 5.224L76.4368 5.608C76.4368 5.704 76.4368 5.8 76.4368 5.896C76.4688 5.992 76.4848 6.088 76.4848 6.184C76.4848 6.856 76.3568 7.544 76.1008 8.248C75.8448 8.92 75.5248 9.544 75.1408 10.12C74.6608 10.824 74.1328 11.464 73.5568 12.04C73.0128 12.584 72.5008 13.128 72.0208 13.672C71.9248 13.64 71.7008 13.816 71.3488 14.2C70.9968 14.584 70.7408 14.824 70.5808 14.92C70.5808 14.856 70.5648 14.856 70.5328 14.92C70.5328 14.984 70.5328 15.032 70.5328 15.064L69.7168 15.544C69.7168 15.608 69.5248 15.752 69.1407 15.976C68.7888 16.168 68.5808 16.28 68.5168 16.312C68.3888 16.376 68.2768 16.456 68.1808 16.552C68.0848 16.648 67.9568 16.728 67.7968 16.792H67.7008L66.7408 17.272C66.7408 17.208 66.7248 17.176 66.6928 17.176C66.6608 17.176 66.5968 17.224 66.5008 17.32C66.4048 17.416 66.3248 17.448 66.2608 17.416L65.5888 17.512C65.5568 17.512 65.4768 17.56 65.3488 17.656C65.2528 17.752 65.1888 17.768 65.1568 17.704L63.5248 18.472C63.2048 18.536 62.8688 18.568 62.5168 18.568C62.1968 18.536 61.8608 18.52 61.5088 18.52C61.5088 18.552 61.4768 18.568 61.4128 18.568C61.3488 18.536 61.3168 18.504 61.3168 18.472C61.1248 18.568 60.7088 18.616 60.0688 18.616C59.2688 18.616 58.6768 18.552 58.2928 18.424C58.2928 18.456 58.2608 18.472 58.1968 18.472C58.1648 18.472 58.1008 18.456 58.0048 18.424C57.9408 18.36 57.8768 18.328 57.8128 18.328C57.6208 18.296 57.3488 18.152 56.9968 17.896C56.6768 17.64 56.3888 17.448 56.1328 17.32C56.1008 17.256 56.0208 17.208 55.8928 17.176C55.7968 17.144 55.7328 17.112 55.7008 17.08C55.6368 16.952 55.6048 16.888 55.6048 16.888C55.6048 16.728 55.7648 16.648 56.0848 16.648C56.4048 16.616 56.5968 16.616 56.6608 16.648C57.0768 16.808 57.3648 16.888 57.5248 16.888C57.6528 16.888 57.8128 16.888 58.0048 16.888C58.1968 16.856 58.5488 16.84 59.0608 16.84C59.7968 16.84 60.5488 16.808 61.3168 16.744C62.1168 16.68 62.8528 16.488 63.5248 16.168H63.5728C63.6368 16.168 63.7008 16.152 63.7648 16.12C63.8608 16.056 63.9248 16.056 63.9568 16.12L64.4368 15.688C64.4688 15.72 64.5168 15.72 64.5808 15.688C64.6448 15.656 64.6928 15.64 64.7248 15.64L65.3008 15.544C65.3008 15.48 65.3488 15.4 65.4448 15.304C65.5728 15.208 65.6528 15.192 65.6848 15.256L66.1168 15.112H66.2128L66.6448 14.776H66.6928C66.8208 14.776 66.9488 14.728 67.0768 14.632C67.2048 14.504 67.3008 14.424 67.3648 14.392C67.3648 14.36 67.4128 14.344 67.5088 14.344C67.6368 14.28 67.8128 14.136 68.0368 13.912C68.2608 13.656 68.4048 13.592 68.4688 13.72L68.8048 13.48H68.8528C68.9488 13.448 69.0128 13.4 69.0448 13.336C69.0768 13.24 69.1568 13.208 69.2848 13.24C69.3488 13.144 69.4768 13.016 69.6688 12.856C69.8928 12.664 70.0048 12.504 70.0048 12.376C70.3248 12.12 70.6608 11.912 71.0128 11.752C71.3648 11.56 71.6048 11.256 71.7328 10.84C71.7648 10.84 71.8928 10.744 72.1168 10.552C72.3408 10.328 72.5648 10.072 72.7888 9.784C73.0448 9.496 73.2368 9.272 73.3648 9.112C73.3968 9.08 73.4608 9.08 73.5568 9.112C73.6848 9.112 73.8128 9.096 73.9408 9.064C74.0688 9.064 74.1968 9.016 74.3248 8.92C74.4528 8.824 74.4368 8.728 74.2768 8.632C74.1168 8.536 74.0048 8.488 73.9408 8.488C73.8768 8.456 73.8608 8.36 73.8928 8.2C73.9248 7.976 73.9888 7.768 74.0848 7.576C74.1808 7.352 74.2768 7.144 74.3728 6.952L74.6608 6.328C74.7248 6.04 74.7408 5.864 74.7088 5.8C74.7088 5.736 74.7088 5.56 74.7088 5.272C74.7088 4.184 74.4048 3.448 73.7968 3.064C73.2208 2.648 72.4528 2.28 71.4928 1.96C71.4608 1.992 71.4128 2.008 71.3488 2.008C71.2848 1.976 71.2208 1.96 71.1568 1.96C71.0288 1.928 70.7408 1.944 70.2928 2.008C69.8768 2.04 69.6368 2.04 69.5728 2.008C69.3488 2.136 69.1248 2.2 68.9008 2.2C68.7088 2.168 68.4848 2.216 68.2288 2.344C68.1968 2.312 67.9728 2.392 67.5568 2.584C67.1408 2.744 66.8848 2.888 66.7888 3.016C66.6288 3.048 66.4208 3.128 66.1648 3.256C65.9408 3.384 65.7968 3.432 65.7328 3.4L65.4928 3.688C65.2368 3.72 64.9328 3.848 64.5808 4.072C64.2288 4.264 64.0368 4.328 64.0048 4.264L63.5728 4.6C63.6048 4.632 63.6208 4.664 63.6208 4.696C63.6208 4.824 63.5248 4.904 63.3328 4.936C63.1408 4.968 63.0288 4.984 62.9968 4.984L62.9488 5.128L62.5168 5.416L62.3728 5.56C62.3408 5.592 62.2928 5.608 62.2288 5.608C62.1648 5.576 62.1168 5.592 62.0848 5.656C61.9568 5.784 61.7968 5.96 61.6048 6.184C61.4128 6.408 61.2528 6.552 61.1248 6.616C60.8048 6.744 60.4848 6.984 60.1648 7.336C59.8448 7.656 59.5568 7.944 59.3008 8.2C59.2688 8.232 59.1408 8.328 58.9168 8.488C58.6928 8.648 58.5488 8.712 58.4848 8.68C58.3888 8.808 58.2448 9.016 58.0528 9.304C57.8608 9.592 57.6848 9.768 57.5248 9.832L57.2848 10.36C57.0608 10.456 56.8848 10.584 56.7568 10.744C56.6288 10.904 56.4688 11.016 56.2768 11.08C56.2128 11.4 56.0528 11.688 55.7968 11.944C55.5728 12.2 55.3808 12.472 55.2208 12.76C55.2848 13.08 55.3168 13.448 55.3168 13.864C55.3168 14.248 55.2848 14.632 55.2208 15.016C55.1888 15.4 55.0928 15.72 54.9328 15.976V16.024C54.9328 16.152 54.8688 16.296 54.7408 16.456C54.6128 16.616 54.5648 16.84 54.5968 17.128C54.4688 17.224 54.3408 17.464 54.2128 17.848C54.1168 18.232 54.0208 18.52 53.9248 18.712C53.8928 18.776 53.7968 18.888 53.6368 19.048C53.5088 19.176 53.4768 19.272 53.5408 19.336C53.2528 19.688 53.0608 20.104 52.9648 20.584C52.8688 21.032 52.6768 21.432 52.3888 21.784L52.2928 21.688C52.2608 21.816 52.2288 21.928 52.1968 22.024C52.1648 22.12 52.1008 22.232 52.0048 22.36C51.9728 22.424 51.8608 22.616 51.6688 22.936C51.4768 23.224 51.2848 23.512 51.0928 23.8C50.9008 24.088 50.7888 24.232 50.7568 24.232L50.5168 24.712C50.4208 24.712 50.3088 24.76 50.1808 24.856C50.0848 24.952 50.0048 25.032 49.9408 25.096C49.9728 25.224 49.8928 25.384 49.7008 25.576C49.5088 25.8 49.3808 25.848 49.3168 25.72C49.0288 26.008 48.7888 26.312 48.5968 26.632C48.4048 26.952 48.1008 27.24 47.6848 27.496C47.5888 27.528 47.3328 27.64 46.9168 27.832C46.5008 28.024 46.2928 28.152 46.2928 28.216L45.8608 28.456C45.8288 28.424 45.7328 28.472 45.5728 28.6C45.4448 28.76 45.3168 28.76 45.1888 28.6C45.0928 28.632 44.9968 28.648 44.9008 28.648C44.8048 28.68 44.7088 28.696 44.6128 28.696ZM45.4288 26.872C45.5248 26.872 45.6368 26.808 45.7648 26.68H45.8128C45.9088 26.68 46.0208 26.6 46.1488 26.44C46.2768 26.28 46.3568 26.168 46.3888 26.104C46.5488 26.04 46.6768 25.96 46.7728 25.864C46.9008 25.768 46.9968 25.672 47.0608 25.576L48.3088 24.376C48.7888 23.896 49.1728 23.432 49.4608 22.984C49.7488 22.536 50.0368 22.04 50.3248 21.496C50.3888 21.4 50.5168 21.16 50.7088 20.776C50.9328 20.392 51.0928 20.2 51.1888 20.2C51.5408 19.56 51.7968 18.952 51.9568 18.376C52.1488 17.768 52.3888 17.128 52.6768 16.456L52.5328 16.264C52.4688 16.36 52.3568 16.488 52.1968 16.648C52.0368 16.808 51.9728 16.968 52.0048 17.128C51.9408 17.16 51.7488 17.4 51.4288 17.848C51.1408 18.264 50.7888 18.776 50.3728 19.384C49.9888 19.96 49.5888 20.552 49.1728 21.16C48.7888 21.768 48.4528 22.296 48.1648 22.744C47.9088 23.192 47.7648 23.448 47.7328 23.512C47.6048 23.608 47.4928 23.736 47.3968 23.896C47.3008 24.056 47.2208 24.216 47.1568 24.376L47.1088 24.328C46.9168 24.552 46.6288 24.92 46.2448 25.432C45.8928 25.944 45.6048 26.28 45.3808 26.44C45.3488 26.536 45.3328 26.632 45.3328 26.728C45.3328 26.824 45.3648 26.872 45.4288 26.872ZM75.149 25.432C74.445 25.432 73.821 25.24 73.277 24.856C72.765 24.44 72.509 23.736 72.509 22.744C72.509 22.392 72.573 21.896 72.701 21.256C72.829 20.616 73.037 19.944 73.325 19.24C73.485 18.856 73.661 18.488 73.853 18.136C74.077 17.784 74.285 17.448 74.477 17.128C74.509 17.096 74.605 17.128 74.765 17.224C74.957 17.32 75.069 17.352 75.101 17.32C75.133 17.256 75.085 17.192 74.957 17.128C74.861 17.032 74.829 16.968 74.861 16.936C74.925 16.872 74.973 16.84 75.005 16.84C75.069 16.808 75.117 16.76 75.149 16.696C75.181 16.632 75.197 16.568 75.197 16.504C75.197 16.408 75.149 16.328 75.053 16.264C74.989 16.2 75.021 16.104 75.149 15.976C75.309 15.752 75.485 15.544 75.677 15.352C75.901 15.128 76.093 14.936 76.253 14.776C76.317 14.712 76.397 14.616 76.493 14.488C76.589 14.328 76.653 14.232 76.685 14.2L76.781 14.104C76.813 14.072 76.845 14.04 76.877 14.008C76.877 13.976 76.877 13.96 76.877 13.96C76.909 13.96 76.925 13.944 76.925 13.912C76.925 13.816 76.829 13.72 76.637 13.624C76.445 13.528 76.349 13.464 76.349 13.432C76.349 13.4 76.333 13.368 76.301 13.336C76.269 13.304 76.237 13.256 76.205 13.192C76.237 13.192 76.269 13.16 76.301 13.096C76.365 13 76.413 12.952 76.445 12.952C76.477 12.952 76.541 12.984 76.637 13.048C76.733 13.08 76.797 13.096 76.829 13.096C76.861 13.096 76.877 13.08 76.877 13.048C76.909 13.016 76.941 13 76.973 13C77.037 13 77.181 13.048 77.405 13.144C77.629 13.208 77.757 13.24 77.789 13.24C77.821 13.24 77.917 13.16 78.077 13C78.237 12.84 78.333 12.744 78.365 12.712C78.429 12.648 78.477 12.584 78.509 12.52C78.541 12.424 78.621 12.312 78.749 12.184H78.797C78.829 12.152 78.845 12.12 78.845 12.088C78.845 12.056 78.845 12.04 78.845 12.04C78.909 11.976 78.957 11.928 78.989 11.896C79.053 11.832 79.101 11.784 79.133 11.752C79.165 11.72 79.181 11.704 79.181 11.704C79.213 11.704 79.229 11.704 79.229 11.704C79.261 11.64 79.293 11.592 79.325 11.56C79.389 11.528 79.437 11.496 79.469 11.464L79.565 11.272C79.629 11.208 79.853 11.064 80.237 10.84C80.621 10.616 80.909 10.504 81.101 10.504H81.341C81.341 10.504 81.341 10.52 81.341 10.552C81.341 10.552 81.357 10.552 81.389 10.552C81.421 10.552 81.453 10.552 81.485 10.552C81.517 10.52 81.549 10.504 81.581 10.504C81.581 10.504 81.629 10.552 81.725 10.648C81.757 10.68 81.789 10.696 81.821 10.696C81.853 10.664 81.885 10.648 81.917 10.648C81.949 10.68 81.965 10.712 81.965 10.744C81.965 10.776 81.981 10.792 82.013 10.792C82.077 10.792 82.093 10.792 82.061 10.792C82.061 10.76 82.077 10.744 82.109 10.744C82.141 10.744 82.157 10.776 82.157 10.84C82.157 10.904 82.173 10.968 82.205 11.032C82.173 11.128 82.141 11.24 82.109 11.368C82.109 11.464 82.093 11.544 82.061 11.608C81.773 11.992 81.549 12.184 81.389 12.184C81.389 12.216 81.341 12.28 81.245 12.376C81.149 12.376 81.037 12.408 80.909 12.472C80.781 12.536 80.653 12.6 80.525 12.664V12.808C80.525 12.936 80.477 13 80.381 13C80.317 12.968 80.253 13.016 80.189 13.144V13.192C80.253 13.288 80.365 13.336 80.525 13.336L80.861 13.384C80.925 13.384 80.957 13.368 80.957 13.336C80.989 13.304 81.021 13.288 81.053 13.288C81.085 13.288 81.101 13.304 81.101 13.336C81.101 13.336 81.117 13.336 81.149 13.336C81.213 13.336 81.261 13.32 81.293 13.288C81.325 13.256 81.357 13.24 81.389 13.24L81.821 13.288C81.725 13.128 81.677 13 81.677 12.904C81.677 12.744 81.821 12.648 82.109 12.616C82.557 12.616 82.941 12.776 83.261 13.096C83.325 13.064 83.405 13.064 83.501 13.096C83.597 13.128 83.693 13.128 83.789 13.096L84.029 12.952L84.077 13C84.205 12.936 84.285 12.904 84.317 12.904C84.381 12.904 84.397 12.92 84.365 12.952C84.365 12.952 84.381 12.952 84.413 12.952C84.413 12.952 84.445 12.92 84.509 12.856C84.541 12.856 84.573 12.872 84.605 12.904C84.669 12.904 84.717 12.888 84.749 12.856L84.893 12.712H85.469L85.517 12.664C85.581 12.632 85.661 12.6 85.757 12.568C85.885 12.504 85.997 12.472 86.093 12.472C86.093 12.44 86.125 12.424 86.189 12.424C86.253 12.392 86.301 12.376 86.333 12.376H86.429C86.589 12.376 86.669 12.424 86.669 12.52C86.669 12.616 86.621 12.696 86.525 12.76C86.493 12.792 86.445 12.808 86.381 12.808C86.317 12.776 86.253 12.776 86.189 12.808C86.061 12.936 85.965 13 85.901 13C85.869 13 85.853 13 85.853 13C85.853 12.968 85.837 12.952 85.805 12.952C85.773 12.952 85.709 13 85.613 13.096L85.277 13.144H85.229C85.165 13.144 85.133 13.176 85.133 13.24C85.005 13.24 84.877 13.256 84.749 13.288C84.621 13.288 84.493 13.304 84.365 13.336L84.317 13.384C84.285 13.384 84.253 13.4 84.221 13.432C84.189 13.432 84.141 13.432 84.077 13.432C84.013 13.464 83.837 13.48 83.549 13.48C83.741 13.736 83.869 13.976 83.933 14.2C83.997 14.36 84.045 14.616 84.077 14.968C84.141 15.288 84.157 15.528 84.125 15.688C84.125 15.784 84.093 15.816 84.029 15.784C83.965 15.72 83.933 15.72 83.933 15.784C83.933 15.88 83.965 15.944 84.029 15.976C84.125 15.976 84.173 16.056 84.173 16.216C84.173 16.312 84.157 16.44 84.125 16.6C84.093 16.728 84.061 16.872 84.029 17.032C83.997 17.224 83.949 17.432 83.885 17.656C83.853 17.848 83.773 18.04 83.645 18.232L83.501 18.472V18.76C83.501 19.016 83.421 19.192 83.261 19.288C83.133 19.384 83.037 19.496 82.973 19.624C82.909 19.816 82.861 19.944 82.829 20.008C82.829 20.072 82.765 20.2 82.637 20.392C82.221 21.032 81.725 21.64 81.149 22.216C80.573 22.792 80.013 23.32 79.469 23.8C78.989 24.216 78.333 24.6 77.501 24.952C76.701 25.272 75.917 25.432 75.149 25.432ZM75.629 24.568C75.725 24.568 75.917 24.552 76.205 24.52C76.493 24.456 76.797 24.312 77.117 24.088C77.181 24.056 77.245 24.072 77.309 24.136C77.373 24.2 77.437 24.216 77.501 24.184C77.661 24.12 77.725 24.072 77.693 24.04C77.661 24.008 77.709 23.976 77.837 23.944H77.885C78.077 23.944 78.157 23.928 78.125 23.896C78.125 23.832 78.141 23.752 78.173 23.656C78.173 23.56 78.221 23.48 78.317 23.416C78.413 23.352 78.493 23.304 78.557 23.272C78.909 22.984 79.341 22.504 79.853 21.832C80.365 21.128 80.877 20.424 81.389 19.72C81.421 19.656 81.469 19.64 81.533 19.672C81.597 19.704 81.645 19.704 81.677 19.672C81.709 19.64 81.725 19.544 81.725 19.384C81.725 19.288 81.773 19.144 81.869 18.952C81.965 18.728 82.061 18.552 82.157 18.424C82.189 18.328 82.253 18.152 82.349 17.896C82.445 17.608 82.525 17.352 82.589 17.128C82.685 16.872 82.701 16.744 82.637 16.744C82.573 16.712 82.541 16.68 82.541 16.648C82.541 16.584 82.637 16.52 82.829 16.456C83.021 16.392 83.005 16.344 82.781 16.312C82.717 16.28 82.733 16.216 82.829 16.12C82.925 16.024 82.877 15.96 82.685 15.928C82.525 15.896 82.461 15.848 82.493 15.784C82.557 15.72 82.605 15.672 82.637 15.64C82.733 15.544 82.781 15.448 82.781 15.352C82.781 15.064 82.701 14.776 82.541 14.488C82.413 14.2 82.269 13.944 82.109 13.72C81.917 13.848 81.821 13.912 81.821 13.912C81.789 13.912 81.773 13.912 81.773 13.912C81.773 13.88 81.741 13.864 81.677 13.864C81.645 13.864 81.629 13.864 81.629 13.864C81.629 13.832 81.613 13.816 81.581 13.816C81.549 13.816 81.517 13.832 81.485 13.864C81.453 13.896 81.437 13.912 81.437 13.912C81.405 13.944 81.341 13.96 81.245 13.96C81.181 13.96 81.133 13.96 81.101 13.96C81.069 13.96 81.037 13.944 81.005 13.912C81.005 13.88 80.989 13.864 80.957 13.864C80.925 13.864 80.877 13.896 80.813 13.96C80.781 14.024 80.733 14.056 80.669 14.056C80.637 14.056 80.621 14.04 80.621 14.008C80.621 13.976 80.589 13.96 80.525 13.96C80.493 13.96 80.461 13.976 80.429 14.008C80.429 14.04 80.413 14.056 80.381 14.056C80.349 14.056 80.285 14.008 80.189 13.912H80.141C80.141 14.104 80.093 14.2 79.997 14.2C79.965 14.2 79.917 14.168 79.853 14.104C79.501 14.328 78.909 14.856 78.077 15.688C77.245 16.488 76.509 17.416 75.869 18.472C75.741 18.728 75.581 19.032 75.389 19.384C75.229 19.736 75.085 20.136 74.957 20.584C74.925 20.776 74.829 20.92 74.669 21.016C74.541 21.112 74.445 21.224 74.381 21.352C74.349 21.48 74.365 21.56 74.429 21.592C74.493 21.624 74.541 21.672 74.573 21.736C74.573 21.864 74.541 22.04 74.477 22.264C74.445 22.488 74.429 22.696 74.429 22.888C74.429 23.496 74.541 23.928 74.765 24.184C75.021 24.44 75.309 24.568 75.629 24.568ZM87.4535 25.144C87.2615 25.144 87.1655 25.032 87.1655 24.808C87.1655 24.648 87.2135 24.456 87.3095 24.232C87.5655 23.688 87.8535 22.92 88.1735 21.928C88.5255 20.936 88.9575 20.088 89.4695 19.384L91.8695 14.44C91.6775 14.44 91.4855 14.488 91.2935 14.584C91.1335 14.68 91.0535 14.76 91.0535 14.824C91.0535 14.952 90.8775 15.08 90.5255 15.208C90.1735 15.336 89.9815 15.416 89.9495 15.448C89.4695 15.576 89.0215 15.72 88.6055 15.88C88.2855 16.232 87.9655 16.584 87.6455 16.936C87.3575 17.288 87.0855 17.64 86.8295 17.992C86.7975 18.024 86.7655 18.04 86.7335 18.04C86.4455 18.36 86.2055 18.6 86.0135 18.76C85.8215 18.92 85.6135 19.064 85.3895 19.192C85.2615 19.288 85.1335 19.32 85.0055 19.288C84.8455 19.224 84.8295 19.16 84.9575 19.096C85.1175 19.032 85.3735 18.808 85.7255 18.424C86.0775 18.04 86.3495 17.752 86.5415 17.56C86.7015 17.464 86.7495 17.464 86.6855 17.56C86.6535 17.656 86.7015 17.64 86.8295 17.512L88.0295 15.976L88.0775 15.928C87.9175 15.832 87.8375 15.576 87.8375 15.16C87.8375 14.84 87.9015 14.584 88.0295 14.392C88.0295 14.36 88.0615 14.344 88.1255 14.344L89.1335 14.056C89.2295 14.056 89.2935 14.04 89.3255 14.008C89.3895 13.944 89.4535 13.864 89.5175 13.768C89.6135 13.64 89.7255 13.48 89.8535 13.288L90.4295 12.52L90.8135 11.992C90.8135 11.896 90.8775 11.784 91.0055 11.656C91.1655 11.496 91.2935 11.384 91.3895 11.32C91.5175 11.128 91.5975 10.984 91.6295 10.888C91.6935 10.76 91.7895 10.6 91.9175 10.408C91.9175 10.376 91.9655 10.36 92.0615 10.36C92.1575 10.328 92.2055 10.296 92.2055 10.264C92.2375 9.944 92.2855 9.8 92.3495 9.832C92.4455 9.832 92.4935 9.784 92.4935 9.688C92.4935 9.592 92.5575 9.512 92.6855 9.448L92.9255 9.16C92.9255 9.128 92.9735 9.064 93.0695 8.968V8.92C93.0695 8.856 93.0695 8.776 93.0695 8.68C93.0695 8.584 93.1015 8.488 93.1655 8.392C93.2295 8.328 93.2775 8.296 93.3095 8.296C93.3415 8.296 93.3575 8.296 93.3575 8.296C93.3575 8.264 93.3415 8.248 93.3095 8.248C93.3095 8.216 93.3095 8.2 93.3095 8.2C93.3095 8.072 93.3735 7.992 93.5015 7.96C93.6295 7.928 93.6935 7.88 93.6935 7.816C93.7575 7.368 94.1415 7.032 94.8455 6.808C95.5495 6.584 96.1735 6.472 96.7175 6.472C97.2615 6.472 97.5335 6.552 97.5335 6.712C97.5335 6.776 97.4375 6.888 97.2455 7.048C97.1495 7.08 96.9895 7.224 96.7655 7.48C96.5415 7.704 96.3335 7.976 96.1415 8.296L95.7575 8.872C95.7255 8.936 95.6775 9.016 95.6135 9.112C95.5815 9.176 95.5335 9.24 95.4695 9.304C95.2455 9.688 94.9415 10.232 94.5575 10.936C94.2055 11.608 93.8215 12.36 93.4055 13.192L94.6535 13.048C94.7495 13.048 94.7815 13.064 94.7495 13.096C94.7495 13.128 94.7975 13.128 94.8935 13.096C95.0535 13.096 95.1655 13.08 95.2295 13.048C95.2935 12.984 95.4055 12.936 95.5655 12.904C95.8215 12.872 96.1095 12.856 96.4295 12.856C96.7815 12.824 97.0535 12.808 97.2455 12.808C97.3735 12.808 97.5335 12.808 97.7255 12.808C97.9175 12.808 98.0615 12.824 98.1575 12.856C98.2215 12.856 98.2375 12.888 98.2055 12.952C98.2055 12.984 98.2215 13 98.2535 13C98.3175 13 98.3655 12.984 98.3975 12.952C98.4615 12.92 98.5255 12.904 98.5895 12.904C98.6215 12.872 98.6695 12.872 98.7335 12.904C98.8295 12.904 98.8935 12.904 98.9255 12.904L99.4055 13.048C99.5975 13.08 99.6935 13.192 99.6935 13.384C99.7255 13.576 99.6455 13.64 99.4535 13.576C99.3255 13.512 99.2135 13.48 99.1175 13.48H97.9175C97.6935 13.48 97.4855 13.48 97.2935 13.48C97.1015 13.48 96.9095 13.496 96.7175 13.528C96.6535 13.56 96.6215 13.528 96.6215 13.432C96.6535 13.336 96.6375 13.288 96.5735 13.288C96.5415 13.288 96.4935 13.336 96.4295 13.432C96.3655 13.496 96.3175 13.528 96.2855 13.528L96.0455 13.672C95.5335 13.8 94.9895 13.944 94.4135 14.104C93.8375 14.232 93.2775 14.376 92.7335 14.536C92.2535 15.528 91.7895 16.472 91.3415 17.368C90.9255 18.232 90.6055 18.904 90.3815 19.384C90.3175 19.576 90.2855 19.688 90.2855 19.72C90.2855 19.976 90.4295 20.104 90.7175 20.104C90.9095 20.104 91.1015 20.056 91.2935 19.96L91.7735 19.768C92.5415 19.064 93.3415 18.472 94.1735 17.992C94.2055 17.992 94.2215 17.992 94.2215 17.992C94.2535 17.96 94.2855 17.944 94.3175 17.944C94.4135 17.944 94.4775 18.008 94.5095 18.136C94.5415 18.232 94.5095 18.312 94.4135 18.376C93.4855 18.888 92.6215 19.544 91.8215 20.344C91.7895 20.408 91.7575 20.472 91.7255 20.536C91.6935 20.6 91.6455 20.664 91.5815 20.728C91.5175 20.792 91.4215 20.904 91.2935 21.064C91.1975 21.224 91.1495 21.32 91.1495 21.352C91.1175 21.448 91.0695 21.48 91.0055 21.448C90.9735 21.416 90.8775 21.464 90.7175 21.592C90.6855 21.624 90.6535 21.688 90.6215 21.784C90.6215 21.88 90.6055 21.96 90.5735 22.024C90.5095 22.12 90.4455 22.2 90.3815 22.264C90.3175 22.296 90.2855 22.328 90.2855 22.36C90.2535 22.488 90.1895 22.568 90.0935 22.6C90.0295 22.6 89.9655 22.632 89.9015 22.696C89.8695 22.696 89.8535 22.712 89.8535 22.744C89.8535 23.032 89.8215 23.16 89.7575 23.128C89.6935 23.096 89.6455 23.128 89.6135 23.224C89.4855 23.352 89.3895 23.416 89.3255 23.416C89.1335 23.48 89.0535 23.528 89.0855 23.56C89.1495 23.592 89.1975 23.624 89.2295 23.656C89.2935 23.656 89.2455 23.704 89.0855 23.8C89.0215 23.832 88.9575 23.928 88.8935 24.088C88.8295 24.216 88.7655 24.312 88.7015 24.376C88.6055 24.44 88.5095 24.488 88.4135 24.52C88.3175 24.552 88.2375 24.616 88.1735 24.712C87.8855 25 87.6455 25.144 87.4535 25.144ZM90.1895 13.864C90.3175 13.832 90.4295 13.8 90.5255 13.768C90.6535 13.736 90.7815 13.688 90.9095 13.624L92.3495 13.384C92.7335 12.616 93.0695 11.928 93.3575 11.32C93.6455 10.68 93.8535 10.216 93.9815 9.928C93.9815 9.928 93.9495 9.912 93.8855 9.88C93.8535 9.816 93.8375 9.752 93.8375 9.688C93.7735 9.656 93.6935 9.608 93.5975 9.544C93.5335 9.48 93.4695 9.432 93.4055 9.4L92.9735 9.832L92.4455 10.552C92.4455 10.584 92.3975 10.616 92.3015 10.648C92.2375 10.648 92.2055 10.664 92.2055 10.696C92.2055 10.792 92.1575 10.888 92.0615 10.984C91.9975 11.08 91.9335 11.112 91.8695 11.08L91.6775 11.56C91.6775 11.656 91.6295 11.736 91.5335 11.8L91.1975 12.232C91.1975 12.264 91.1815 12.296 91.1495 12.328C91.1495 12.328 91.1495 12.36 91.1495 12.424C91.1175 12.488 91.0695 12.568 91.0055 12.664C90.9415 12.76 90.8615 12.856 90.7655 12.952C90.7335 12.952 90.7175 12.968 90.7175 13C90.7175 13 90.7015 13 90.6695 13L90.5255 13.288C90.3975 13.352 90.3175 13.384 90.2855 13.384L90.2375 13.48C90.2375 13.672 90.2215 13.8 90.1895 13.864ZM98.3285 25.144C98.1365 25.144 98.0405 25.032 98.0405 24.808C98.0405 24.648 98.0885 24.456 98.1845 24.232C98.4405 23.688 98.7285 22.92 99.0485 21.928C99.4005 20.936 99.8325 20.088 100.345 19.384L102.745 14.44C102.553 14.44 102.361 14.488 102.169 14.584C102.009 14.68 101.929 14.76 101.929 14.824C101.929 14.952 101.753 15.08 101.401 15.208C101.049 15.336 100.857 15.416 100.825 15.448C100.345 15.576 99.8965 15.72 99.4805 15.88C99.1605 16.232 98.8405 16.584 98.5205 16.936C98.2325 17.288 97.9605 17.64 97.7045 17.992C97.6725 18.024 97.6405 18.04 97.6085 18.04C97.3205 18.36 97.0805 18.6 96.8885 18.76C96.6965 18.92 96.4885 19.064 96.2645 19.192C96.1365 19.288 96.0085 19.32 95.8805 19.288C95.7205 19.224 95.7045 19.16 95.8325 19.096C95.9925 19.032 96.2485 18.808 96.6005 18.424C96.9525 18.04 97.2245 17.752 97.4165 17.56C97.5765 17.464 97.6245 17.464 97.5605 17.56C97.5285 17.656 97.5765 17.64 97.7045 17.512L98.9045 15.976L98.9525 15.928C98.7925 15.832 98.7125 15.576 98.7125 15.16C98.7125 14.84 98.7765 14.584 98.9045 14.392C98.9045 14.36 98.9365 14.344 99.0005 14.344L100.009 14.056C100.105 14.056 100.169 14.04 100.201 14.008C100.265 13.944 100.329 13.864 100.393 13.768C100.489 13.64 100.601 13.48 100.729 13.288L101.305 12.52L101.689 11.992C101.689 11.896 101.753 11.784 101.881 11.656C102.041 11.496 102.169 11.384 102.265 11.32C102.393 11.128 102.473 10.984 102.505 10.888C102.569 10.76 102.665 10.6 102.793 10.408C102.793 10.376 102.841 10.36 102.937 10.36C103.033 10.328 103.081 10.296 103.081 10.264C103.113 9.944 103.161 9.8 103.225 9.832C103.321 9.832 103.368 9.784 103.368 9.688C103.368 9.592 103.433 9.512 103.561 9.448L103.801 9.16C103.801 9.128 103.849 9.064 103.945 8.968V8.92C103.945 8.856 103.945 8.776 103.945 8.68C103.945 8.584 103.977 8.488 104.041 8.392C104.105 8.328 104.153 8.296 104.185 8.296C104.217 8.296 104.233 8.296 104.233 8.296C104.233 8.264 104.217 8.248 104.185 8.248C104.185 8.216 104.185 8.2 104.185 8.2C104.185 8.072 104.249 7.992 104.377 7.96C104.505 7.928 104.569 7.88 104.569 7.816C104.633 7.368 105.017 7.032 105.721 6.808C106.425 6.584 107.049 6.472 107.593 6.472C108.137 6.472 108.409 6.552 108.409 6.712C108.409 6.776 108.313 6.888 108.121 7.048C108.025 7.08 107.865 7.224 107.641 7.48C107.417 7.704 107.209 7.976 107.017 8.296L106.633 8.872C106.601 8.936 106.553 9.016 106.489 9.112C106.457 9.176 106.409 9.24 106.345 9.304C106.121 9.688 105.817 10.232 105.433 10.936C105.081 11.608 104.697 12.36 104.281 13.192L105.529 13.048C105.625 13.048 105.657 13.064 105.625 13.096C105.625 13.128 105.673 13.128 105.769 13.096C105.929 13.096 106.041 13.08 106.105 13.048C106.169 12.984 106.281 12.936 106.441 12.904C106.697 12.872 106.985 12.856 107.305 12.856C107.657 12.824 107.929 12.808 108.121 12.808C108.249 12.808 108.409 12.808 108.601 12.808C108.793 12.808 108.937 12.824 109.033 12.856C109.097 12.856 109.113 12.888 109.081 12.952C109.081 12.984 109.097 13 109.129 13C109.193 13 109.241 12.984 109.273 12.952C109.337 12.92 109.401 12.904 109.465 12.904C109.497 12.872 109.545 12.872 109.609 12.904C109.705 12.904 109.769 12.904 109.801 12.904L110.281 13.048C110.473 13.08 110.569 13.192 110.569 13.384C110.601 13.576 110.521 13.64 110.329 13.576C110.201 13.512 110.089 13.48 109.993 13.48H108.793C108.569 13.48 108.361 13.48 108.169 13.48C107.977 13.48 107.785 13.496 107.593 13.528C107.529 13.56 107.497 13.528 107.497 13.432C107.529 13.336 107.513 13.288 107.449 13.288C107.417 13.288 107.369 13.336 107.305 13.432C107.241 13.496 107.193 13.528 107.161 13.528L106.921 13.672C106.409 13.8 105.865 13.944 105.289 14.104C104.713 14.232 104.153 14.376 103.609 14.536C103.129 15.528 102.665 16.472 102.217 17.368C101.801 18.232 101.481 18.904 101.257 19.384C101.193 19.576 101.161 19.688 101.161 19.72C101.161 19.976 101.305 20.104 101.593 20.104C101.785 20.104 101.977 20.056 102.169 19.96L102.648 19.768C103.417 19.064 104.217 18.472 105.049 17.992C105.081 17.992 105.097 17.992 105.097 17.992C105.129 17.96 105.161 17.944 105.193 17.944C105.289 17.944 105.353 18.008 105.385 18.136C105.417 18.232 105.385 18.312 105.289 18.376C104.361 18.888 103.497 19.544 102.697 20.344C102.664 20.408 102.633 20.472 102.601 20.536C102.569 20.6 102.521 20.664 102.457 20.728C102.393 20.792 102.297 20.904 102.169 21.064C102.073 21.224 102.025 21.32 102.025 21.352C101.993 21.448 101.945 21.48 101.881 21.448C101.849 21.416 101.753 21.464 101.593 21.592C101.561 21.624 101.529 21.688 101.497 21.784C101.497 21.88 101.481 21.96 101.449 22.024C101.385 22.12 101.321 22.2 101.257 22.264C101.193 22.296 101.161 22.328 101.161 22.36C101.129 22.488 101.065 22.568 100.969 22.6C100.905 22.6 100.841 22.632 100.777 22.696C100.745 22.696 100.729 22.712 100.729 22.744C100.729 23.032 100.697 23.16 100.633 23.128C100.569 23.096 100.521 23.128 100.489 23.224C100.361 23.352 100.265 23.416 100.201 23.416C100.009 23.48 99.9285 23.528 99.9605 23.56C100.025 23.592 100.073 23.624 100.105 23.656C100.169 23.656 100.121 23.704 99.9605 23.8C99.8965 23.832 99.8325 23.928 99.7685 24.088C99.7045 24.216 99.6405 24.312 99.5765 24.376C99.4805 24.44 99.3845 24.488 99.2885 24.52C99.1925 24.552 99.1125 24.616 99.0485 24.712C98.7605 25 98.5205 25.144 98.3285 25.144ZM101.065 13.864C101.193 13.832 101.305 13.8 101.401 13.768C101.529 13.736 101.657 13.688 101.785 13.624L103.225 13.384C103.609 12.616 103.945 11.928 104.233 11.32C104.521 10.68 104.729 10.216 104.857 9.928C104.857 9.928 104.825 9.912 104.761 9.88C104.729 9.816 104.713 9.752 104.713 9.688C104.649 9.656 104.569 9.608 104.473 9.544C104.409 9.48 104.345 9.432 104.281 9.4L103.849 9.832L103.321 10.552C103.321 10.584 103.273 10.616 103.177 10.648C103.113 10.648 103.081 10.664 103.081 10.696C103.081 10.792 103.033 10.888 102.937 10.984C102.873 11.08 102.809 11.112 102.745 11.08L102.553 11.56C102.553 11.656 102.505 11.736 102.409 11.8L102.073 12.232C102.073 12.264 102.057 12.296 102.025 12.328C102.025 12.328 102.025 12.36 102.025 12.424C101.993 12.488 101.945 12.568 101.881 12.664C101.817 12.76 101.737 12.856 101.641 12.952C101.609 12.952 101.593 12.968 101.593 13C101.593 13 101.577 13 101.545 13L101.401 13.288C101.273 13.352 101.193 13.384 101.161 13.384L101.113 13.48C101.113 13.672 101.097 13.8 101.065 13.864ZM110.164 25.096C109.364 25.096 108.66 24.872 108.052 24.424C107.444 23.976 107.139 23.208 107.139 22.12C107.139 21.704 107.188 21.288 107.284 20.872C107.38 20.424 107.492 19.992 107.62 19.576C107.684 19.16 107.78 18.792 107.908 18.472C107.94 18.344 107.956 18.28 107.956 18.28C107.988 18.248 108.068 18.2 108.196 18.136L108.58 17.56V17.368C108.548 17.368 108.532 17.368 108.532 17.368C108.532 17.336 108.532 17.32 108.532 17.32C108.532 17.224 108.612 17.112 108.771 16.984C108.932 16.856 109.012 16.792 109.012 16.792C109.044 16.632 109.092 16.552 109.156 16.552C109.22 16.552 109.3 16.504 109.396 16.408H109.924V16.312C109.924 16.152 109.844 16.088 109.684 16.12C109.556 16.12 109.492 16.104 109.492 16.072C109.492 16.04 109.54 15.976 109.636 15.88C109.764 15.752 109.844 15.672 109.876 15.64C109.972 15.512 110.052 15.4 110.116 15.304C110.18 15.176 110.276 15.08 110.404 15.016C110.98 14.312 111.332 13.864 111.46 13.672C111.62 13.48 111.78 13.336 111.94 13.24C112.004 13.24 112.052 13.272 112.084 13.336C112.148 13.368 112.148 13.416 112.084 13.48C112.148 13.576 112.196 13.592 112.228 13.528C112.292 13.464 112.324 13.432 112.324 13.432L112.516 13.336C112.452 13.272 112.42 13.192 112.42 13.096C112.42 12.936 112.452 12.808 112.516 12.712C112.58 12.584 112.692 12.456 112.852 12.328C113.044 12.2 113.14 12.12 113.14 12.088C113.332 12.024 113.476 11.96 113.572 11.896C113.7 11.832 113.828 11.8 113.956 11.8C114.18 11.8 114.404 11.88 114.628 12.04C115.236 12.36 115.748 12.68 116.164 13C116.58 13.32 116.788 13.768 116.788 14.344C116.788 14.952 116.532 15.48 116.02 15.928C115.54 16.344 114.948 16.696 114.243 16.984C113.539 17.272 112.836 17.512 112.132 17.704C111.46 17.864 110.932 17.992 110.548 18.088C110.324 18.12 110.212 18.216 110.212 18.376C110.244 18.504 110.228 18.648 110.164 18.808L109.828 19.336L109.54 20.008L109.3 20.44C109.076 20.632 108.996 20.776 109.06 20.872C109.124 20.968 109.236 20.952 109.396 20.824C109.428 20.856 109.444 20.904 109.444 20.968C109.444 21.096 109.412 21.256 109.348 21.448C109.284 21.608 109.236 21.736 109.204 21.832C109.172 21.96 109.172 22.024 109.204 22.024C109.268 21.992 109.3 22.056 109.3 22.216L109.348 22.888C109.54 23.496 109.972 23.848 110.644 23.944C110.708 23.944 110.772 23.96 110.836 23.992C110.932 23.992 111.012 23.992 111.076 23.992C111.652 23.992 111.956 23.944 111.988 23.848C112.052 23.752 112.132 23.688 112.228 23.656C112.516 23.592 112.756 23.528 112.948 23.464C113.172 23.4 113.396 23.304 113.62 23.176C114.004 23.016 114.372 22.808 114.724 22.552C115.076 22.296 115.444 22.04 115.828 21.784L116.308 21.448C116.34 21.384 116.34 21.336 116.308 21.304C116.276 21.272 116.276 21.24 116.308 21.208C116.372 21.176 116.42 21.176 116.452 21.208C116.516 21.208 116.564 21.192 116.596 21.16C116.66 21.128 116.724 21.08 116.788 21.016C116.852 20.92 116.916 20.84 116.98 20.776C117.044 20.712 117.076 20.648 117.076 20.584C117.108 20.52 117.156 20.456 117.22 20.392C117.476 20.136 117.732 19.864 117.988 19.576C118.276 19.288 118.516 19.032 118.708 18.808C118.932 18.488 119.108 18.328 119.236 18.328C119.3 18.328 119.332 18.36 119.332 18.424C119.332 18.584 119.22 18.824 118.996 19.144C118.452 19.944 117.828 20.728 117.124 21.496C116.42 22.232 115.652 22.904 114.82 23.512C114.212 23.928 113.492 24.296 112.66 24.616C111.828 24.936 110.996 25.096 110.164 25.096ZM110.884 17.368C111.364 17.336 111.988 17.208 112.756 16.984C113.524 16.728 114.164 16.392 114.676 15.976C115.22 15.528 115.492 15.032 115.492 14.488C115.492 13.976 115.22 13.48 114.676 13C114.228 13.32 113.732 13.784 113.188 14.392C112.676 14.968 112.212 15.544 111.796 16.12C111.38 16.664 111.076 17.08 110.884 17.368ZM119.892 24.904C119.572 24.904 119.236 24.84 118.884 24.712C118.532 24.552 118.404 24.376 118.5 24.184C118.628 23.928 118.772 23.672 118.932 23.416C119.124 23.128 119.3 22.824 119.46 22.504L119.988 21.496C120.052 21.336 120.116 21.224 120.18 21.16C120.276 21.064 120.356 20.952 120.42 20.824C120.452 20.792 120.468 20.712 120.468 20.584C120.468 20.424 120.532 20.248 120.66 20.056C120.82 19.832 120.932 19.624 120.996 19.432C121.028 19.4 121.06 19.496 121.092 19.72C121.124 19.944 121.204 19.928 121.332 19.672C121.364 19.64 121.348 19.592 121.284 19.528C121.252 19.464 121.236 19.4 121.236 19.336C121.236 19.272 121.252 19.24 121.284 19.24C121.348 19.208 121.38 19.176 121.38 19.144C121.412 19.048 121.38 19.016 121.284 19.048C121.22 19.048 121.188 19.032 121.188 19C121.252 18.904 121.316 18.84 121.38 18.808C121.476 18.776 121.54 18.728 121.572 18.664C121.572 18.6 121.54 18.568 121.476 18.568C121.444 18.536 121.444 18.504 121.476 18.472C121.636 18.024 121.812 17.496 122.004 16.888C122.196 16.28 122.34 15.72 122.436 15.208C122.436 15.208 122.404 15.192 122.34 15.16C122.276 15.096 122.244 15.032 122.244 14.968L121.908 14.728C121.524 15.08 121.108 15.384 120.66 15.64C120.628 15.672 120.564 15.688 120.468 15.688C120.34 15.688 120.26 15.624 120.228 15.496C120.196 15.368 120.244 15.256 120.372 15.16C120.532 15.064 120.66 15 120.756 14.968C120.852 14.904 120.964 14.808 121.092 14.68C121.156 14.616 121.188 14.552 121.188 14.488C121.22 14.424 121.252 14.36 121.284 14.296L121.476 14.056C121.476 13.896 121.508 13.768 121.572 13.672C121.636 13.608 121.684 13.576 121.716 13.576C121.748 13.576 121.764 13.576 121.764 13.576V13.48C121.764 13.352 121.812 13.272 121.908 13.24C122.036 13.208 122.1 13.16 122.1 13.096C122.164 12.648 122.548 12.312 123.252 12.088C123.956 11.864 124.58 11.752 125.124 11.752C125.668 11.752 125.94 11.832 125.94 11.992C125.94 12.088 125.844 12.2 125.652 12.328C125.556 12.392 125.396 12.536 125.172 12.76C124.948 12.984 124.74 13.256 124.548 13.576L124.212 14.152L123.876 14.584C123.652 15.096 123.332 15.88 122.916 16.936C122.5 17.992 122.068 19.32 121.62 20.92C121.716 20.792 121.94 20.52 122.292 20.104C122.644 19.688 123.06 19.208 123.54 18.664C124.02 18.12 124.484 17.608 124.932 17.128C125.38 16.616 125.748 16.216 126.036 15.928L126.276 15.784C126.34 15.72 126.404 15.64 126.468 15.544C126.564 15.416 126.644 15.32 126.708 15.256C126.74 15.224 126.756 15.288 126.756 15.448C126.788 15.576 126.82 15.624 126.852 15.592C126.98 15.496 127.044 15.352 127.044 15.16C127.076 14.968 127.156 14.84 127.284 14.776C127.636 14.488 128.116 14.088 128.724 13.576C129.364 13.032 130.02 12.712 130.692 12.616C130.756 12.552 130.852 12.536 130.98 12.568C131.14 12.568 131.252 12.552 131.316 12.52C131.38 12.52 131.428 12.504 131.46 12.472C131.492 12.44 131.572 12.424 131.7 12.424C131.764 12.424 131.892 12.472 132.084 12.568C132.308 12.664 132.436 12.792 132.468 12.952C132.66 13.08 132.756 13.272 132.756 13.528C132.756 13.976 132.516 14.312 132.036 14.536C131.876 14.696 131.7 14.856 131.508 15.016C131.316 15.144 131.124 15.288 130.932 15.448C130.868 15.512 130.82 15.544 130.788 15.544C130.564 15.736 130.372 15.944 130.212 16.168C130.052 16.392 129.972 16.68 129.972 17.032C129.972 17.064 130.004 17.112 130.068 17.176C130.132 17.208 130.148 17.24 130.116 17.272C130.212 17.368 130.356 17.432 130.548 17.464C130.74 17.464 130.932 17.464 131.124 17.464C131.444 17.464 131.924 17.336 132.564 17.08H132.66C132.692 17.08 132.708 17.096 132.708 17.128C132.708 17.192 132.644 17.304 132.516 17.464C132.388 17.592 132.244 17.688 132.084 17.752C131.732 17.88 131.364 17.96 130.98 17.992C130.596 17.992 130.324 17.992 130.164 17.992C129.588 17.992 129.22 17.88 129.06 17.656C128.932 17.432 128.804 17.16 128.676 16.84V16.6L128.916 16.36C128.884 16.264 128.836 16.168 128.772 16.072C128.708 15.976 128.676 15.864 128.676 15.736C128.676 15.416 128.804 15.048 129.06 14.632C128.708 14.728 128.26 15 127.716 15.448C127.204 15.864 126.676 16.36 126.132 16.936C125.588 17.48 125.092 18.024 124.644 18.568C124.196 19.08 123.844 19.496 123.588 19.816C123.492 19.944 123.38 20.024 123.252 20.056C123.156 20.056 123.076 20.104 123.012 20.2C122.98 20.232 123.012 20.248 123.108 20.248C123.236 20.248 123.284 20.264 123.252 20.296C122.836 20.936 122.388 21.64 121.908 22.408C121.46 23.176 121.012 23.928 120.564 24.664C120.468 24.824 120.244 24.904 119.892 24.904Z" fill="#F6BD60"/>
</svg>
