<svg width="161" height="65" viewBox="0 0 161 65" fill="none" xmlns="http://www.w3.org/2000/svg">
<path d="M51.8381 26.9255C51.8381 33.3285 38.4492 38.5192 25.3381 38.5192C12.2271 38.5192 1.59856 33.3285 1.59856 26.9255C-1.71392 10.9149 12.2271 15.3317 25.3381 15.3317C38.4492 15.3317 55.7027 8.70651 51.8381 26.9255Z" fill="#F2B84A"/>
<ellipse cx="26.5" cy="18.5738" rx="26.5" ry="13.25" fill="#FDFC90"/>
<path d="M49.6876 19.1259C49.6876 24.9191 39.5534 29.6155 27.0522 29.6155C14.551 29.6155 4.41675 24.9191 4.41675 19.1259C4.41675 13.3326 14.551 7.53214 27.0522 7.53214C39.5534 7.53214 49.6876 13.3326 49.6876 19.1259Z" fill="#F6BE61"/>
<path d="M12.1458 29.6154L19.8749 31.4329V38.4488L12.1458 36.7925V29.6154Z" fill="#F6C461"/>
<path d="M47.2825 19.1259C47.2825 21.87 35.3676 25.1988 32.9283 25.1988C30.4891 25.1988 37.345 19.6617 37.345 16.9175C37.345 14.1734 36.0099 11.9488 38.4491 11.9488C40.8884 11.9488 47.2825 16.3817 47.2825 19.1259Z" fill="#FCD080"/>
<path d="M79.8381 44.6017C79.8381 51.0047 66.4492 56.1954 53.3381 56.1954C40.2271 56.1954 29.5986 51.0047 29.5986 44.6017C26.2861 28.5911 40.2271 33.0079 53.3381 33.0079C66.4492 33.0079 83.7027 26.3827 79.8381 44.6017Z" fill="#F2B84A"/>
<ellipse cx="54.5" cy="36.25" rx="26.5" ry="13.25" fill="#FDFC90"/>
<path d="M77.6876 36.8021C77.6876 42.5953 67.5534 47.2917 55.0522 47.2917C42.551 47.2917 32.4167 42.5953 32.4167 36.8021C32.4167 31.0089 42.551 25.2083 55.0522 25.2083C67.5534 25.2083 77.6876 31.0089 77.6876 36.8021Z" fill="#F6BE61"/>
<path d="M40.1458 47.2917L47.8749 49.1091V56.125L40.1458 54.4687V47.2917Z" fill="#F6C461"/>
<path d="M75.2825 36.8021C75.2825 39.5462 63.3676 42.875 60.9283 42.875C58.4891 42.875 65.345 37.3379 65.345 34.5938C65.345 31.8496 64.0099 29.625 66.4491 29.625C68.8884 29.625 75.2825 34.0579 75.2825 36.8021Z" fill="#FCD080"/>
<path d="M132.838 46.6017C132.838 53.0047 119.449 58.1954 106.338 58.1954C93.2271 58.1954 82.5986 53.0047 82.5986 46.6017C79.2861 30.5911 93.2271 35.0079 106.338 35.0079C119.449 35.0079 136.703 28.3827 132.838 46.6017Z" fill="#F2B84A"/>
<ellipse cx="107.5" cy="38.25" rx="26.5" ry="13.25" fill="#FDFC90"/>
<path d="M130.688 38.8021C130.688 44.5953 120.553 49.2917 108.052 49.2917C95.551 49.2917 85.4167 44.5953 85.4167 38.8021C85.4167 33.0089 95.551 27.2083 108.052 27.2083C120.553 27.2083 130.688 33.0089 130.688 38.8021Z" fill="#F6BE61"/>
<path d="M93.1458 49.2917L100.875 51.1091V58.125L93.1458 56.4687V49.2917Z" fill="#F6C461"/>
<path d="M128.283 38.8021C128.283 41.5462 116.368 44.875 113.928 44.875C111.489 44.875 118.345 39.3379 118.345 36.5938C118.345 33.8496 117.01 31.625 119.449 31.625C121.888 31.625 128.283 36.0579 128.283 38.8021Z" fill="#FCD080"/>
<path d="M39.5 2.5L29 18.5L56 45.5L77.5 14.5L68 1L39.5 2.5Z" fill="#F97A78"/>
<path d="M39 2.5L44 12.5H66L67.5 1L39 2.5Z" fill="#F89B99" stroke="#F89B99"/>
<path d="M77.5 14.5L67 13L68.5 1.5L77.5 14.5Z" fill="#BA7270" stroke="#BA7270"/>
<path d="M29 19L43.5 12.5L38.5 2L29 19Z" fill="#E59594"/>
<path d="M55.5 45L43.5 12.5L29.5 19L55.5 45Z" fill="#BA7270"/>
<path d="M56.5 46L66 13L78 15L56.5 46Z" fill="#E09593"/>
<path d="M59.2051 35.4676L63.6155 25.673L76.045 22L86.4697 28.9379L89.6773 39.1406L82.8611 50.9758L71.6345 53.4245L62.0117 47.7109L59.2051 35.4676Z" fill="#A2A54E"/>
<path d="M75.8695 22L86.3443 28.6658L89.6772 39.1406L79.6785 32.4748L75.8695 22Z" fill="#D2D576"/>
<path d="M59.2051 35.3316L63.9664 25.3329L74.4412 22.4761L67.7754 31.9987L59.2051 35.3316Z" fill="#C3C760"/>
<path d="M71.5844 53.4245L62.0618 47.7109L59.2049 35.8077L69.4412 44.8986L71.5844 53.4245Z" fill="#E9EC95"/>
<path d="M89.6772 39.6167L83.4876 51.5199L71.1083 53.696L78.7263 43.9019L89.6772 39.6167Z" fill="#E7ED55"/>
<path d="M67.7754 31.9987L80.1547 32.4748L78.7263 44.378L69.2038 44.8541L67.7754 31.9987Z" fill="#D4D77A"/>
<path d="M71.5427 53.8605L69.5411 44.8981L78.7263 43.9019L71.5427 53.8605Z" fill="#B7BA65"/>
<path d="M75.8696 22L79.6786 32.4748L67.7754 31.9987L71.1083 27.2374L73.0128 24.3806L74.4412 22.4761L75.8696 22Z" fill="#B4B761"/>
<path d="M139.188 14.101C139.812 13.8178 140.529 14.2321 140.596 14.9141L142.016 29.4087C142.027 29.5179 142.056 29.6245 142.101 29.7244L148.118 42.9872C148.401 43.6113 147.987 44.3288 147.305 44.3956L132.81 45.8159C132.701 45.8266 132.595 45.8551 132.495 45.9004L119.232 51.9178C118.608 52.2009 117.89 51.7866 117.824 51.1046L116.403 36.61C116.393 36.5009 116.364 36.3942 116.319 36.2944L110.301 23.0315C110.018 22.4075 110.433 21.69 111.115 21.6231L125.609 20.2028C125.718 20.1922 125.825 20.1636 125.925 20.1183L139.188 14.101Z" fill="#F4CCCC"/>
<rect x="125.733" y="20.0321" width="19" height="19" transform="rotate(30 125.733 20.0321)" fill="#F69B9E"/>
<path d="M117.96 52.4949L116.233 36.4866L132.687 45.9866L117.96 52.4949Z" fill="#D77E81"/>
<path d="M149.128 44.5094L132.687 45.9866L142.187 29.5321L149.128 44.5094Z" fill="#EEA1A4"/>
<path d="M109.291 21.5094L125.909 20.134L116.497 36.6286L109.291 21.5094Z" fill="#D5888A"/>
</svg>
