<svg width="46" height="46" viewBox="0 0 46 46" fill="none" xmlns="http://www.w3.org/2000/svg">
<path d="M21.1243 2.06901C21.7686 0.327774 24.2314 0.327774 24.8757 2.06901L29.7032 15.1152C29.9058 15.6626 30.3374 16.0942 30.8848 16.2968L43.931 21.1243C45.6722 21.7686 45.6722 24.2314 43.931 24.8757L30.8848 29.7032C30.3374 29.9058 29.9058 30.3374 29.7032 30.8848L24.8757 43.931C24.2314 45.6722 21.7686 45.6722 21.1243 43.931L16.2968 30.8848C16.0942 30.3374 15.6626 29.9058 15.1152 29.7032L2.06901 24.8757C0.327774 24.2314 0.327774 21.7686 2.06901 21.1243L15.1152 16.2968C15.6626 16.0942 16.0942 15.6626 16.2968 15.1152L21.1243 2.06901Z" fill="#F6BD60"/>
</svg>
