<svg width="307" height="199" viewBox="0 0 307 199" fill="none" xmlns="http://www.w3.org/2000/svg">
<path d="M134.946 117.364L152.058 107.334L163.151 73.4038L166.299 60.3696C167.343 45.7397 168.322 35.4682 170.191 28.0523C173.148 16.3286 177.371 12.027 178.409 10.8456C180.597 8.35598 188.415 -0.546325 200.157 0.0264222C209.333 0.476967 215.386 6.4441 216.948 8.09532C225.621 17.28 225.98 31.4274 222.188 40.9492C219.659 47.3027 214.825 51.6731 205.153 60.4204C198.182 66.7224 197.105 66.3667 191.451 71.7656C183.252 79.6013 178.457 87.1032 175.504 91.7952C171.35 98.3866 166.188 108.047 162.344 120.629L134.947 117.37L134.946 117.364Z" fill="#665E5A"/>
<path d="M141.251 127.426C140.646 124.286 137.619 122.233 134.49 122.84C131.361 123.447 129.315 126.485 129.92 129.625C130.525 132.765 133.552 134.818 136.681 134.211C139.81 133.604 141.856 130.566 141.251 127.426Z" fill="#F5CAC3"/>
<path d="M197.017 8.41582C206.458 6.58394 214.515 15.0715 216.52 25.4811C218.526 35.8906 207.396 50.8965 197.955 52.7284C188.515 54.5603 180.14 49.6932 178.135 39.2836C176.129 28.874 187.576 10.2426 197.016 8.4107L197.017 8.41582Z" fill="#F5CAC3"/>
<path d="M0.0152273 115.748L0 115.751L0.00410579 115.744L0.0152273 115.748Z" fill="#665E5A"/>
<path fill-rule="evenodd" clip-rule="evenodd" d="M0.0152273 115.748L36.6775 126.136L107.283 138.399L168.703 144.159C173.214 146.068 180.101 149.224 188.045 153.941C195.724 158.498 200.083 161.954 203.784 164.888C207.001 167.438 209.721 169.595 213.693 171.739C229.036 180.021 245.022 178.301 254.732 177.256C254.948 177.233 255.161 177.21 255.37 177.187C264.821 176.176 287.895 173.703 299.967 156.589L299.969 156.587C301.831 153.948 310.192 142.096 305.682 132.705C304.305 129.838 302.106 127.995 300.431 126.877L289.954 121.108L276.287 117.708L250.17 115.61L214.641 118.203L203.315 121.196L193.542 124.843L183.691 131.374L179.903 133.658L163.529 118.68L122.68 114.211L39.8222 111.269L15.3759 112.767L0.0152273 115.748ZM296.344 142.473C291.79 128.686 273.948 128.695 250.295 131.731C245.467 132.35 240.517 132.731 235.752 133.097C218.154 134.45 203.087 135.608 206.066 147.877C208.586 158.24 234.189 174.211 257.605 169.668C281.02 165.124 299.69 152.601 296.344 142.473Z" fill="#665E5A"/>
<path d="M142.18 140.797L101.045 134.68L49.0917 172.467L22.0728 199L42.3878 190.548L66.9898 180.953L104.671 162.292L142.18 140.797Z" fill="#665E5A"/>
</svg>
