<svg width="107" height="129" viewBox="0 0 107 129" fill="none" xmlns="http://www.w3.org/2000/svg">
<path d="M17.5839 14.8571C18.5928 2.51422 32.641 3.08457 35.3949 10.2447L29.3778 18.2612C27.3452 16.8108 24.5677 18.1891 24.3513 20.8362C24.1141 23.7386 26.1806 24.7744 29.0829 25.0116L28.5722 28.1163C22.5125 27.621 16.8175 24.2338 17.5839 14.8571Z" fill="#F6ABAA"/>
<path d="M48.8204 29.6429L48.0904 26.79L42.7186 26.1262L41.5936 28.8917L35.946 26.8889C36.721 22.9068 37.8167 20.1068 39.9613 15.0808C41.7166 10.8899 42.5915 9.6129 44.2216 6.95286L50.9877 7.05641C52.1746 9.81829 53.679 14.982 54.1472 18.6804C54.6422 22.4453 54.8911 25.291 54.9161 29.3064L48.8204 29.6429ZM43.8353 23.071L47.5987 23.3786C47.3216 21.269 46.7966 18.6575 46.239 17.2314C45.4701 18.3886 44.3425 21.186 43.8353 23.071Z" fill="#EFEE9F"/>
<path d="M59.4142 7.3599C66.2908 8.4678 71.0988 10.5303 77.0495 14.3237C76.1211 17.0411 74.8867 19.573 73.3914 21.7624L69.7998 20.9231C68.4533 24.8263 66.8563 28.2597 65.1337 31.2653C63.1934 31.0425 61.5051 30.4871 59.9625 29.7189C60.496 25.9418 61.1916 22.1458 62.0759 18.3974L57.9253 16.9344C58.0688 13.6071 58.3594 10.8375 59.4142 7.3599ZM40.2593 123.257L39.5293 120.404L34.1576 119.74L33.0325 122.505L27.3849 120.503C28.1599 116.521 29.2556 113.721 31.4002 108.695C33.1555 104.504 34.0304 103.227 35.6605 100.567L42.4266 100.67C43.6135 103.432 45.1179 108.596 45.5861 112.294C46.0811 116.059 46.3301 118.905 46.355 122.92L40.2593 123.257ZM35.2742 116.685L39.0376 116.992C38.7606 114.883 38.2356 112.271 37.6779 110.845C36.9091 112.002 35.7814 114.8 35.2742 116.685ZM79.9737 114.27C80.9826 101.927 95.0308 102.498 97.7847 109.658L91.7676 117.674C89.735 116.224 86.9575 117.602 86.7411 120.249C86.5039 123.152 88.5703 124.187 91.4727 124.425L90.962 127.529C84.9022 127.034 79.2073 123.647 79.9737 114.27Z" fill="#9BE2EC"/>
<path d="M96.4262 12.6969C94.9054 15.5906 92.2591 19.2913 90.0094 21.676C88.7195 19.3873 84.8981 19.396 84.6707 21.7854C84.4896 23.2154 85.9638 24.4275 88.2264 23.4566C92.2074 21.8877 96.1119 24.0049 95.9287 27.4253C95.5882 33.9473 84.1116 34.5182 80.8535 31.1696C81.1654 30.1035 81.6342 29.0823 82.3314 28.0155C83.1378 28.7557 84.5716 29.6756 86.0941 29.511C88.3657 29.2151 88.1258 27.0444 85.8457 27.0506C82.8268 27.0607 78.5338 24.5908 78.6418 18.9488C78.7683 9.93718 89.7655 6.98327 96.4262 12.6969ZM69.4703 104.293C72.3662 103.824 74.675 103.467 78.3552 103.222C78.2847 110.761 77.8771 118.497 76.969 125.679C75.4973 126.009 74.0679 126.213 72.5851 126.284C71.1624 118.944 70.3114 115.214 69.4703 104.293Z" fill="#9AEBB4"/>
<path d="M34.6354 75.6402L33.9054 72.7873L28.5336 72.1234L27.4086 74.889L21.761 72.8862C22.536 68.9041 23.6317 66.1041 25.7763 61.0781C27.5316 56.8872 28.4065 55.6102 30.0366 52.9502L36.8027 53.0537C37.9896 55.8156 39.4939 60.9793 39.9622 64.6777C40.4571 68.4426 40.7061 71.2883 40.7311 75.3037L34.6354 75.6402ZM29.6502 69.0683L33.4137 69.3759C33.1366 67.2663 32.6116 64.6548 32.054 63.2287C31.2851 64.3859 30.1575 67.1833 29.6502 69.0683ZM67.3619 106.401L62.1233 114.32C61.4419 113.622 59.9124 112.695 57.7129 113.285C55.7765 113.801 54.4875 115.43 54.5016 117.614C54.5235 119.703 55.8232 121.479 58.4066 121.69C60.3202 121.846 61.2517 121.056 61.6514 120.093C60.5508 119.81 59.583 119.474 58.8943 119.257C58.7473 118.7 58.7402 117.607 58.8022 116.457C61.1025 115.81 63.0181 115.549 66.1437 115.805C66.5807 119.886 65.7421 122.289 64.2767 124.899L61.856 125.054L61.666 124.236C61.1485 124.675 59.8017 125.047 57.8243 124.885C52.9446 124.486 49.1927 119.717 49.0904 113.897C48.9727 106.695 54.7239 101.932 59.7866 102.057C64.7854 102.177 66.7781 105.293 67.3619 106.401Z" fill="#F6ABAB"/>
<path d="M64.5052 55.9602C63.7604 63.8939 62.3856 71.6798 60.9386 77.5976C59.4266 77.6345 57.9172 77.6396 56.3622 77.4161C53.9691 74.8767 52.2452 72.0068 50.5297 69.4264C50.6804 72.2962 50.7056 74.7384 50.236 76.9475C48.5567 77.0671 47.2731 77.0585 45.5535 76.8858C44.568 70.4802 44.3396 63.8476 44.2813 55.5272C45.8057 54.9454 47.392 54.7861 49.7918 54.886C51.9095 58.045 54.8478 62.5554 56.4265 66.0235C56.3027 61.6469 56.4571 60.1505 56.8195 55.7173C59.1764 55.5567 62.1184 55.7009 64.5052 55.9602Z" fill="#DDD84C"/>
<path d="M67.7241 78.409C66.8195 71.0148 66.4382 63.5027 66.4474 55.9263C71.8467 55.4686 83.8561 57.4135 84.15 66.7806C84.4867 77.9812 73.1512 78.7884 67.7241 78.409ZM72.3308 69.1857L72.0294 75.2292C73.975 75.3882 76.8702 74.5333 76.9941 72.2317C77.1259 69.8345 74.3128 68.8982 72.3308 69.1857Z" fill="#B7AFF6"/>
<path d="M19.3513 121.837L14.5634 120.707L15.1342 115.295C13.9168 116.833 12.5432 118.712 10.7173 120.232C9.66437 118.187 8.98956 116.623 8.54782 114.564C8.04839 116.354 7.64404 117.765 6.8361 119.401C4.46033 119.399 3.00365 119.152 1.13956 118.39C1.00683 111.765 1.47363 104.483 2.71171 97.5845C5.5047 97.588 7.46064 97.6194 10.7489 98.2414C11.6532 102.104 12.2413 105.908 12.6568 109.859C14.6652 106.107 16.4678 103.3 18.8276 99.9613C21.6479 100.417 24.187 101.17 26.9551 102.263C25.0804 109.88 22.3291 116.044 19.3513 121.837Z" fill="#94C8B5"/>
</svg>
