<svg width="175" height="258" viewBox="0 0 175 258" fill="none" xmlns="http://www.w3.org/2000/svg">
<path d="M43.8145 6.00922C47.8793 4.85381 52.4867 4.07269 57.5421 3.4531C57.7935 6.70057 57.7288 9.916 57.4917 13.114L52.4941 13.4491L52.4273 16.1128L56.2202 16.2071C56.3082 17.0578 56.2208 17.9197 56.0501 18.7442L52.3917 19.041L52.3004 22.8052C50.9292 23.1597 49.6617 23.3505 48.1735 23.1416C46.3394 19.4724 44.6703 12.7431 43.8145 6.00922Z" fill="#F6ABAA"/>
<path d="M72.4435 1.86244C72.3226 4.20136 71.9892 6.34459 71.4147 8.28921L66.0419 7.74458C65.8708 8.85929 65.7602 9.95109 65.704 11.0775L70.9736 11.4955C70.9633 12.7426 70.8526 13.8344 70.4921 14.8138L65.5877 14.2296C65.5257 15.4134 65.458 16.6547 65.511 17.8502L70.1942 18.3249C70.2905 19.3797 70.1827 20.4427 70.0204 21.4712C66.0234 21.3854 63.4434 21.0658 59.7919 20.4344C58.9807 14.6919 59.0727 8.34433 59.8474 0.701697C64.5285 0.624705 67.6603 0.942166 72.4435 1.86244Z" fill="#EFEE9F"/>
<path d="M87.066 6.76519C86.9451 9.10411 86.6117 11.2473 86.0372 13.192L80.6644 12.6473C80.4933 13.762 80.3827 14.8538 80.3265 15.9802L85.5961 16.3983C85.5858 17.6454 85.4751 18.7372 85.1146 19.7166L80.2102 19.1323C80.1482 20.3162 80.0805 21.5575 80.1335 22.7529L84.8167 23.2277C84.913 24.2824 84.8052 25.3455 84.6429 26.374C80.6459 26.2881 78.0659 25.9685 74.4144 25.3371C73.6032 19.5947 73.6952 13.2471 74.4699 5.60445C79.151 5.52745 82.2828 5.84492 87.066 6.76519Z" fill="#9BE2EC"/>
<path d="M92.2953 10.0056C95.2547 10.3056 98.6268 11.4021 101.093 12.8422C98.4479 18.3214 97.3863 21.3487 95.2113 25.3371C98.3718 25.6575 100.136 26.0105 102.985 26.8218C102.06 29.0792 101.078 30.7503 99.9401 32.5217C95.953 31.479 92.8516 30.0035 89.6756 28.4044C90.1725 20.0659 91.2514 14.8634 92.2953 10.0056Z" fill="#D1A2A2"/>
<path d="M116.918 8.50034C123.104 9.62079 127.406 11.5663 132.708 15.0936C131.823 17.5292 130.665 19.792 129.277 21.7412L126.051 20.9208C124.768 24.419 123.266 27.4888 121.659 30.1706C119.912 29.9354 118.399 29.4047 117.02 28.6844C117.568 25.2857 118.262 21.8729 119.126 18.5062L115.407 17.1132C115.595 14.1135 115.906 11.6197 116.918 8.50034Z" fill="#9AEBB4"/>
<path d="M137.583 10.953C140.292 11.4308 142.983 12.081 145.623 12.9582C145.177 15.3512 144.611 17.7901 144.079 20.1745L147.719 20.9208C148.239 18.9416 148.836 16.7671 149.61 14.2911C152.051 15.1192 154.455 16.0305 156.893 17.1775C154.592 23.272 152.084 28.8232 149.293 33.7361L145.522 32.5701C145.847 30.2228 146.134 27.9589 146.574 25.6232L143.185 24.6991C142.708 26.8278 142.139 29.0052 141.461 31.1135C139.309 30.8663 137.895 30.4908 136.315 30.0404C136.41 23.6641 136.683 17.2478 137.583 10.953Z" fill="#F49898"/>
<path d="M174.186 17.2737C174.065 19.6126 173.732 21.7558 173.157 23.7004L167.784 23.1558C167.613 24.2705 167.503 25.3623 167.446 26.4887L172.716 26.9067C172.706 28.1538 172.595 29.2456 172.235 30.225L167.33 29.6408C167.268 30.8246 167.2 32.0659 167.253 33.2614L171.937 33.7361C172.033 34.7909 171.925 35.8539 171.763 36.8825C167.766 36.7966 165.186 36.477 161.534 35.8456C160.723 30.1031 160.815 23.7555 161.59 16.1129C166.271 16.0359 169.403 16.3534 174.186 17.2737Z" fill="#DDD84C"/>
<path d="M51.6204 79.2421L47.3202 78.1385L47.9302 73.2658C46.8048 74.6321 45.5324 76.3028 43.8582 77.6425C42.9441 75.7792 42.3627 74.356 42.0002 72.4905C41.5182 74.0962 41.1285 75.3629 40.3708 76.8245C38.2272 76.7814 36.9172 76.5325 35.2486 75.8118C35.2452 69.8319 35.7943 63.2695 37.0326 57.0671C39.5527 57.1194 41.317 57.1821 44.273 57.8011C45.0211 61.3021 45.4849 64.7452 45.7904 68.3175C47.6685 64.9666 49.3443 62.466 51.5322 59.4948C54.069 59.9551 56.3467 60.6795 58.8252 61.7145C56.9998 68.5539 54.409 74.0677 51.6204 79.2421Z" fill="#DA9393"/>
<path d="M70.4607 78.1796L69.8522 75.5925L65.0169 74.8992L63.9532 77.3748L58.8926 75.4685C59.6618 71.8891 60.6996 69.3818 62.723 64.8846C64.3804 61.1339 65.1923 59.9971 66.7098 57.6256L72.813 57.8379C73.8355 60.3508 75.1021 65.0364 75.4596 68.3817C75.8401 71.7874 76.0148 74.3595 75.9667 77.983L70.4607 78.1796ZM66.0781 72.1621L69.4684 72.5058C69.2555 70.5975 68.8277 68.2319 68.3495 66.9353C67.6355 67.966 66.5689 70.4703 66.0781 72.1621Z" fill="#94C8B5"/>
<path d="M95.2113 66.1576L90.3455 73.2113C89.7429 72.5697 88.3791 71.7058 86.3842 72.2002C84.6279 72.6317 83.4362 74.0784 83.4106 76.0496C83.3937 77.9347 84.5351 79.5598 86.8624 79.7957C88.5863 79.9704 89.4407 79.2733 89.8183 78.4118C88.8302 78.1375 87.9628 77.8173 87.3453 77.6096C87.2224 77.1036 87.2352 76.118 87.3113 75.0808C89.3983 74.5376 91.1313 74.336 93.947 74.6214C94.2696 78.3115 93.4707 80.4656 92.1026 82.7942L89.9157 82.8918L89.7587 82.1502C89.284 82.5375 88.0623 82.8491 86.2809 82.6685C81.885 82.2229 78.5834 77.8534 78.5934 72.6006C78.6137 66.1006 83.8866 61.9037 88.4525 62.1053C92.9608 62.3011 94.7041 65.1483 95.2113 66.1576Z" fill="#C4A18D"/>
<path d="M96.0835 59.9075C98.7047 59.5347 100.794 59.253 104.119 59.0966C103.923 65.8981 103.419 72.8715 102.474 79.3358C101.14 79.6069 99.8468 79.7661 98.5077 79.8045C97.3529 73.1564 96.6506 69.7761 96.0835 59.9075Z" fill="#F6ABAB"/>
<path d="M106.453 76.9624C107.58 65.8433 120.245 66.6047 122.604 73.1136L117.034 80.2411C115.226 78.8967 112.696 80.0916 112.454 82.4763C112.189 85.0909 114.035 86.0618 116.65 86.3268L116.135 89.1192C110.675 88.5659 105.596 85.4095 106.453 76.9624Z" fill="#B7AFF6"/>
<path d="M132.311 62.7715C134.932 62.3986 137.022 62.117 140.346 61.9605C140.15 68.762 139.647 75.7355 138.701 82.1997C137.368 82.4709 136.074 82.6301 134.735 82.6685C133.58 76.0204 132.878 72.6401 132.311 62.7715Z" fill="#EFEE9F"/>
<path d="M163.762 69.347C162.951 76.4925 161.573 83.4935 160.164 88.8077C158.799 88.8145 157.437 88.7925 156.038 88.5636C153.923 86.2303 152.418 83.6104 150.916 81.252C151.001 83.8441 150.981 86.0481 150.518 88.0331C149.001 88.1115 147.843 88.0812 146.295 87.8952C145.518 82.0982 145.428 76.1095 145.522 68.601C146.908 68.1029 148.342 67.987 150.505 68.1193C152.361 71.0069 154.933 75.1282 156.296 78.2852C156.261 74.334 156.427 72.9865 156.832 68.9928C158.961 68.8894 161.613 69.0711 163.762 69.347Z" fill="#9BE2EC"/>
<path d="M17.2726 113.64C18.6417 112.734 20.1318 111.492 21.7333 110.871L26.1792 116.836C26.9024 115.429 27.4798 113.456 27.9443 112.023C30.0555 112.672 32.0947 113.459 34.0502 114.499C32.5238 121.253 29.8736 128.212 25.4113 132.143C23.9206 131.672 22.14 130.911 21.1239 130.054C21.5515 128.413 22.0859 126.291 22.9365 124.2C20.8259 120.967 18.9223 117.697 17.2726 113.64Z" fill="#9AEBB4"/>
<path d="M43.6256 136.739C39.6318 136.334 35.1632 132.311 35.8651 125.386C36.4592 119.525 40.169 115.286 46.8922 115.967C53.5005 116.637 55.3144 122.51 54.8163 127.423C54.2746 132.768 49.3719 137.321 43.6256 136.739ZM44.2802 132.857C45.7168 133.003 47.4598 131.845 47.6578 129.891C47.8442 128.052 47.0417 126.519 45.1167 126.324C43.2491 126.135 41.796 127.584 41.6038 129.48C41.4436 131.061 42.4989 132.677 44.2802 132.857Z" fill="#F49898"/>
<path d="M57.1698 114.179C60.4335 114.626 62.5247 115.186 65.368 116.345C63.4015 123.432 63.6927 131.153 67.1738 130.316C69.5251 129.742 69.0248 121.506 66.5043 115.445C69.0455 114.715 71.6496 114.225 74.3137 114.001C78.3272 123.087 76.5139 133.817 67.6709 134.576C59.5607 135.263 55.8329 127.367 57.1698 114.179Z" fill="#EFEE9F"/>
<path d="M78.8496 137.692C78.1549 130.8 78.3022 123.907 78.5657 118.157C83.0314 115.91 92.6216 117.231 93.947 123.054C94.9296 127.392 91.5346 130.531 90.4853 130.86C90.931 132.763 91.4808 134.212 91.8965 136.982C90.8672 137.401 89.7172 137.865 88.5388 138.035C86.8339 136.527 85.6746 135.365 84.2374 133.507C84.2009 135.012 84.0611 136.391 83.9155 137.828C81.9872 137.952 80.5073 137.947 78.8496 137.692ZM84.3004 129.449C85.7457 129.509 87.6228 129.031 87.6106 127.434C87.6097 126.011 85.7887 125.362 84.3055 125.676L84.3004 129.449Z" fill="#D1A2A2"/>
<path d="M113.279 118.914C111.856 121.498 109.404 124.791 107.332 126.903C106.208 124.815 102.76 124.756 102.513 126.908C102.324 128.195 103.633 129.315 105.692 128.478C109.311 127.133 112.797 129.112 112.572 132.195C112.15 138.073 101.785 138.387 98.9037 135.308C99.2038 134.352 99.6447 133.439 100.293 132.488C101.007 133.17 102.285 134.025 103.661 133.904C105.716 133.677 105.538 131.714 103.48 131.679C100.756 131.635 96.9261 129.331 97.1227 124.243C97.3952 116.114 107.37 113.642 113.279 118.914Z" fill="#9BE2EC"/>
<path d="M128.198 125.36C128.077 127.699 127.743 129.843 127.169 131.787L121.796 131.243C121.625 132.357 121.514 133.449 121.458 134.576L126.728 134.994C126.717 136.241 126.607 137.332 126.246 138.312L121.342 137.728C121.28 138.911 121.212 140.153 121.265 141.348L125.948 141.823C126.045 142.878 125.937 143.941 125.775 144.969C121.778 144.883 119.198 144.564 115.546 143.932C114.735 138.19 114.827 131.842 115.602 124.2C120.283 124.123 123.414 124.44 128.198 125.36Z" fill="#B7AFF6"/>
<path d="M133.978 122.111C136.937 122.411 140.31 123.507 142.776 124.947C140.131 130.427 139.069 133.454 136.894 137.442C140.055 137.763 141.818 138.116 144.668 138.927C143.742 141.184 142.76 142.856 141.623 144.627C137.636 143.584 134.534 142.109 131.358 140.51C131.855 132.171 132.934 126.969 133.978 122.111Z" fill="#DDD84C"/>
<path d="M147.047 125.504C151.112 124.348 155.719 123.567 160.774 122.948C161.026 126.195 160.961 129.411 160.724 132.609L155.726 132.944L155.66 135.607L159.453 135.702C159.541 136.552 159.453 137.414 159.283 138.239L155.624 138.536L155.533 142.3C154.162 142.654 152.894 142.845 151.406 142.636C149.572 138.967 147.903 132.238 147.047 125.504Z" fill="#9AEBB4"/>
<path d="M170.887 141.836C170.879 141.922 170.841 142.005 170.807 142.06C170.801 142.117 170.795 142.175 170.76 142.229C170.056 144.306 168.112 146.025 164.013 146.654C163.824 146.229 163.761 145.7 163.762 145.119C164.392 144.632 164.887 144.043 165.276 143.357C164.452 142.606 164.19 141.476 164.274 140.643C164.391 139.494 165.327 137.412 167.999 137.682C170.212 137.907 171.12 139.827 170.969 141.322C170.951 141.494 170.934 141.666 170.887 141.836Z" fill="#EEA4A4"/>
<path d="M40.407 168.041C43.3664 168.341 46.7384 169.437 49.2049 170.877C46.5595 176.356 45.498 179.384 43.323 183.372C46.4835 183.692 48.2474 184.045 51.0969 184.857C50.1714 187.114 49.1892 188.785 48.0518 190.557C44.0647 189.514 40.9632 188.038 37.7872 186.439C38.2842 178.101 39.3631 172.898 40.407 168.041Z" fill="#9BE2EC"/>
<path d="M53.5155 167.223C56.1367 166.85 58.2261 166.568 61.5511 166.412C61.3551 173.213 60.8514 180.187 59.9058 186.651C58.5721 186.922 57.2788 187.082 55.9397 187.12C54.7849 180.472 54.0826 177.092 53.5155 167.223Z" fill="#F49898"/>
<path d="M64.3702 172.188C67.0193 172.398 69.743 172.732 72.363 173.23L71.6827 179.083C73.829 177.094 76.1133 175.178 78.5353 173.333C80.3801 175.465 81.7361 177.838 82.7556 180.379C80.673 182.026 78.6394 183.474 76.52 184.624C77.7294 187.011 78.7031 189.431 79.4354 191.944C78.4024 192.971 77.3036 193.789 76.1102 194.393C73.986 192.727 72.1583 190.713 70.4659 188.509L69.6176 193.155L64.5525 192.438C63.5905 185.606 63.8585 178.667 64.3702 172.188Z" fill="#9BE2EC"/>
<path d="M98.9037 177.015C98.7827 179.354 98.4493 181.498 97.8749 183.442L92.502 182.898C92.331 184.012 92.2203 185.104 92.1642 186.23L97.4337 186.648C97.4234 187.896 97.3127 188.987 96.9522 189.967L92.0478 189.383C91.9859 190.566 91.9181 191.808 91.9711 193.003L96.6544 193.478C96.7506 194.533 96.6429 195.596 96.4806 196.624C92.4836 196.538 89.9035 196.219 86.2521 195.587C85.4409 189.845 85.5328 183.497 86.3075 175.855C90.9887 175.778 94.1204 176.095 98.9037 177.015Z" fill="#EFEE9F"/>
<path d="M112.572 173.106C115.193 172.733 117.282 172.452 120.607 172.295C120.411 179.097 119.908 186.07 118.962 192.534C117.628 192.806 116.335 192.965 114.996 193.003C113.841 186.355 113.139 182.975 112.572 173.106Z" fill="#F6ABAB"/>
<path d="M144.015 178.841C143.204 185.986 141.826 192.987 140.417 198.301C139.052 198.308 137.69 198.286 136.291 198.057C134.176 195.724 132.671 193.104 131.168 190.746C131.254 193.338 131.234 195.542 130.771 197.527C129.254 197.605 128.096 197.575 126.547 197.389C125.771 191.592 125.681 185.603 125.775 178.095C127.16 177.597 128.594 177.481 130.758 177.613C132.613 180.5 135.185 184.622 136.549 187.779C136.514 183.828 136.68 182.48 137.084 178.486C139.214 178.383 141.866 178.565 144.015 178.841Z" fill="#9BE2EC"/>
<path d="M0.873289 229.682C2.00042 218.563 14.6661 219.325 17.0251 225.834L11.4551 232.961C9.64654 231.617 7.11618 232.812 6.87445 235.196C6.60941 237.811 8.4558 238.782 11.0704 239.047L10.5551 241.839C5.09608 241.286 0.0170181 238.129 0.873289 229.682Z" fill="#F49898"/>
<path d="M19.3029 216.415C22.012 216.893 24.7037 217.543 27.3433 218.42C26.8975 220.814 26.331 223.252 25.799 225.637L29.4388 226.383C29.9588 224.404 30.5565 222.229 31.33 219.753C33.7714 220.581 36.1754 221.493 38.6135 222.64C36.3121 228.734 33.8046 234.286 31.0134 239.198L27.242 238.032C27.567 235.685 27.8546 233.421 28.2945 231.086L24.905 230.161C24.428 232.29 23.8589 234.467 23.1808 236.576C21.0288 236.329 19.6155 235.953 18.0357 235.503C18.1305 229.126 18.4036 222.71 19.3029 216.415Z" fill="#94C8B5"/>
<path d="M38.7542 225.762C41.3754 225.389 43.4648 225.107 46.7897 224.951C46.5938 231.753 46.0901 238.726 45.1445 245.19C43.8108 245.461 42.5175 245.621 41.1784 245.659C40.0236 239.011 39.3213 235.631 38.7542 225.762Z" fill="#EFEE9F"/>
<path d="M51.3974 226.383C54.3568 226.683 57.7289 227.78 60.1953 229.22C57.55 234.699 56.4884 237.726 54.3134 241.715C57.4739 242.035 59.2378 242.388 62.0873 243.199C61.1618 245.457 60.1797 247.128 59.0422 248.899C55.0551 247.856 51.9537 246.381 48.7777 244.782C49.2746 236.443 50.3535 231.241 51.3974 226.383Z" fill="#DA9393"/>
<path d="M65.9713 242.72C65.2849 236.032 65.0729 229.247 65.2143 222.411C70.0941 222.093 80.896 224.059 80.9966 232.516C81.1036 242.628 70.8615 243.157 65.9713 242.72ZM70.2899 234.478L69.9118 239.926C71.6645 240.104 74.2919 239.383 74.4441 237.309C74.6051 235.148 72.0833 234.254 70.2899 234.478Z" fill="#DDD84C"/>
<path d="M83.8413 228.049C86.5505 228.527 89.2421 229.177 91.8817 230.055C91.436 232.448 90.8694 234.886 90.3375 237.271L93.9773 238.017C94.4972 236.038 95.095 233.863 95.8684 231.387C98.3099 232.216 100.714 233.127 103.152 234.274C100.851 240.368 98.343 245.92 95.5519 250.833L91.7805 249.666C92.1055 247.319 92.393 245.055 92.833 242.72L89.4434 241.795C88.9664 243.924 88.3974 246.102 87.7192 248.21C85.5672 247.963 84.154 247.587 82.5741 247.137C82.669 240.76 82.942 234.344 83.8413 228.049Z" fill="#94C8B5"/>
<path d="M111.966 255.204C107.973 254.799 103.504 250.776 104.206 243.851C104.8 237.99 108.51 233.751 115.233 234.432C121.841 235.102 123.655 240.975 123.157 245.888C122.615 251.233 117.713 255.786 111.966 255.204ZM112.621 251.322C114.058 251.468 115.801 250.309 115.999 248.356C116.185 246.517 115.383 244.984 113.458 244.789C111.59 244.6 110.137 246.049 109.945 247.945C109.784 249.525 110.84 251.142 112.621 251.322Z" fill="#F6ABAA"/>
<path d="M133.3 250.624C129.306 250.219 124.838 246.196 125.54 239.272C126.134 233.41 129.843 229.171 136.567 229.853C143.175 230.523 144.989 236.396 144.491 241.309C143.949 246.653 139.046 251.207 133.3 250.624ZM133.955 246.743C135.391 246.889 137.134 245.73 137.332 243.776C137.519 241.937 136.716 240.405 134.791 240.21C132.924 240.02 131.471 241.469 131.278 243.366C131.118 244.946 132.173 246.562 133.955 246.743Z" fill="#D1A2A2"/>
<path d="M147.222 257.14C146.536 250.453 146.323 243.668 146.465 236.832C151.345 236.514 162.147 238.48 162.247 246.937C162.354 257.049 152.112 257.578 147.222 257.14ZM151.541 248.899L151.162 254.347C152.915 254.525 155.543 253.804 155.695 251.73C155.856 249.569 153.334 248.675 151.541 248.899Z" fill="#EFEE9F"/>
</svg>
