<svg width="139" height="137" viewBox="0 0 139 137" fill="none" xmlns="http://www.w3.org/2000/svg">
<path d="M43.8478 56.9268C46.0773 56.6164 46.0773 53.2988 49.5669 50.0976C52.7464 47.1486 55.1892 47.6531 55.4993 45.9264C55.9452 43.5012 51.6026 39.6016 46.814 38.8643C41.8315 38.0883 40.0867 41.3477 36.2674 40.0478C32.9329 38.9225 33.8247 36.3034 28.8422 32.3843C27.7953 31.5695 23.8016 28.5623 18.2181 28.0773C16.2794 27.9026 13.4877 27.9802 13.3132 28.7563C13.0806 29.7652 17.811 30.3278 20.6609 33.9558C23.6465 37.7585 21.9986 39.7956 23.2587 44.4325C25.4107 52.387 30.083 53.2794 39.6602 54.4047C41.5601 54.6181 42.2774 57.1403 43.8284 56.9268H43.8478Z" fill="#F6BE61"/>
<path d="M97.9375 63.6978C95.9794 63.368 96.8712 59.352 93.8081 55.8015C91.0164 52.5615 88.0501 51.0482 89.1746 49.5155C91.249 46.7024 92.8969 46.1785 94.506 42.2013C96.7161 36.7302 99.4885 34.5378 102.842 33.1215C105.77 31.8798 107.282 33.2961 112.749 32.7529C114.029 32.6171 117.363 34.1498 120.756 30.58C122.288 28.9697 123.897 26.3311 124.052 27.1654C124.246 28.2906 124.537 35.9541 120.252 39.0195C116.258 41.8521 108.581 43.2684 107.883 51.1064C107.108 59.6818 107.321 57.0238 102.784 61.5055C101.582 62.689 99.2946 63.9694 97.9375 63.7172V63.6978Z" fill="#F6BE61"/>
<path d="M52.7076 39.7568C54.1229 41.0567 55.1698 41.0567 56.6238 42.9774C57.2248 43.7729 56.7014 44.3161 57.186 44.7235C58.136 45.5578 60.1717 44.5295 61.2379 43.0938C63.196 40.4552 61.0053 34.6931 57.031 31.1621C53.0954 27.6892 47.9966 26.7386 47.6089 27.4564C47.3181 27.9997 49.9159 29.0861 51.7189 32.6948C52.3781 34.014 53.5413 36.3616 52.9015 38.6315C52.7658 39.136 52.3975 39.4658 52.6883 39.7568H52.7076Z" fill="#F6BE61"/>
<path d="M64.3398 42.9774C65.7163 43.4624 68.0816 42.5894 72.2692 42.8804C77.1935 43.2296 78.725 44.8011 80.9545 44.7623C83.184 44.7235 82.5249 39.8344 82.4667 39.1941C82.1565 36.0123 80.3535 33.6648 77.1935 29.6487C74.5568 26.3117 73.8007 26.0789 73.5099 24.4492C73.064 21.8689 74.7701 20.9764 75.3904 17.2708C76.0302 13.5263 74.9639 10.461 74.4405 8.96707C72.8314 4.27197 69.4386 0.585744 68.7795 0.934966C68.4111 1.12898 69.2254 2.42885 69.3417 4.98981C69.3611 5.51364 69.5162 9.4909 67.2673 13.1189C65.6582 15.6993 64.747 15.0396 62.5562 17.8334C61.49 19.1915 58.8727 22.5091 59.1635 26.4282C59.2217 27.3012 60.2686 29.4741 62.3624 33.8006C63.9327 37.0406 64.8633 38.6509 64.5337 40.882C64.3786 41.9685 63.7776 42.764 64.3398 42.958V42.9774Z" fill="#F6BE61"/>
<path d="M82.8932 45.7517C83.2615 47.071 85.1421 47.9828 86.6155 47.8276C87.1002 47.7694 88.0307 47.556 90.2408 44.7816C91.9275 42.6669 92.8387 41.5416 93.4009 40.009C95.5917 34.1692 91.0939 27.1071 90.4153 27.3012C90.2021 27.3594 90.4929 28.0966 90.2408 29.8233C90.0857 30.8904 89.7368 33.4319 87.9919 35.3527C86.2665 37.254 84.5411 37.7778 84.2696 39.4463C84.1727 39.9895 84.0564 39.7179 84.1145 40.5716C84.3084 43.3072 82.4667 44.1996 82.8932 45.7711V45.7517Z" fill="#F6BE61"/>
<path d="M41.6569 82.808C42.7814 80.8485 40.1641 78.8308 39.7376 74.0969C39.3499 69.7898 41.2304 68.1407 40.0672 66.8408C38.4193 65.0171 32.6808 66.0648 29.1717 69.4212C25.5269 72.9134 27.0197 76.2698 23.6658 78.501C20.7384 80.4605 19.2262 78.1517 13.0805 79.7232C11.7816 80.0531 6.97357 81.3917 3.19311 85.5048C1.87479 86.9405 0.226883 89.191 0.730946 89.7925C1.3901 90.5879 4.72468 87.1733 9.33879 87.1345C14.1662 87.0957 14.7671 89.6373 19.2262 91.4804C26.8259 94.6234 30.3931 91.4804 37.1204 84.5541C38.4581 83.1767 40.8815 84.1661 41.6569 82.808Z" fill="#F6BE61"/>
<path d="M60.1328 100.075C59.3185 97.9798 56.1003 98.7171 52.1841 96.0591C48.5975 93.6339 48.52 91.1312 46.7751 91.2088C44.313 91.3252 41.5019 96.4471 41.8896 101.278C42.2774 106.322 45.8252 107.273 45.4374 111.289C45.1079 114.781 42.3549 114.529 39.6795 120.272C39.1173 121.475 37.101 126.053 37.8959 131.602C38.1673 133.523 38.8846 136.239 39.6601 136.22C40.707 136.22 40.1642 131.466 43.0528 127.877C46.0772 124.094 48.423 125.239 52.6494 122.949C59.9002 119.03 59.7063 114.277 58.6012 104.693C58.388 102.791 60.6756 101.53 60.1134 100.056L60.1328 100.075Z" fill="#F6BE61"/>
<path d="M94.0408 89.2299C93.1296 87.4644 96.2703 85.8347 97.2396 81.2366C98.1314 77.0459 98.1508 73.7089 100.07 73.6895C103.56 73.6507 105.402 75.6878 109.124 73.5343C113.757 70.8569 118.236 72.8941 121.396 74.7178C124.149 76.3087 123.936 78.3652 127.658 82.4007C128.53 83.3513 129.131 85.3496 134.017 85.8929C136.227 86.1451 138.864 85.9705 138.282 86.6107C137.506 87.445 130.062 91.3446 125.002 90.7626C119.942 90.1805 116.084 83.3319 108.814 88.5508C101.544 93.7892 105.014 92.6639 98.713 91.752C97.0457 91.4998 94.6611 90.4522 94.0213 89.2105L94.0408 89.2299Z" fill="#F6BE61"/>
<path d="M71.3773 101.123C72.1528 99.3379 75.7781 101.123 79.8882 99.0663C83.6299 97.1649 85.7625 94.701 86.9838 96.1367C89.194 98.7558 89.3103 100.463 92.7418 102.908C97.4528 106.284 98.9262 109.427 99.5078 112.938C100.012 116.004 98.3252 117.109 97.5691 122.425C97.3947 123.686 95.1458 126.48 97.8018 130.535C98.9844 132.359 101.156 134.512 100.303 134.454C99.1783 134.376 91.7918 132.863 89.8531 128.071C88.0695 123.628 88.4766 116.004 81.1483 113.501C73.1221 110.765 75.623 111.58 72.366 106.245C71.513 104.828 70.8151 102.364 71.3579 101.123H71.3773Z" fill="#F6BE61"/>
<path d="M98.0345 66.1424C98.6549 64.7261 102.3 65.5798 103.114 63.8337C103.25 63.5427 103.327 63.1353 103.696 62.9218C104.277 62.592 105.091 62.9994 105.363 63.1353C107.825 64.2993 111.993 63.1159 112.265 63.0189C115.405 62.0876 116.549 59.5654 117.189 59.9729C117.79 60.3609 117.189 62.8442 116.064 64.8426C113.311 69.7899 107.844 71.2256 106.797 71.4778C103.347 72.312 99.0426 72.0986 98.4998 70.6241C98.3835 70.3137 98.5386 70.2361 98.4998 69.2854C98.4416 67.1707 97.7049 66.8021 98.0151 66.123L98.0345 66.1424Z" fill="#F6BE61"/>
<path d="M68.256 101.026C69.5743 101.86 68.1978 105.333 69.8069 106.4C70.0783 106.575 70.4661 106.71 70.6212 107.118C70.8732 107.739 70.3304 108.476 70.1753 108.728C68.6631 110.998 68.3141 115.363 68.3529 115.654C68.8182 118.894 70.4273 120.291 69.9232 120.873C69.458 121.416 68.0621 120.485 66.2397 119.069C61.7419 115.635 61.8195 110.028 61.7031 108.961C61.3736 105.41 62.2072 101.2 63.7388 100.871C64.049 100.812 64.1265 100.968 65.0571 101.084C67.1509 101.336 67.6356 100.657 68.256 101.045V101.026Z" fill="#F6BE61"/>
<path d="M91.0358 91.2476C92.4123 90.8983 94.2153 94.1577 95.9213 93.7503C96.2121 93.6727 96.5223 93.4981 96.9294 93.6727C97.5304 93.9249 97.7825 94.7786 97.8794 95.0502C98.713 97.5917 102.241 100.056 102.474 100.211C105.15 102.054 107.612 101.433 107.747 102.151C107.883 102.83 105.809 103.82 103.734 104.149C98.5967 104.945 94.0602 101.666 93.2071 101.006C90.3766 98.8722 87.7206 95.4964 88.3604 94.2353C88.4961 93.9637 88.6512 94.0219 89.2716 93.4593C90.648 92.1982 90.4348 91.4222 91.0746 91.2476H91.0358Z" fill="#F6BE61"/>
<path d="M33.8828 64.4545C35.7827 64.2605 36.5001 63.465 38.8847 63.659C39.8734 63.7366 39.9316 64.4739 40.552 64.3963C41.7927 64.2411 42.3937 62.0293 42.0254 60.2832C41.3468 57.0626 35.5889 54.8703 30.335 55.5105C25.1199 56.1508 21.0292 59.352 21.32 60.1086C21.5333 60.6906 24.073 59.449 27.9698 60.4966C29.385 60.8847 31.9247 61.5637 33.2043 63.5426C33.4757 63.9888 33.4951 64.4739 33.9022 64.4351L33.8828 64.4545Z" fill="#F6BE61"/>
<path d="M41.7733 94.5458C42.762 92.9161 42.5682 91.8684 44.1579 90.0835C44.817 89.3462 45.4374 89.7343 45.767 89.191C46.4068 88.1046 45.0109 86.2809 43.3824 85.5242C40.4162 84.1273 35.1817 87.3867 32.5063 91.9654C29.8502 96.5053 29.9278 101.685 30.7033 101.938C31.2849 102.132 31.8471 99.3379 35.046 96.8739C36.2092 95.9815 38.2836 94.3712 40.6294 94.5652C41.1529 94.604 41.56 94.895 41.7733 94.5652V94.5458Z" fill="#F6BE61"/>
<path d="M69.5021 98.0817C84.1393 98.0817 96.0041 86.2082 96.0041 71.5409C96.0041 56.8735 84.1393 45 69.5021 45C54.8649 45 43 56.8735 43 71.5409C43 86.2082 54.8649 98.0817 69.5021 98.0817Z" fill="#F6BE61"/>
</svg>
