<svg width="159" height="172" viewBox="0 0 159 172" fill="none" xmlns="http://www.w3.org/2000/svg">
<path d="M0 16.3537C0 14.9022 1.03911 13.6589 2.46752 13.4013L70.4675 1.1371C72.3078 0.805196 74 2.21948 74 4.08947V168.5C74 170.157 72.6569 171.5 71 171.5H3C1.34314 171.5 0 170.157 0 168.5V16.3537Z" fill="#FEF1E0"/>
<path d="M85 42.6626C85 40.9436 86.4416 39.5761 88.1582 39.6668L153.312 43.1081C154.879 43.1908 156.118 44.4668 156.153 46.0353L158.93 167.431C158.968 169.115 157.614 170.5 155.931 170.5H88C86.3431 170.5 85 169.157 85 167.5V42.6626Z" fill="#FEF1E0"/>
</svg>
