<svg width="701" height="408" viewBox="0 0 701 408" fill="none" xmlns="http://www.w3.org/2000/svg">
<path d="M124.612 100.859C124.612 100.672 124.612 100.442 124.663 100.111C124.736 99.2256 125.457 91.9787 130.91 86.4301C135.532 81.7164 143.61 78.1613 150.426 80.2771C158.773 82.8822 156.958 91.4821 168.848 101.622C171.632 104.011 182.035 112.863 190.062 109.905C193.59 108.603 193.947 106.034 199.473 103.407C205.203 100.658 207.047 102.37 210.955 100.672C221.569 96.0663 217.341 79.4926 228.757 73.5555C232.883 71.4109 235.478 72.5192 239.204 69.1152C243.279 65.3874 242.696 61.7388 246.537 59.8533C249.854 58.2269 251.196 60.4722 256.977 59.8749C264.624 59.0689 267.19 54.6358 270.573 56.1111C273.314 57.3273 272.432 60.6449 274.743 65.042C279.671 74.4911 290.044 71.3534 293.864 79.1688C295.701 82.911 294.601 89.2368 292.428 101.852C291.874 104.983 291.568 106.055 291.561 108.344C291.524 115.655 294.688 118.253 294.112 123.485C293.893 125.421 293.449 125.327 289.578 132.402C282.047 146.147 281.996 149.745 282.062 151.242C282.2 154.675 283.265 154.912 283.228 159.022C283.199 163.462 281.916 165.606 280.844 169.694C280.319 171.702 280.414 171.983 279.634 185.627C278.971 197.264 278.752 199.783 276.857 200.783C275.107 201.69 273.664 200.402 268.152 198.43C262.43 196.386 256.372 194.227 250.197 195.263C246.341 195.911 239.75 198.257 239.036 202.273C238.292 206.432 244.256 209.692 242.732 214.147C242.258 215.572 241.69 215.104 240.596 217.184C238.103 221.919 239.539 227.159 239.889 228.49C240.662 231.34 241.493 231.347 241.442 232.369C241.216 237.694 220.031 240.062 192.941 245.812C178.5 248.87 166.777 251.979 157.752 254.347C144.229 257.924 140.555 260.183 131.115 261.867C121.667 263.58 114.471 263.638 99.9643 263.307C67.9173 262.551 51.872 262.17 45.7192 260.594C19.8615 253.937 5.97401 239.587 1.32298 244.229C-1.40349 246.956 0.426319 254.858 3.70683 259.608C8.00065 265.833 14.5325 266.423 16.6029 273.418C17.3538 275.965 16.4789 275.872 17.1569 279.118C18.3525 284.752 22.413 291.625 29.0105 294.748C34.7332 297.447 38.7135 295.605 40.7693 298.879C42.4897 301.614 40.1423 303.643 42.0305 306.637C44.2976 310.243 48.9341 309.336 50.4432 313.028C51.2451 315.014 50.0859 315.69 50.9097 317.238C52.8197 320.908 61.1012 320.548 65.5554 320.347C72.7288 320.03 75.047 318.562 77.6714 320.368C80.1791 322.081 79.6543 324.506 81.3528 327.665C85.9528 336.179 99.9132 337.114 100.599 337.165C113.115 337.863 119.735 329.371 125.385 333.286C128.271 335.279 127.295 337.964 131.217 340.209C134.388 342.037 136.589 341.173 141.27 343.455C144.273 344.93 144.222 345.678 145.95 346.456C154.698 350.399 166.566 335.395 174.009 339.36C176.371 340.605 176.509 342.821 179.848 343.764C183.187 344.707 184.988 343.073 187.328 344.477C189.879 346.002 188.881 348.636 191.06 349.788C194.042 351.385 196.608 346.851 202.52 347.262C206.049 347.499 207.601 349.277 210 348.212C211.516 347.514 211.779 346.412 213.033 344.757C216.043 340.792 221.781 337.597 226.133 338.539C228.524 339.058 228.072 340.274 231.739 342.008C235.143 343.627 236.426 342.972 241.558 344.102C248.87 345.707 249.242 347.665 252.77 347.11C255.045 346.765 254.527 346.017 260.731 342.735C266.724 339.569 267.365 340.202 270.325 337.913C273.095 335.769 273.598 334.394 275.705 333.998C278.329 333.509 280.436 335.056 282.259 336.093C290.059 340.547 301.584 340.634 307.985 336.604C310.69 334.905 310.216 333.876 313.132 332.451C318.198 329.983 321.77 331.976 324.358 329.249C326.421 327.054 325.481 324.369 327.187 323.715C328.937 323.038 330.759 325.614 333.5 327.414C340.827 332.264 351.156 329.335 356.172 327.925C359.628 326.946 363.776 325.766 367.873 322.405C373.326 317.95 373.355 314.028 377.955 312.027C382.219 310.192 383.75 312.877 390.355 312.754C401.625 312.517 401.968 304.55 415.87 301.729C418.64 301.175 423.845 300.434 425.938 296.677C426.791 295.137 426.302 294.554 427.104 293.453C429.481 290.236 435.626 292.51 443.929 292.107C447.531 291.927 453.778 291.611 459.37 288.207C466.244 284.011 465.821 279.01 472.011 275.778C475.852 273.778 479.271 274.037 485.811 274.425C500.128 275.246 502.862 280.183 511.216 278.679C519.264 277.225 518.309 272.382 526.358 270.503C537.657 267.862 541.375 276.98 554.308 276.138C565.614 275.411 566.671 268.172 578.51 268.352C584.547 268.431 583.125 270.302 596.254 272.497C610.776 274.908 615.988 273.231 617.789 272.533C619.043 272.065 620.727 271.273 623.446 270.676C626.143 270.072 628.367 269.985 633.652 269.949C637.91 269.913 641.03 269.964 641.955 269.964C654.545 270.079 660.939 270.043 665.772 266.265C668.622 264.048 667.507 263.3 669.949 261.788C676.437 257.78 682.131 264.566 691.484 261.824C695.603 260.615 701.056 257.377 702.455 252.519C703.104 250.303 702.368 249.576 703.221 248.41C706.399 244.049 718.552 251.382 723.247 246.949C726.687 243.711 721.964 238.047 725.55 232.772C729.684 226.727 738.949 229.713 741.442 224.971C743.797 220.466 738.271 212.391 732.789 207.433C721.38 197.106 706.37 197.012 691.251 196.537C671.742 195.918 652.344 192.845 632.843 192.831C564.936 192.831 583.176 185.498 543.788 185.332C535.055 185.318 512.426 185.462 497.941 174.242C494.661 171.716 488.42 166.866 486.445 158.942C484.754 152.07 487.903 149.601 485.665 145.226C481.582 137.202 469.175 141.764 461.469 133.431C454.952 126.385 460.973 120.016 454.77 110.287C448.427 100.319 440.416 104.299 429.378 93.7706C419.479 84.3144 421.972 77.3121 411.963 65.9128C406.583 59.7813 397.776 59.8821 390.144 50.5914C388.328 48.3892 387.286 46.6836 386.674 45.7481C378.203 32.7439 360.911 27.5264 333.835 14.2056C311.725 3.34605 307.118 -1.123 296.984 0.237142C290.664 1.06474 289.833 3.16613 276.9 6.48374C259.091 11.0535 257.771 7.85108 250.051 11.766C237.33 18.2141 240.793 26.9579 227.241 34.2048C221.059 37.508 218.405 40.0268 213.135 45.0428C212.355 45.7912 211.071 47.0506 210.24 49.0297C208.505 53.1389 210.058 56.9747 210.598 59.5222C212.027 66.1359 208.491 72.0442 203.22 80.8672C198.496 88.7762 193.014 97.9302 186.387 97.6136C181.89 97.3977 181.022 93.0221 172.711 84.6238C166.216 78.0677 156.199 67.935 146.088 69.3167C144.003 69.619 140.57 71.8571 133.717 76.3478C123.263 83.1989 121.601 86.351 120.96 87.7471C118.845 92.4176 118.831 98.1389 121.127 100.319C121.411 100.579 123.278 102.356 124.342 101.824C124.554 101.708 124.605 100.233 124.677 100.096" fill="#F28482"/>
<path d="M535.889 271.331L539.863 285.739C544.043 300.898 551.162 315.088 560.815 327.501L570.516 339.975" stroke="#A55C5C"/>
<rect width="34.419" height="80.918" transform="matrix(0.772028 -0.635589 0.646733 0.762717 553.202 346.011)" fill="#CEAD9A"/>
<path d="M581.986 342.597C584.07 342.967 585.243 343.316 585.504 343.643C585.764 343.97 585.858 344.382 585.785 344.879C585.712 345.377 585.518 345.681 585.204 345.792C584.89 345.903 583.365 346.907 580.628 348.805C577.881 350.689 576.508 351.674 576.51 351.761C576.507 351.785 576.731 352.262 577.181 353.192C577.631 354.122 577.758 354.883 577.56 355.477C577.362 356.071 576.877 356.303 576.103 356.175C575.796 356.126 575.56 356.012 575.394 355.832C575.228 355.651 575.014 355.299 574.752 354.774C574.49 354.25 574.133 353.689 573.679 353.092C573.226 352.496 572.79 351.963 572.371 351.493C571.952 351.024 571.425 350.419 570.789 349.677C570.153 348.935 569.725 348.44 569.504 348.192L569.771 347.39C569.879 347.02 569.988 346.793 570.099 346.707C570.209 346.621 570.444 346.55 570.801 346.494C571.131 346.459 571.424 346.518 571.681 346.672C571.938 346.826 572.418 347.259 573.12 347.972L574.692 349.565C577.776 347.178 579.491 345.906 579.836 345.749C580.18 345.592 580.331 345.487 580.288 345.432C580.244 345.378 579.798 345.238 578.948 345.014C578.099 344.79 577.554 344.528 577.315 344.229C577.076 343.929 577.053 343.506 577.244 342.961C577.436 342.416 577.822 342.129 578.402 342.099C578.982 342.068 580.176 342.235 581.986 342.597Z" fill="black"/>
<path d="M585.677 355.139C586.245 354.7 587.06 354.84 588.125 355.558C588.593 355.836 588.974 355.992 589.271 356.027C589.567 356.062 589.933 355.988 590.369 355.805C591.298 355.372 591.54 354.876 591.095 354.317C590.794 353.911 590.473 353.664 590.133 353.574C589.794 353.484 589.282 353.517 588.6 353.67C587.125 353.952 586.351 353.571 586.278 352.525C586.232 352.076 586.424 351.685 586.853 351.353C587.282 351.021 587.815 350.806 588.453 350.709C589.091 350.612 589.773 350.625 590.497 350.747C591.232 350.884 591.864 351.144 592.393 351.527C594.121 352.769 594.669 354.284 594.038 356.073C593.916 356.453 593.728 356.764 593.473 357.006C593.218 357.247 592.708 357.631 591.942 358.157C591.176 358.684 590.579 358.959 590.15 358.982C589.722 359.005 589.466 359.049 589.383 359.113C589.3 359.178 589.269 359.279 589.29 359.417C589.579 361.463 589.24 363.059 588.274 364.203C587.308 365.348 585.944 365.797 584.183 365.552C583.151 365.38 582.33 365.024 581.72 364.483C581.11 363.941 580.508 363.019 579.916 361.714C579.102 359.964 578.935 358.352 579.415 356.878C579.604 356.358 579.757 356.03 579.873 355.896C579.99 355.762 580.234 355.661 580.605 355.594C581.249 355.448 581.71 355.576 581.986 355.979C582.263 356.382 582.337 357.008 582.208 357.857C582.03 359.008 582.259 360.109 582.895 361.16C583.532 362.21 584.284 362.719 585.152 362.686L586.034 362.698L586.268 361.855C586.398 361.402 586.401 360.76 586.277 359.931C586.153 359.101 585.91 358.32 585.548 357.586C585.012 356.436 585.055 355.621 585.677 355.139Z" fill="black"/>
<path d="M590.736 368.933C590.561 369.134 590.169 369.47 589.561 369.941C588.952 370.412 588.496 370.71 588.193 370.835C587.89 370.959 587.434 371.047 586.827 371.099C585.302 371.178 584.575 370.715 584.647 369.712C584.667 369.344 584.818 369.028 585.101 368.766C585.383 368.503 585.744 368.367 586.184 368.357C586.616 368.309 587.182 368.08 587.884 367.669C588.585 367.259 589.093 366.998 589.407 366.887C589.721 366.776 590.011 366.816 590.275 367.008C590.54 367.2 590.718 367.382 590.81 367.553C590.902 367.724 590.963 367.941 590.994 368.204C590.997 368.488 590.911 368.731 590.736 368.933Z" fill="black"/>
<path d="M607.662 370.68C607.63 370.948 607.42 371.232 607.032 371.532C606.659 371.821 606.384 371.967 606.209 371.971C606.033 371.975 605.786 371.89 605.469 371.717C605.253 371.642 604.443 370.935 603.041 369.596C601.638 368.258 600.849 367.535 600.675 367.428C600.505 367.383 599.998 367.687 599.154 368.34L600.162 369.478C600.605 369.95 600.919 370.357 601.102 370.7C601.286 371.043 601.446 371.58 601.582 372.312C601.911 373.622 601.876 374.784 601.477 375.799C601.078 376.813 600.388 377.534 599.409 377.961C598.852 378.216 597.849 378.177 596.399 377.845C594.948 377.513 593.911 377.137 593.285 376.718C592.685 376.301 592.136 375.613 591.639 374.653C591.143 373.693 590.926 373.001 590.991 372.577C591.055 372.152 591.302 371.817 591.733 371.572C592.153 371.313 592.552 371.28 592.929 371.473C593.306 371.666 593.681 372.136 594.053 372.884C594.426 373.631 594.803 374.132 595.185 374.388C595.54 374.664 596.085 374.87 596.82 375.007C597.555 375.143 598.024 375.199 598.227 375.173C598.42 375.134 598.577 374.98 598.697 374.711C598.96 374.199 598.962 373.613 598.705 372.953C598.458 372.306 597.951 371.531 597.185 370.625C596.432 369.709 595.961 369.104 595.771 368.81C595.582 368.516 595.508 368.199 595.549 367.858C595.591 367.518 595.704 367.253 595.89 367.065C596.076 366.878 596.564 366.522 597.354 365.998C598.144 365.475 598.696 365.114 599.008 364.917C599.32 364.719 599.672 364.557 600.063 364.43C600.454 364.304 600.759 364.266 600.979 364.317C601.198 364.367 601.507 364.503 601.906 364.723C602.305 364.943 602.668 365.202 602.995 365.5C603.322 365.797 603.802 366.231 604.434 366.799C606.648 368.876 607.725 370.169 607.662 370.68Z" fill="black"/>
<path d="M604.71 387.43C605.019 387.367 605.271 387.15 605.466 386.779C605.662 386.407 605.715 385.969 605.626 385.465C605.538 384.96 605.478 384.676 605.449 384.61C605.37 384.539 605.131 384.647 604.733 384.933C604.335 385.219 603.939 385.536 603.546 385.885C603.153 386.233 602.965 386.489 602.983 386.651C603.001 386.814 603.221 387.007 603.645 387.23C604.069 387.453 604.424 387.519 604.71 387.43ZM607.527 378.506C607.587 378.526 607.825 378.375 608.24 378.054C608.655 377.732 608.79 377.495 608.646 377.343C608.556 377.258 608.354 377.271 608.04 377.382C607.726 377.493 607.549 377.707 607.511 378.023C607.472 378.339 607.477 378.5 607.527 378.506ZM602.968 382.762C603.84 382.087 604.359 381.575 604.527 381.224C604.695 380.874 604.729 380.187 604.628 379.163C604.566 378.131 604.624 377.348 604.802 376.814C604.98 376.279 605.332 375.809 605.857 375.402C606.383 374.995 607.199 374.672 608.305 374.433C609.423 374.207 610.225 374.148 610.713 374.255C611.201 374.362 611.531 374.382 611.701 374.316C611.872 374.25 612.102 374.061 612.391 373.75C612.679 373.438 612.923 373.239 613.121 373.151C613.32 373.064 613.617 373.043 614.012 373.09C614.418 373.15 614.701 373.295 614.861 373.524C615.021 373.753 615.035 374.149 614.904 374.714C614.772 375.278 614.534 375.738 614.191 376.092C613.847 376.446 613.658 376.714 613.623 376.895C613.578 377.062 613.64 377.323 613.81 377.676C613.98 378.029 614.223 378.854 614.541 380.151C614.859 381.448 614.95 382.347 614.814 382.849C614.677 383.351 614.318 383.63 613.735 383.684C613.152 383.739 612.733 383.578 612.478 383.202C612.224 382.826 611.972 382.062 611.724 380.91C611.477 379.757 611.302 379.187 611.2 379.2C610.985 379.323 609.891 380.335 607.918 382.237L608.332 384.23C608.557 385.466 608.59 386.432 608.43 387.129C608.27 387.826 607.824 388.502 607.093 389.156C605.376 390.705 603.599 390.791 601.763 389.414C601.509 389.235 601.311 389.113 601.169 389.047C601.027 388.981 600.895 388.928 600.775 388.889C600.654 388.85 600.511 388.895 600.345 389.024C600.201 389.179 600.05 389.34 599.891 389.507C599.733 389.673 599.407 390.091 598.912 390.761C598.417 391.431 598.015 391.797 597.707 391.859C597.399 391.921 597.033 391.631 596.611 390.988L595.923 390L599.071 385.911L598.347 383.992C597.911 382.941 597.742 382.168 597.84 381.673C597.938 381.179 598.246 380.864 598.763 380.727C599.292 380.605 599.696 380.677 599.977 380.945C600.257 381.213 600.562 381.749 600.89 382.553L601.433 383.95L602.968 382.762Z" fill="black"/>
<path d="M272.891 199.58L344.206 163.692L414.696 152.319L486.423 147.444L497.553 186.032L391.199 207.966L285.412 243.646L272.891 199.58Z" fill="#A2A54E"/>
<path d="M235.965 205.429C231.537 203.545 230.051 201.602 229.533 200.156C227.55 194.624 238.167 192.049 240.009 182.096C241.291 175.196 237.027 171.872 239.85 168.647C243.652 164.296 254.698 166.536 260.45 168.548C271.226 172.323 277.423 180.828 281.177 185.778C286.893 193.333 288.186 198.794 296.95 208.009C298.736 209.888 299.126 210.122 300.098 211.385C306.305 219.432 306.759 230.715 303.343 233.813C299.378 237.407 284.764 234.872 235.958 205.426L235.965 205.429Z" fill="#DB9796"/>
<path d="M250.089 264.394C246.589 266.836 244.13 266.631 242.512 265.965C236.33 263.41 237.727 252.022 228.607 242.645C222.287 236.142 217.436 237.313 215.305 232.309C212.431 225.561 218.733 217.553 222.842 214.048C230.548 207.475 241.221 208.619 247.49 209.171C257.048 210.006 262.909 213.12 275.227 212.559C277.734 212.443 278.112 212.285 279.724 212.41C289.953 213.188 301.225 221.586 303.013 227.006C305.088 233.304 297.168 244.239 250.081 264.393L250.089 264.394Z" fill="#D37A79"/>
<path d="M492.606 170.191L511.155 181.155L500.437 185.623L490.131 187.654L492.606 170.191Z" fill="#A2A54E"/>
<path d="M302.571 226.65L278.782 209.07C271.58 203.747 263.804 199.248 255.601 195.655L238.264 188.063" stroke="#C87D7C"/>
<path d="M294.539 233.544L265.133 229.613C256.172 228.415 247.11 228.216 238.118 229.02L219.302 230.701" stroke="#9D5251"/>
<ellipse cx="305.045" cy="212.434" rx="18.1378" ry="23.9648" fill="#F8C470"/>
<ellipse cx="302.571" cy="211.622" rx="11.5422" ry="15.0288" fill="#F5D198"/>
</svg>
