<svg width="176" height="394" viewBox="0 0 176 394" fill="none" xmlns="http://www.w3.org/2000/svg">
<path d="M0.105469 0.0727539H165.716L175.281 39.4023H6.64937L0.105469 0.0727539Z" fill="#797B40"/>
<path d="M6.32165 34.3601C6.26309 150.694 6.20454 267.009 6.14599 383.344L15.7683 370.509V387.726L33.6273 368.846L35.1497 391.659L52.8915 374.637L63.197 393.244L71.6483 373.229L79.9239 390.622L87.4187 372.896L96.5727 391.718L104.048 374.931L123.488 393.244L125.557 372.876L142.967 390.035L145.192 372.661L159.694 387.413L162.817 371.213L174.781 387.315V34.3601" fill="#A2A54E"/>
<path d="M59.6438 199.212C61.9124 198.899 61.9123 195.559 65.4632 192.335C68.6984 189.366 71.184 189.874 71.4996 188.135C71.9533 185.693 67.5345 181.766 62.662 181.024C57.5922 180.242 55.8167 183.524 51.9305 182.216C48.5375 181.082 49.4449 178.445 44.3751 174.499C43.3099 173.678 39.2462 170.65 33.5648 170.162C31.5921 169.986 28.7514 170.064 28.5739 170.846C28.3372 171.861 33.1505 172.428 36.0504 176.081C39.0883 179.91 37.4115 181.962 38.6938 186.631C40.8835 194.64 45.6377 195.539 55.3827 196.672C57.316 196.887 58.0459 199.427 59.624 199.212H59.6438Z" fill="#F6BE61"/>
<path d="M114.682 206.03C112.689 205.698 113.597 201.654 110.48 198.079C107.639 194.816 104.621 193.292 105.765 191.749C107.876 188.916 109.553 188.389 111.19 184.384C113.439 178.875 116.26 176.667 119.673 175.241C122.651 173.991 124.19 175.417 129.753 174.87C131.055 174.733 134.448 176.277 137.9 172.682C139.459 171.061 141.096 168.404 141.254 169.244C141.451 170.377 141.747 178.093 137.387 181.18C133.324 184.032 125.512 185.458 124.802 193.351C124.013 201.986 124.23 199.309 119.613 203.822C118.39 205.014 116.063 206.303 114.682 206.049V206.03Z" fill="#F6BE61"/>
<path d="M68.6589 181.923C70.099 183.231 71.1643 183.231 72.6438 185.165C73.2553 185.966 72.7227 186.513 73.2158 186.924C74.1825 187.764 76.2538 186.728 77.3388 185.283C79.3312 182.626 77.1021 176.824 73.0581 173.268C69.0535 169.771 63.8653 168.814 63.4708 169.537C63.1749 170.084 65.8183 171.178 67.6529 174.811C68.3236 176.14 69.5072 178.504 68.8562 180.789C68.7181 181.297 68.3433 181.629 68.6392 181.923H68.6589Z" fill="#F6BE61"/>
<path d="M80.4951 185.165C81.8957 185.654 84.3024 184.775 88.5634 185.068C93.574 185.419 95.1325 187.002 97.4011 186.963C99.6696 186.924 98.9989 182.001 98.9398 181.356C98.6241 178.152 96.7895 175.788 93.574 171.744C90.8912 168.384 90.1218 168.15 89.8259 166.509C89.3722 163.91 91.1082 163.012 91.7394 159.28C92.3904 155.51 91.3055 152.423 90.7728 150.919C89.1355 146.191 85.6833 142.479 85.0126 142.831C84.6378 143.026 85.4663 144.335 85.5846 146.914C85.6044 147.442 85.7622 151.446 83.4739 155.1C81.8365 157.698 80.9094 157.034 78.6802 159.847C77.5952 161.214 74.9321 164.555 75.228 168.501C75.2872 169.38 76.3525 171.568 78.483 175.925C80.0809 179.187 81.0277 180.809 80.6924 183.056C80.5346 184.15 79.923 184.951 80.4951 185.146V185.165Z" fill="#F6BE61"/>
<path d="M99.3737 187.959C99.7486 189.288 101.662 190.206 103.161 190.049C103.654 189.991 104.601 189.776 106.85 186.982C108.566 184.853 109.494 183.72 110.066 182.176C112.295 176.296 107.718 169.185 107.028 169.38C106.811 169.439 107.107 170.181 106.85 171.92C106.692 172.995 106.337 175.554 104.562 177.488C102.806 179.402 101.051 179.93 100.774 181.61C100.676 182.157 100.557 181.883 100.617 182.743C100.814 185.498 98.9398 186.396 99.3737 187.979V187.959Z" fill="#F6BE61"/>
<path d="M57.4146 225.273C58.5588 223.3 55.8956 221.268 55.4616 216.501C55.0671 212.164 56.9806 210.504 55.797 209.195C54.1202 207.358 48.2811 208.413 44.7105 211.793C41.0018 215.309 42.5208 218.689 39.1081 220.936C36.1293 222.909 34.5906 220.584 28.3372 222.167C27.0155 222.499 22.1232 223.847 18.2765 227.988C16.935 229.434 15.2583 231.7 15.7712 232.306C16.4419 233.107 19.8349 229.668 24.5299 229.629C29.4419 229.59 30.0534 232.149 34.5906 234.005C42.3235 237.17 45.9533 234.005 52.7985 227.031C54.1597 225.644 56.6255 226.64 57.4146 225.273Z" fill="#F6BE61"/>
<path d="M76.2144 242.66C75.3858 240.55 72.1112 241.292 68.1264 238.616C64.4769 236.174 64.398 233.654 62.6225 233.732C60.1172 233.849 57.2568 239.007 57.6513 243.871C58.0459 248.95 61.6559 249.908 61.2614 253.952C60.926 257.468 58.1248 257.214 55.4025 262.997C54.8304 264.208 52.7788 268.818 53.5876 274.406C53.8638 276.34 54.5937 279.075 55.3828 279.055C56.448 279.055 55.8957 274.269 58.835 270.655C61.9124 266.845 64.2993 267.998 68.5998 265.693C75.9776 261.746 75.7804 256.96 74.656 247.309C74.439 245.395 76.7667 244.125 76.1946 242.64L76.2144 242.66Z" fill="#F6BE61"/>
<path d="M110.717 231.739C109.79 229.961 112.985 228.32 113.972 223.69C114.879 219.471 114.899 216.11 116.852 216.091C120.403 216.052 122.277 218.103 126.064 215.935C130.779 213.239 135.336 215.29 138.551 217.126C141.353 218.728 141.136 220.799 144.923 224.863C145.811 225.82 146.422 227.832 151.394 228.379C153.642 228.633 156.325 228.457 155.733 229.102C154.944 229.942 147.369 233.869 142.221 233.283C137.072 232.696 133.146 225.8 125.749 231.055C118.351 236.33 121.882 235.197 115.471 234.279C113.774 234.025 111.348 232.97 110.697 231.72L110.717 231.739Z" fill="#F6BE61"/>
<path d="M87.656 243.715C88.445 241.917 92.134 243.715 96.3161 241.644C100.123 239.729 102.293 237.248 103.536 238.694C105.785 241.331 105.903 243.05 109.395 245.512C114.189 248.911 115.688 252.076 116.28 255.612C116.793 258.699 115.076 259.812 114.307 265.165C114.129 266.435 111.841 269.248 114.544 273.331C115.747 275.168 117.956 277.336 117.088 277.277C115.944 277.199 108.428 275.676 106.456 270.85C104.641 266.376 105.055 258.699 97.5983 256.179C89.4314 253.424 91.9761 254.245 88.662 248.872C87.794 247.446 87.0839 244.965 87.6362 243.715H87.656Z" fill="#F6BE61"/>
<path d="M114.78 208.491C115.412 207.065 119.12 207.925 119.949 206.167C120.087 205.874 120.166 205.463 120.541 205.248C121.132 204.916 121.961 205.327 122.237 205.463C124.743 206.635 128.984 205.444 129.26 205.346C132.456 204.408 133.62 201.869 134.271 202.279C134.882 202.67 134.271 205.17 133.126 207.182C130.325 212.164 124.762 213.61 123.697 213.864C120.186 214.704 115.806 214.489 115.254 213.004C115.136 212.692 115.293 212.613 115.254 211.656C115.195 209.527 114.445 209.156 114.761 208.472L114.78 208.491Z" fill="#F6BE61"/>
<path d="M84.4799 243.617C85.8213 244.457 84.4207 247.954 86.0581 249.028C86.3343 249.204 86.7288 249.341 86.8866 249.751C87.1431 250.376 86.5907 251.119 86.4329 251.373C84.8942 253.659 84.5391 258.054 84.5786 258.347C85.052 261.61 86.6893 263.016 86.1764 263.602C85.703 264.149 84.2827 263.212 82.4283 261.785C77.8517 258.328 77.9306 252.682 77.8122 251.607C77.4769 248.032 78.3251 243.793 79.8835 243.461C80.1992 243.402 80.2781 243.558 81.225 243.676C83.3555 243.93 83.8487 243.246 84.4799 243.637V243.617Z" fill="#F6BE61"/>
<path d="M107.659 233.771C109.06 233.419 110.894 236.701 112.63 236.291C112.926 236.213 113.242 236.037 113.656 236.213C114.268 236.467 114.524 237.326 114.623 237.6C115.471 240.159 119.061 242.64 119.298 242.797C122.02 244.652 124.525 244.027 124.664 244.75C124.802 245.434 122.691 246.43 120.58 246.762C115.353 247.563 110.736 244.262 109.868 243.597C106.988 241.449 104.286 238.049 104.937 236.779C105.075 236.506 105.233 236.565 105.864 235.998C107.264 234.728 107.047 233.947 107.698 233.771H107.659Z" fill="#F6BE61"/>
<path d="M49.5042 206.792C51.4374 206.596 52.1673 205.795 54.5937 205.991C55.5998 206.069 55.6589 206.811 56.2902 206.733C57.5527 206.577 58.1642 204.35 57.7894 202.592C57.099 199.349 51.2401 197.141 45.8941 197.786C40.5876 198.43 36.4252 201.654 36.7211 202.416C36.9381 203.002 39.5223 201.751 43.4874 202.806C44.9275 203.197 47.5117 203.881 48.8137 205.874C49.0899 206.323 49.1096 206.811 49.5239 206.772L49.5042 206.792Z" fill="#F6BE61"/>
<path d="M57.533 237.092C58.539 235.451 58.3418 234.396 59.9594 232.599C60.6301 231.856 61.2613 232.247 61.5967 231.7C62.2477 230.606 60.8274 228.77 59.1703 228.008C56.1521 226.601 50.8258 229.883 48.1035 234.494C45.4009 239.065 45.4798 244.281 46.2689 244.535C46.8607 244.731 47.4328 241.917 50.6877 239.436C51.8713 238.538 53.9821 236.916 56.3691 237.112C56.9017 237.151 57.316 237.444 57.533 237.112V237.092Z" fill="#F6BE61"/>
<path d="M85.7478 240.653C100.642 240.653 112.714 228.697 112.714 213.927C112.714 199.158 100.642 187.202 85.7478 187.202C70.854 187.202 58.7812 199.158 58.7812 213.927C58.7812 228.697 70.854 240.653 85.7478 240.653Z" fill="#F6BE61"/>
</svg>
