<svg width="98" height="257" viewBox="0 0 98 257" fill="none" xmlns="http://www.w3.org/2000/svg">
<path d="M83.2342 255.458L19.0511 256.453L1.36285 245.002V190.733C1.86824 190.733 3.38437 171.814 10.4597 177.789C17.5266 183.756 14.5027 174.304 20.5672 168.827C25.7895 165.674 28.0766 175.39 40.277 183.265C54.933 192.725 69.589 158.869 82.2234 173.806C92.331 185.755 96.5425 178.452 97.3848 173.308V245.002L83.2342 255.458Z" fill="#F8C470"/>
<path d="M64.243 82.3459L88.261 0.827393H10.2026L33.0197 82.3459H64.243Z" fill="#776038"/>
<path d="M18.9133 256.453L1.07893 244.62V100.251L18.9133 88.4175V61.2004L3.45685 49.3669L2.26789 41.0834H92.6289V49.3669L80.7393 61.2004V88.4175L97.3847 100.251V244.62L83.1172 255.27L18.9133 256.453Z" fill="#73ADA9" fill-opacity="0.2"/>
<path d="M97.3847 116.543L1.07893 222.236V206.797L97.3847 103.48V116.543Z" fill="white" fill-opacity="0.5"/>
<path d="M97.3847 123.608L96.1979 130.686L45.1645 186.124L0.0651855 233.306L1.25201 226.229L97.3847 123.608Z" fill="white" fill-opacity="0.5"/>
</svg>
