<svg width="538" height="462" viewBox="0 0 538 462" fill="none" xmlns="http://www.w3.org/2000/svg">
<path d="M253.683 193.161C338.079 193.161 410.504 176.385 441.527 152.466C459.984 164.491 467.609 204.146 461.698 300.014C461.698 385.33 368.798 468.288 264.286 461.208C167.346 466.771 72.9325 385.329 72.9325 300.014C60.9813 235.893 69.8493 192.406 89.0102 165.805C126.122 182.39 186.059 193.161 253.683 193.161Z" fill="#6C9F9C"/>
<path fill-rule="evenodd" clip-rule="evenodd" d="M478.359 298.356C510.984 298.356 537.431 271.864 537.431 239.183C537.431 206.503 510.984 180.011 478.359 180.011C445.734 180.011 419.287 206.503 419.287 239.183C419.287 271.864 445.734 298.356 478.359 298.356ZM481.388 275.092C501.186 275.092 517.236 259.015 517.236 239.183C517.236 219.352 501.186 203.275 481.388 203.275C461.591 203.275 445.541 219.352 445.541 239.183C445.541 259.015 461.591 275.092 481.388 275.092Z" fill="#6C9F9C"/>
<path fill-rule="evenodd" clip-rule="evenodd" d="M59.2998 298.356C91.9244 298.356 118.372 271.864 118.372 239.183C118.372 206.503 91.9244 180.011 59.2998 180.011C26.6751 180.011 0.227539 206.503 0.227539 239.183C0.227539 271.864 26.6751 298.356 59.2998 298.356ZM62.3291 275.092C82.127 275.092 98.1763 259.015 98.1763 239.183C98.1763 219.352 82.127 203.275 62.3291 203.275C42.5312 203.275 26.4819 219.352 26.4819 239.183C26.4819 259.015 42.5312 275.092 62.3291 275.092Z" fill="#6C9F9C"/>
<path d="M448.909 141.781C458.523 209.141 363.403 221.482 261.672 221.482C159.941 221.482 78.9905 202.924 78.9905 151.108C78.9905 94.629 159.941 69.7575 261.672 69.7575C363.403 69.7575 448.909 101.717 448.909 141.781Z" fill="#77ACA9"/>
<path d="M410.199 137.528C410.199 168.253 345.775 193.16 266.305 193.16C186.835 193.16 122.411 168.253 122.411 137.528C122.411 106.803 186.835 81.8955 266.305 81.8955C345.775 81.8955 410.199 106.803 410.199 137.528Z" fill="#568582"/>
<path d="M388.208 459.036V427.893L357.066 443.272L388.208 459.036Z" fill="#598987"/>
<path d="M144.26 460.333L145.224 425.298L177.998 444.495L144.26 460.333Z" fill="#598987"/>
<path d="M395.599 369.502H380.422C385.481 358.117 398.243 328.917 408.817 303.201C422.036 271.055 414.692 220.324 429.379 214.297C444.066 208.27 439.66 256.991 429.379 309.228C421.155 351.018 403.432 366.823 395.599 369.502Z" fill="#6DB2AD"/>
<path d="M203.928 141.928C189.442 154.544 149.436 157.19 129.987 154.646L139.041 163.803L156.646 173.978L174.754 181.1L206.443 188.731L230.084 192.292L254.228 194.327L293.462 193.309L323.139 189.239L351.307 183.643L380.481 172.451L398.589 160.751L386.517 150.068C374.445 139.384 368.409 159.733 334.205 163.803C300.001 167.873 294.971 134.806 268.815 153.12C242.659 171.434 222.036 126.157 203.928 141.928Z" fill="#F6BE61"/>
<path d="M409.233 0.985107L334.737 184.013L333.709 186.541L337.819 185.53L352.718 182.496L434.921 0.985107H409.233Z" fill="#FCF3E8"/>
</svg>
