<svg width="110" height="240" viewBox="0 0 110 240" fill="none" xmlns="http://www.w3.org/2000/svg">
<path d="M93.362 238.374L20.5056 239.357L0.427002 228.044V174.428C1.00069 174.428 2.7217 155.736 10.7531 161.639C18.7751 167.534 15.3425 158.195 22.2266 152.785C28.1545 149.669 35.4741 145.004 49.3232 152.785C65.9598 162.131 77.8729 142.947 92.2147 157.703C103.688 169.509 108.469 162.294 109.425 157.212V228.044L93.362 238.374Z" fill="#F28482"/>
<path d="M72.3062 76.7393L99.2063 0.60022H11.781L37.3361 76.7393H72.3062Z" fill="#776038"/>
<path d="M21.537 239.357L1.56244 228.305V93.4629L21.537 82.4102V56.9892L4.22571 45.9366L2.89407 38.1998H104.098V45.9366L90.782 56.9892V82.4102L109.425 93.4629V228.305L93.4452 238.252L21.537 239.357Z" fill="#73ADA9" fill-opacity="0.2"/>
<path d="M109.425 108.68L1.56244 207.398V192.978L109.425 96.4791V108.68Z" fill="white" fill-opacity="0.5"/>
<path d="M109.425 115.279L108.096 121.889L50.9382 173.669L0.427002 217.738L1.75624 211.127L109.425 115.279Z" fill="white" fill-opacity="0.5"/>
</svg>
