<svg width="97" height="203" viewBox="0 0 97 203" fill="none" xmlns="http://www.w3.org/2000/svg">
<path d="M82.7053 201.942L18.5222 202.953L0.833984 191.333V136.266C1.33937 136.266 2.8555 117.069 9.9308 123.131C16.9978 129.186 13.9738 119.595 20.0384 114.037C25.2606 110.838 27.5477 120.697 39.7481 128.688C54.4041 138.287 69.0601 103.933 81.6945 119.089C91.8021 131.214 96.0136 123.805 96.8559 118.584V191.333L82.7053 201.942Z" fill="#A2A54E"/>
<path d="M64.1453 65.0808L87.8509 0.528076H10.8077L33.328 65.0808H64.1453Z" fill="#776038"/>
<path d="M19.4051 202.953L1.80267 193.582V79.2594L19.4051 69.8887V48.3361L4.14966 38.9654L2.97616 32.406H92.1619V38.9654L80.427 48.3361V69.8887L96.8559 79.2594V193.582L82.7739 202.016L19.4051 202.953Z" fill="#73ADA9" fill-opacity="0.2"/>
<path d="M96.8559 92.161L1.83425 175.856V163.631L96.8559 81.8166V92.161Z" fill="white" fill-opacity="0.5"/>
<path d="M96.8559 97.7556L95.6849 103.36L45.3319 147.261L0.833984 184.623L2.00498 179.018L96.8559 97.7556Z" fill="white" fill-opacity="0.5"/>
</svg>
