<svg width="362" height="241" viewBox="0 0 362 241" fill="none" xmlns="http://www.w3.org/2000/svg">
<path d="M45.1136 33.1033L68.5237 26.4507L73.4341 0L85.6302 22.685L109.474 18.9536L93.601 39.6304L103.433 63.7646L81.4278 53.8599L63.659 72.5054L65.9314 45.7124L45.1136 33.1033Z" fill="#FCF3E8"/>
<path d="M50.4237 124.277C51.5086 123.65 51.8397 121.424 52.2166 120.124C53.6897 113.676 55.0829 107.195 56.556 100.725C57.2983 97.6895 58.1319 94.2434 60.7698 92.3378C64.0472 89.9072 69.7342 91.094 71.1845 95.0878C71.8468 96.7196 71.961 98.4541 71.8811 100.291C70.1681 114.703 65.6117 128.625 61.9689 142.637C61.4436 144.52 60.9183 146.437 60.1303 148.229C58.4517 152.736 53.3243 156.365 48.7222 153.946C45.125 152.154 43.2294 148.126 41.4708 144.509C40.0205 142.158 37.6681 133.486 33.9567 136.909C28.7494 142.569 24.9238 156.353 15.0117 150.762C11.5401 148.468 10.2954 143.984 9.24478 140.116C6.48124 129.275 3.72913 118.332 1.02269 107.446C0.189065 103.863 -0.838695 99.5495 1.13689 96.2517C2.58717 93.8783 5.76181 92.8627 8.52534 93.5017C13.0018 94.4602 14.5777 99.3213 15.6169 103.27C17.0329 108.701 18.3233 114.235 19.6708 119.633C20.9041 124.722 22.7313 124.483 25.2893 120.34C27.7559 116.677 29.5944 112.33 33.1459 109.568C38.9813 105.312 44.5312 110.767 46.4611 116.381C47.3975 118.058 48.608 124.289 50.3666 124.311H50.4123V124.277H50.4237Z" fill="#FCF3E8"/>
<path d="M340.732 80.0481C347.458 80.0823 355.68 80.9153 359.528 87.1571C364.187 94.4145 358.535 105.415 349.479 102.996C345.653 101.98 344.329 97.0732 340.549 96.0577C338.608 95.4415 336.347 96.0463 335.604 97.3015C334.063 100.223 337.968 103.566 340.652 105.107C347.789 108.918 356.548 111.805 359.928 119.861C362.566 125.863 362.829 133.486 359.939 139.465C355.954 148.023 345.505 149.37 336.895 148C329.78 146.757 321.809 144.406 317.162 138.529C313.073 133.235 314.341 123.444 322.575 124.403C325.429 124.768 328.01 126.673 330.568 128.408C334.371 130.85 338.836 133.703 343.461 132.664C346.145 132.014 347.149 128.876 345.608 126.639C344.694 125.133 343.038 123.969 341.268 122.988C337.386 120.934 333.218 118.96 329.803 116.13C325.852 112.957 322.769 108.838 320.942 104.114C314.706 87.625 325.133 79.9225 340.572 80.0367H340.743L340.732 80.0481Z" fill="#FCF3E8"/>
<path d="M104.256 196.28C104.256 191.648 104.256 187.003 104.256 182.37C104.29 178.628 104.096 174.029 106.425 171.484C109.006 168.62 114.385 168.586 116.897 171.53C120.985 175.866 116.166 187.197 121.773 189.514C123.977 190.37 126.546 190.027 128.91 190.027C132.428 189.993 137.167 190.118 137.658 185.645C138.183 179.472 135.362 170.902 140.912 166.464C145.058 163.497 150.642 166.292 151.327 171.313C151.944 174.474 151.807 177.795 152.229 180.978C153.679 191.488 155.461 201.975 157.071 212.427C157.631 216.284 158.67 221.077 155.963 224.283C153.634 226.987 148.883 227.238 146.291 224.728C142.305 220.78 142.739 214.036 141.38 208.924C140.284 204.302 135.225 205.227 131.617 205.124C126.832 205.261 119.9 204.348 119.078 210.133C118.61 212.872 118.998 216.021 118.233 218.692C117.228 223.792 110.559 224.876 106.973 221.818C104.061 219.365 104.256 214.39 104.233 210.384C104.233 205.74 104.233 201.073 104.233 196.429V196.269L104.256 196.28Z" fill="#FCF3E8"/>
<path d="M228.066 121.903C228.066 117.305 228.066 112.695 228.066 108.085C227.952 102.859 228.158 96.1717 234.153 95.3273C241.416 94.3117 242.9 100.017 242.672 106.385C242.466 112.284 243.106 116.164 249.729 115.856C252.95 115.65 256.547 116.232 259.47 114.863C265.203 111.862 257.061 97.6095 265.18 92.0637C267.647 90.432 271.232 90.8884 273.242 93.0907C276.394 96.708 275.389 102.14 276.097 106.59C277.57 117.088 279.374 127.529 280.973 137.993C281.533 141.907 282.595 146.859 279.808 150.077C277.73 152.439 273.733 152.93 271.129 151.184C269.085 149.838 267.978 147.612 267.247 145.125C266.185 141.656 266.116 137.776 265.134 134.364C264.175 130.987 260.715 130.827 257.769 130.872C253.886 130.998 249.809 130.496 246.052 131.591C243.426 132.447 242.706 135.243 242.695 137.753C242.592 141.496 242.798 146.426 239.063 148.411C235.261 150.534 229.985 148.457 228.843 144.166C227.929 141.45 228.089 138.335 228.078 135.323V121.881L228.066 121.903Z" fill="#FCF3E8"/>
<path d="M165.83 231.574C165.727 224.42 168.331 217.642 170.101 210.772C171.699 205.033 173.298 199.281 174.897 193.542C175.673 190.746 176.461 187.95 177.238 185.155C178.962 178.228 181.486 172.477 189.388 174.508C193.317 175.478 195.098 179.244 196.217 182.861C200.968 198.209 207.671 212.838 213.541 227.763C214.911 231.392 215.904 236.185 212.89 239.174C210.377 241.685 206.015 241.536 203.514 239.06C200.157 236.07 199.632 230.354 195.84 228.197C193.682 226.907 190.667 226.919 187.812 226.862C186.625 226.862 185.369 226.93 184.261 227.307C181.018 228.265 180.755 232.008 179.853 234.792C178.608 239.711 172.327 241.65 168.525 238.41C166.629 236.766 165.967 234.188 165.841 231.734V231.574H165.83ZM187.641 205.5C186.899 205.683 186.568 207.566 186.328 208.422C186.145 209.449 185.711 210.51 186.225 211.354C186.568 211.776 187.458 211.845 188.383 211.799C189.16 211.742 190.165 211.594 190.21 210.658C190.131 209.14 189.286 207.783 188.623 206.379C188.418 206.037 188.132 205.523 187.732 205.489H187.653L187.641 205.5Z" fill="#FCF3E8"/>
<path d="M177.204 117.955C176.735 128.933 179.75 133.645 191.41 133.897C195.932 134.102 199.677 130.907 203.971 130.302C211.862 129.868 212.684 140.469 207.26 144.532C203.491 147.681 198.375 148.252 193.591 148.457C177.466 149.039 165.647 142.478 162.849 125.772C161.171 116.152 161.73 104.867 167.782 96.7424C173.355 89.6219 183.838 88.2526 192.449 88.6292C199.426 88.9943 208.505 92.5431 209.407 100.268C209.875 104.422 206.198 108.644 201.904 107.492C198.513 106.716 195.429 104.023 191.923 103.144C180.001 100.246 176.656 106.967 177.192 117.796V117.955H177.204Z" fill="#FCF3E8"/>
<path d="M120.152 123.923C120.152 119.382 120.152 114.737 120.14 110.082C120.106 108.404 120.037 106.567 119.124 105.152C118.165 103.498 115.652 103.064 113.46 103.167C110.274 103.235 106.836 103.498 104.187 102.208C100.693 100.668 99.4593 95.9207 101.298 92.6572C102.908 89.6561 106.608 88.7774 109.783 88.3438C120.837 86.7919 131.891 85.2514 142.956 83.7452C147.513 83.1746 154.159 82.0107 156.683 86.8718C159.503 93.3646 154.422 97.1873 148.392 98.1801C145.8 98.7278 143.185 99.093 140.627 99.6293C137.932 100.074 135.499 101.672 135.168 104.547C134.472 116.803 135.317 129.104 134.803 141.371C134.677 145.901 131.959 148.879 127.163 148.56C121.408 148.434 120.152 143.835 120.197 138.461C120.14 133.566 120.197 128.796 120.174 124.072V123.912H120.163L120.152 123.923Z" fill="#FCF3E8"/>
<path d="M235.341 228.676C230.202 228.596 228.352 224.203 228.443 219.707C228.112 210.727 228.831 201.758 228.021 192.857C227.427 189.422 223.647 189.411 220.849 189.593C217.88 189.685 214.466 189.902 211.885 188.464C209.635 187.277 208.311 184.755 208.482 182.108C208.607 178.433 211.622 176.026 215.025 175.33C228.9 173.196 242.866 171.108 256.844 169.681C259.778 169.579 263.136 170.275 264.632 172.922C266.219 175.569 265.728 179.472 263.433 181.617C260.669 184.276 256.147 184.652 252.424 185.371C249.307 185.93 246.178 186.216 244.511 188.441C243.277 190.073 243.197 192.412 243.186 194.443C243.209 202.397 243.209 210.316 243.266 218.246C243.528 224.123 242.444 228.836 235.489 228.665H235.329L235.341 228.676Z" fill="#FCF3E8"/>
<path d="M96.1248 133.463C96.1248 137.034 96.3531 141.234 93.1785 143.402C90.8489 144.897 87.1604 144.897 84.8308 143.356C82.3071 141.702 81.896 138.221 81.6562 135.311C80.8796 122.531 80.1602 109.739 79.5664 96.9476C79.2923 88.1612 78.0818 79.078 80.1716 70.4513C81.0852 65.9782 86.3154 63.0114 89.9011 66.2863C92.2078 68.4886 92.5504 72.3341 93.0072 75.4265C94.5374 94.6654 95.234 114.076 96.1248 133.314V133.474V133.463Z" fill="#FCF3E8"/>
<path d="M293.363 100.074C284.753 99.8804 285.598 91.8928 287.174 85.7422C288.761 78.6674 290.394 71.604 292.016 64.552C292.644 61.996 293.329 59.166 295.179 57.249C296.755 55.5602 299.427 54.8413 301.917 55.2178C308.049 55.9938 308.529 62.8518 307.295 67.7129C305.651 75.1528 303.949 82.5814 302.214 90.0328C301.232 94.814 299.37 100.246 293.535 100.074H293.363Z" fill="#FCF3E8"/>
</svg>
