<svg width="696" height="770" viewBox="0 0 696 770" fill="none" xmlns="http://www.w3.org/2000/svg">
<path d="M468.916 519.014C469.697 523.163 469.149 525.32 471.178 531.036C474.77 541.107 487.931 543.718 497.28 547.332C523.218 557.362 537.339 581.97 542.11 590.282C555.463 613.557 554.764 636.654 554.421 647.55C554.037 660.287 553.242 686.269 535.214 708.774C524.233 722.473 511.524 729.082 500.241 734.935C489.356 740.596 481.295 742.959 448.516 751.725C419.85 759.392 405.524 763.212 403.687 763.569C374.088 769.34 329.081 777.46 279.055 755.174C279.055 755.174 229.428 733.066 199.747 664.821C198.869 662.815 197.512 659.407 196.991 654.846C196.786 653.005 196.073 645.255 200.569 634.992C204.669 625.621 210.66 619.795 212.058 618.408C229.866 600.958 261.754 565.606 275.107 548.802C290.777 529.071 305.199 510.921 309.586 483.139C313.575 457.913 307.461 436.259 305.158 428.331C299.523 409.082 291.682 398.158 285.458 387.359C265.264 352.364 256.394 309.056 258.861 274.294C259.958 258.837 262.919 217.123 294.821 183.941C343.133 133.694 415.586 146.94 422.894 148.396C434.396 150.691 472.549 158.302 498.761 190.357C520.641 217.123 526.975 252.09 531.279 275.764C532.678 283.486 533.363 289.27 533.912 293.983C536.64 317.368 537.503 345.741 531.924 391.371C525.247 445.904 521.546 473.617 503.203 495.958C489.48 512.68 477.443 516.774 474.687 517.64C465.543 520.539 451.532 521.94 411.213 503.598C394.022 495.78 371.305 484.032 346.094 466.638" fill="#EDEDED"/>
<path d="M344.353 488.031L447.104 551.55L472.069 535.708L468.916 519.014L404.441 501.028L346.354 469.454L344.353 488.031Z" fill="#DADADA"/>
<path d="M376.008 756.548C362.668 776.718 308.133 775.179 259.547 742.904C210.961 710.629 186.709 659.833 200.048 639.663C213.388 619.493 263.591 629.303 312.191 661.578C360.777 693.853 389.36 736.378 376.008 756.548Z" fill="#DADADA"/>
<path d="M126.005 102.09C126.005 101.901 126.005 101.669 126.056 101.336C126.13 100.443 126.857 93.1381 132.349 87.5449C137.005 82.7933 145.141 79.2096 152.007 81.3424C160.415 83.9685 158.587 92.6375 170.563 102.859C173.369 105.267 183.847 114.19 191.932 111.209C195.486 109.896 195.846 107.306 201.412 104.658C207.184 101.887 209.042 103.613 212.978 101.901C223.67 97.2586 219.41 80.5516 230.91 74.5668C235.066 72.4049 237.68 73.5221 241.433 70.0908C245.538 66.333 244.95 62.655 248.82 60.7544C252.161 59.1149 253.512 61.3783 259.336 60.7761C267.039 59.9636 269.623 55.4949 273.031 56.9821C275.792 58.2081 274.903 61.5524 277.231 65.9848C282.195 75.5098 292.644 72.3469 296.492 80.2252C298.343 83.9975 297.234 90.3741 295.046 103.091C294.488 106.247 294.179 107.328 294.172 109.635C294.135 117.005 297.322 119.624 296.742 124.898C296.522 126.849 296.074 126.755 292.174 133.886C284.589 147.742 284.537 151.369 284.604 152.878C284.743 156.338 285.815 156.578 285.778 160.72C285.749 165.196 284.457 167.358 283.377 171.478C282.849 173.502 282.944 173.785 282.158 187.54C281.49 199.27 281.27 201.809 279.36 202.818C277.598 203.732 276.144 202.433 270.593 200.445C264.828 198.385 258.726 196.209 252.506 197.253C248.622 197.906 241.984 200.271 241.264 204.319C240.515 208.512 246.522 211.798 244.987 216.289C244.51 217.725 243.937 217.254 242.835 219.35C240.324 224.124 241.771 229.405 242.123 230.747C242.901 233.62 243.739 233.627 243.687 234.657C243.46 240.025 222.12 242.412 194.833 248.208C180.286 251.291 168.478 254.425 159.387 256.812C145.765 260.418 142.064 262.695 132.555 264.393C123.038 266.119 115.79 266.178 101.177 265.844C68.8967 265.082 52.7342 264.698 46.5366 263.109C20.4902 256.399 6.50136 241.933 1.81639 246.612C-0.929967 249.362 0.913194 257.327 4.21764 262.115C8.54279 268.39 15.1223 268.985 17.2078 276.036C17.9641 278.604 17.0829 278.51 17.7659 281.782C18.9701 287.462 23.0603 294.39 29.7059 297.538C35.4703 300.259 39.4797 298.402 41.5505 301.702C43.2835 304.459 40.919 306.505 42.8209 309.523C45.1046 313.157 49.7749 312.243 51.295 315.965C52.1027 317.967 50.9351 318.649 51.7649 320.208C53.6888 323.908 62.0307 323.545 66.5175 323.342C73.7432 323.023 76.0783 321.543 78.7219 323.364C81.2479 325.091 80.7192 327.535 82.4302 330.72C87.0638 339.302 101.126 340.245 101.816 340.296C114.425 340.999 121.092 332.439 126.783 336.386C129.691 338.395 128.707 341.101 132.658 343.364C135.852 345.207 138.07 344.337 142.784 346.636C145.809 348.123 145.758 348.878 147.498 349.661C156.31 353.637 168.265 338.511 175.762 342.508C178.142 343.763 178.281 345.998 181.644 346.948C185.008 347.898 186.821 346.252 189.178 347.666C191.749 349.204 190.743 351.859 192.938 353.02C195.942 354.631 198.526 350.06 204.482 350.474C208.036 350.713 209.6 352.505 212.016 351.431C213.543 350.728 213.808 349.618 215.071 347.949C218.103 343.952 223.883 340.731 228.266 341.681C230.675 342.204 230.22 343.43 233.913 345.178C237.343 346.81 238.635 346.15 243.805 347.289C251.17 348.907 251.544 350.88 255.099 350.321C257.39 349.973 256.868 349.219 263.117 345.911C269.153 342.719 269.8 343.357 272.781 341.05C275.571 338.888 276.078 337.503 278.2 337.104C280.844 336.611 282.966 338.17 284.802 339.215C292.659 343.705 304.269 343.792 310.716 339.73C313.44 338.018 312.963 336.981 315.9 335.544C321.004 333.056 324.602 335.065 327.209 332.316C329.287 330.103 328.34 327.397 330.058 326.737C331.82 326.055 333.656 328.652 336.417 330.466C343.797 335.356 354.202 332.403 359.255 330.981C362.735 329.995 366.914 328.805 371.04 325.417C376.533 320.927 376.563 316.973 381.196 314.956C385.492 313.106 387.034 315.812 393.687 315.689C405.04 315.449 405.385 307.419 419.388 304.575C422.179 304.017 427.422 303.269 429.529 299.483C430.388 297.93 429.896 297.342 430.704 296.233C433.098 292.99 439.288 295.282 447.652 294.876C451.28 294.695 457.573 294.375 463.205 290.944C470.13 286.715 469.704 281.673 475.938 278.416C479.808 276.399 483.252 276.66 489.839 277.052C504.261 277.879 507.015 282.855 515.43 281.339C523.537 279.874 522.575 274.992 530.682 273.098C542.064 270.436 545.809 279.627 558.836 278.778C570.225 278.046 571.29 270.748 583.215 270.929C589.295 271.009 587.864 272.895 601.089 275.108C615.716 277.538 620.967 275.848 622.78 275.144C624.044 274.672 625.74 273.874 628.479 273.272C631.196 272.663 633.436 272.576 638.759 272.54C643.048 272.503 646.191 272.554 647.123 272.554C659.805 272.67 666.245 272.634 671.114 268.825C673.985 266.591 672.861 265.837 675.321 264.313C681.857 260.272 687.592 267.113 697.013 264.349C701.162 263.131 706.655 259.866 708.065 254.969C708.718 252.735 707.976 252.002 708.836 250.827C712.037 246.431 724.278 253.823 729.007 249.355C732.473 246.09 727.715 240.381 731.328 235.063C735.491 228.97 744.825 231.98 747.336 227.2C749.708 222.658 744.142 214.519 738.62 209.521C727.128 199.11 712.008 199.016 696.778 198.537C677.128 197.914 657.587 194.816 637.944 194.801C569.542 194.801 587.915 187.409 548.24 187.242C539.442 187.228 516.649 187.373 502.058 176.063C498.754 173.517 492.468 168.627 490.478 160.64C488.774 153.712 491.946 151.224 489.692 146.813C485.58 138.725 473.082 143.324 465.32 134.923C458.755 127.821 464.821 121.401 458.572 111.593C452.183 101.546 444.113 105.558 432.995 94.9444C423.023 85.4121 425.534 78.3536 415.452 66.8626C410.033 60.6818 401.162 60.7834 393.474 51.418C391.646 49.1981 390.595 47.4788 389.979 46.5357C381.446 33.427 364.028 28.1676 336.755 14.7397C314.483 3.79276 309.842 -0.712235 299.635 0.658848C293.269 1.49311 292.431 3.61139 279.405 6.95567C261.465 11.5622 260.136 8.33401 252.359 12.2804C239.546 18.7804 243.034 27.5945 229.383 34.8996C223.156 38.2294 220.483 40.7685 215.173 45.8248C214.388 46.5792 213.095 47.8488 212.258 49.8437C210.51 53.986 212.075 57.8526 212.618 60.4207C214.057 67.0875 210.496 73.0433 205.187 81.9372C200.428 89.9098 194.906 99.1375 188.231 98.8183C183.7 98.6006 182.827 94.1899 174.455 85.724C167.913 79.1153 157.823 68.9011 147.638 70.2939C145.538 70.5986 142.079 72.8547 135.176 77.3815C124.646 84.2877 122.972 87.4651 122.326 88.8725C120.196 93.5806 120.182 99.3478 122.495 101.546C122.781 101.807 124.661 103.599 125.733 103.062C125.946 102.946 125.997 101.459 126.071 101.321" fill="#F28482"/>
<path d="M275.366 201.605L347.201 165.428L418.205 153.963L490.455 149.05L501.667 187.948L394.537 210.058L287.978 246.025L275.366 201.605Z" fill="#A2A54E"/>
<path d="M238.171 207.501C233.71 205.602 232.213 203.643 231.691 202.185C229.694 196.608 240.388 194.013 242.244 183.98C243.535 177.024 239.24 173.674 242.083 170.423C245.913 166.037 257.04 168.295 262.834 170.323C273.689 174.128 279.931 182.702 283.712 187.691C289.47 195.308 290.772 200.812 299.601 210.102C301.399 211.996 301.793 212.231 302.772 213.505C309.023 221.616 309.48 232.99 306.04 236.112C302.046 239.736 287.326 237.18 238.163 207.497L238.171 207.501Z" fill="#DB9796"/>
<path d="M252.398 266.94C248.872 269.402 246.395 269.195 244.765 268.523C238.539 265.948 239.945 254.468 230.759 245.015C224.393 238.461 219.506 239.641 217.359 234.597C214.465 227.794 220.812 219.722 224.952 216.189C232.714 209.563 243.465 210.717 249.78 211.273C259.407 212.115 265.311 215.253 277.719 214.688C280.245 214.571 280.625 214.411 282.249 214.538C292.553 215.322 303.907 223.788 305.707 229.251C307.797 235.599 299.82 246.623 252.39 266.939L252.398 266.94Z" fill="#D37A79"/>
<path d="M496.684 171.979L515.368 183.032L504.572 187.535L494.191 189.583L496.684 171.979Z" fill="#A2A54E"/>
<path d="M326.024 214.562C326.024 227.904 317.844 238.719 307.754 238.719C297.664 238.719 289.484 227.904 289.484 214.562C289.484 201.22 297.664 190.404 307.754 190.404C317.844 190.404 326.024 201.22 326.024 214.562Z" fill="#F8C470"/>
<path d="M316.889 213.743C316.889 222.11 311.684 228.893 305.263 228.893C298.841 228.893 293.636 222.11 293.636 213.743C293.636 205.376 298.841 198.593 305.263 198.593C311.684 198.593 316.889 205.376 316.889 213.743Z" fill="#F5D198"/>
</svg>
