<svg width="97" height="298" viewBox="0 0 97 298" fill="none" xmlns="http://www.w3.org/2000/svg">
<path d="M49.2959 9.38479C39.0733 -17.1645 45.5787 21.2862 34.4268 44.1736C25.9001 61.6733 35.936 66.6289 42.7906 67.0333C45.5786 67.6528 51.898 68.5257 54.8718 67.0609C58.5891 65.23 57.6598 66.1454 63.2358 58.8214C68.7557 51.5711 59.5185 35.9341 49.2959 9.38479Z" fill="#E07443"/>
<path d="M26.015 73.9804V115.715H73.0257V73.0529L26.015 73.9804Z" fill="#F1E6D3"/>
<path d="M96.031 281.521L87.6407 297.537H11.1961L0.0090332 283.405C13.0606 273.043 33.5701 281.521 39.1636 264.564C44.7958 247.489 41.9604 196.734 42.8926 169.414L24.2476 159.993V115.715H74.7953V159.993L56.8764 169.414C56.2549 197.048 56.5035 254.766 62.4699 264.564C68.4363 274.361 87.3299 279.951 96.031 281.521Z" fill="#F6BD60"/>
</svg>
