<svg width="348" height="369" viewBox="0 0 348 369" fill="none" xmlns="http://www.w3.org/2000/svg">
<path d="M238.868 12.8154H297.131L347.807 368.604H282.565L238.868 12.8154Z" fill="#797B3C"/>
<path d="M45.2665 0.0870361L292.579 11.9062L260.717 368.604H0.0522461L45.2665 0.0870361Z" fill="#A2A54E"/>
<path d="M68.5372 33.4232L264.965 42.2119L232.799 345.268L29.1836 338.904L68.5372 33.4232Z" fill="#483E3E"/>
<path d="M94.1331 72.9151C98.2393 71.7521 102.894 70.966 108.001 70.3423C108.255 73.6109 108.189 76.8473 107.95 80.066L102.901 80.4034L102.834 83.0844L106.665 83.1792C106.754 84.0354 106.666 84.903 106.493 85.7328L102.798 86.0315L102.705 89.8203C101.32 90.177 100.04 90.3691 98.5365 90.1588C96.6837 86.4658 94.9976 79.6928 94.1331 72.9151Z" fill="#F6ABAA"/>
<path d="M123.054 68.7413C122.932 71.0955 122.595 73.2526 122.015 75.2099L116.587 74.6617C116.414 75.7837 116.302 76.8826 116.246 78.0163L121.569 78.437C121.559 79.6923 121.447 80.7912 121.083 81.7769L116.128 81.1889C116.066 82.3804 115.997 83.6298 116.051 84.833L120.782 85.3108C120.879 86.3724 120.77 87.4424 120.606 88.4776C116.568 88.3912 113.962 88.0695 110.273 87.434C109.454 81.6542 109.547 75.2654 110.329 67.573C115.058 67.4956 118.222 67.8151 123.054 68.7413Z" fill="#EFEE9F"/>
<path d="M137.825 73.676C137.703 76.0301 137.366 78.1872 136.786 80.1445L131.359 79.5963C131.186 80.7183 131.074 81.8172 131.017 82.9509L136.341 83.3717C136.33 84.6269 136.218 85.7258 135.854 86.7116L130.9 86.1235C130.837 87.315 130.769 88.5644 130.822 89.7677L135.553 90.2455C135.65 91.3071 135.542 92.377 135.378 93.4122C131.34 93.3258 128.734 93.0042 125.045 92.3687C124.225 86.5888 124.318 80.2 125.101 72.5077C129.83 72.4302 132.993 72.7497 137.825 73.676Z" fill="#9BE2EC"/>
<path d="M143.108 76.9374C146.098 77.2394 149.504 78.343 151.996 79.7925C149.323 85.3073 148.251 88.3543 146.054 92.3687C149.247 92.6911 151.028 93.0464 153.907 93.863C152.972 96.135 151.98 97.817 150.831 99.5999C146.803 98.5504 143.67 97.0653 140.462 95.4558C140.964 87.0632 142.053 81.8268 143.108 76.9374Z" fill="#D1A2A2"/>
<path d="M167.982 75.4224C174.231 76.5501 178.576 78.5083 183.933 82.0585C183.039 84.5099 181.869 86.7874 180.467 88.7494L177.208 87.9236C175.911 91.4446 174.395 94.5343 172.771 97.2335C171.007 96.9969 169.478 96.4626 168.085 95.7377C168.639 92.3169 169.34 88.8819 170.212 85.4933L166.455 84.0913C166.645 81.072 166.959 78.562 167.982 75.4224Z" fill="#9AEBB4"/>
<path d="M188.857 77.891C191.594 78.3719 194.313 79.0263 196.979 79.9092C196.529 82.3178 195.957 84.7726 195.419 87.1724L199.096 87.9236C199.622 85.9315 200.225 83.7429 201.007 81.2508C203.473 82.0842 205.902 83.0015 208.364 84.1559C206.04 90.2901 203.507 95.8774 200.687 100.822L196.877 99.6486C197.205 97.2861 197.496 95.0074 197.94 92.6566L194.516 91.7265C194.034 93.869 193.46 96.0605 192.774 98.1825C190.601 97.9337 189.173 97.5558 187.577 97.1025C187.673 90.6847 187.949 84.2267 188.857 77.891Z" fill="#F49898"/>
<path d="M225.833 84.2527C225.711 86.6069 225.374 88.764 224.794 90.7213L219.367 90.1731C219.194 91.2951 219.082 92.394 219.025 93.5277L224.349 93.9484C224.338 95.2037 224.226 96.3026 223.862 97.2883L218.908 96.7003C218.845 97.8918 218.777 99.1412 218.83 100.344L223.561 100.822C223.658 101.884 223.55 102.954 223.386 103.989C219.348 103.903 216.742 103.581 213.053 102.945C212.233 97.1656 212.326 90.7768 213.109 83.0845C217.838 83.007 221.001 83.3265 225.833 84.2527Z" fill="#DDD84C"/>
<path d="M102.019 146.624L97.6745 145.513L98.2907 140.609C97.1539 141.984 95.8685 143.666 94.1772 145.014C93.2537 143.139 92.6664 141.706 92.3003 139.829C91.8133 141.445 91.4197 142.72 90.6543 144.191C88.4888 144.147 87.1654 143.897 85.4799 143.172C85.4764 137.153 86.0311 130.548 87.2821 124.305C89.8278 124.358 91.6101 124.421 94.5962 125.044C95.352 128.567 95.8205 132.033 96.1291 135.628C98.0263 132.256 99.7192 129.739 101.929 126.748C104.492 127.212 106.793 127.941 109.297 128.982C107.453 135.866 104.836 141.416 102.019 146.624Z" fill="#DA9393"/>
<path d="M121.051 145.555L120.436 142.951L115.552 142.253L114.477 144.745L109.365 142.826C110.142 139.223 111.19 136.7 113.234 132.173C114.909 128.398 115.729 127.254 117.262 124.867L123.427 125.081C124.46 127.61 125.74 132.326 126.101 135.693C126.485 139.121 126.662 141.71 126.613 145.357L121.051 145.555ZM116.624 139.498L120.048 139.844C119.833 137.923 119.401 135.542 118.918 134.237C118.197 135.275 117.119 137.795 116.624 139.498Z" fill="#94C8B5"/>
<path d="M146.054 133.454L141.138 140.554C140.53 139.908 139.152 139.039 137.137 139.536C135.362 139.971 134.159 141.427 134.133 143.411C134.116 145.308 135.269 146.944 137.62 147.181C139.361 147.357 140.224 146.656 140.606 145.788C139.608 145.512 138.731 145.19 138.108 144.981C137.983 144.472 137.996 143.48 138.073 142.436C140.181 141.889 141.932 141.686 144.777 141.973C145.102 145.687 144.295 147.855 142.913 150.199L140.704 150.298L140.546 149.551C140.066 149.941 138.832 150.254 137.032 150.073C132.592 149.624 129.256 145.226 129.266 139.939C129.287 133.397 134.614 129.173 139.226 129.376C143.78 129.573 145.541 132.439 146.054 133.454Z" fill="#C4A18D"/>
<path d="M146.935 127.164C149.583 126.789 151.694 126.505 155.052 126.348C154.854 133.193 154.345 140.212 153.39 146.718C152.043 146.991 150.737 147.152 149.384 147.19C148.217 140.499 147.508 137.097 146.935 127.164Z" fill="#F6ABAB"/>
<path d="M157.41 144.33C158.548 133.138 171.343 133.904 173.726 140.456L168.099 147.63C166.272 146.276 163.716 147.479 163.472 149.879C163.204 152.511 165.07 153.488 167.711 153.755L167.19 156.565C161.676 156.008 156.545 152.832 157.41 144.33Z" fill="#B7AFF6"/>
<path d="M183.532 130.046C186.179 129.671 188.29 129.388 191.649 129.23C191.451 136.076 190.942 143.095 189.987 149.601C188.64 149.874 187.333 150.034 185.98 150.073C184.814 143.381 184.104 139.979 183.532 130.046Z" fill="#EFEE9F"/>
<path d="M215.303 136.665C214.484 143.857 213.092 150.903 211.669 156.252C210.29 156.259 208.914 156.237 207.5 156.006C205.364 153.658 203.844 151.021 202.326 148.647C202.412 151.256 202.392 153.474 201.925 155.472C200.392 155.551 199.222 155.521 197.658 155.333C196.873 149.499 196.783 143.471 196.877 135.914C198.277 135.412 199.726 135.296 201.911 135.429C203.786 138.335 206.384 142.483 207.761 145.661C207.726 141.684 207.893 140.328 208.302 136.308C210.453 136.204 213.132 136.387 215.303 136.665Z" fill="#9BE2EC"/>
<path d="M67.3206 181.246C68.7036 180.334 70.209 179.084 71.8267 178.458L76.318 184.463C77.0485 183.047 77.6318 181.06 78.1011 179.618C80.2339 180.271 82.2938 181.064 84.2692 182.11C82.7273 188.908 80.05 195.912 75.5423 199.869C74.0364 199.395 72.2376 198.629 71.2112 197.766C71.6431 196.115 72.183 193.978 73.0422 191.874C70.9101 188.62 68.9871 185.329 67.3206 181.246Z" fill="#9AEBB4"/>
<path d="M93.9422 204.495C89.9078 204.087 85.3935 200.038 86.1026 193.068C86.7028 187.169 90.4504 182.902 97.2421 183.588C103.918 184.262 105.75 190.174 105.247 195.119C104.7 200.498 99.7471 205.081 93.9422 204.495ZM94.6035 200.588C96.0548 200.735 97.8155 199.568 98.0156 197.602C98.2039 195.751 97.3932 194.209 95.4485 194.012C93.5619 193.822 92.094 195.28 91.8998 197.189C91.738 198.779 92.804 200.406 94.6035 200.588Z" fill="#F49898"/>
<path d="M107.624 181.788C110.921 182.238 113.034 182.802 115.906 183.969C113.92 191.101 114.214 198.873 117.73 198.03C120.106 197.452 119.6 189.162 117.054 183.062C119.621 182.328 122.252 181.834 124.943 181.609C128.998 190.754 127.166 201.554 118.233 202.317C110.04 203.009 106.274 195.062 107.624 181.788Z" fill="#EFEE9F"/>
<path d="M129.525 205.454C128.824 198.517 128.972 191.579 129.238 185.792C133.75 183.53 143.438 184.86 144.777 190.721C145.769 195.087 142.34 198.246 141.28 198.577C141.73 200.493 142.285 201.951 142.705 204.74C141.665 205.161 140.504 205.628 139.313 205.8C137.591 204.282 136.42 203.112 134.968 201.241C134.931 202.757 134.79 204.145 134.643 205.591C132.695 205.715 131.2 205.711 129.525 205.454ZM135.032 197.158C136.492 197.217 138.388 196.737 138.376 195.129C138.375 193.697 136.535 193.044 135.037 193.36L135.032 197.158Z" fill="#D1A2A2"/>
<path d="M164.306 186.554C162.868 189.155 160.391 192.469 158.298 194.595C157.163 192.494 153.679 192.434 153.43 194.6C153.239 195.895 154.561 197.022 156.641 196.18C160.298 194.826 163.819 196.818 163.591 199.921C163.165 205.838 152.694 206.153 149.784 203.055C150.087 202.092 150.532 201.173 151.187 200.216C151.909 200.903 153.199 201.764 154.59 201.641C156.666 201.413 156.486 199.437 154.407 199.402C151.655 199.358 147.786 197.039 147.985 191.917C148.26 183.735 158.336 181.247 164.306 186.554Z" fill="#9BE2EC"/>
<path d="M179.376 193.042C179.254 195.396 178.917 197.554 178.337 199.511L172.909 198.963C172.737 200.085 172.625 201.184 172.568 202.317L177.891 202.738C177.881 203.993 177.769 205.092 177.405 206.078L172.451 205.49C172.388 206.681 172.32 207.931 172.373 209.134L177.104 209.612C177.201 210.673 177.093 211.743 176.929 212.779C172.891 212.692 170.284 212.37 166.596 211.735C165.776 205.955 165.869 199.566 166.652 191.874C171.381 191.797 174.544 192.116 179.376 193.042Z" fill="#B7AFF6"/>
<path d="M185.216 189.772C188.205 190.073 191.612 191.177 194.103 192.627C191.431 198.141 190.359 201.188 188.161 205.203C191.354 205.525 193.136 205.88 196.015 206.697C195.08 208.969 194.087 210.651 192.938 212.434C188.911 211.385 185.778 209.899 182.569 208.29C183.071 199.897 184.161 194.661 185.216 189.772Z" fill="#DDD84C"/>
<path d="M198.418 193.187C202.524 192.024 207.178 191.237 212.285 190.614C212.539 193.882 212.474 197.119 212.234 200.337L207.186 200.675L207.118 203.356L210.95 203.451C211.039 204.307 210.95 205.174 210.778 206.004L207.082 206.303L206.99 210.092C205.605 210.449 204.324 210.641 202.821 210.43C200.968 206.737 199.282 199.964 198.418 193.187Z" fill="#9AEBB4"/>
<path d="M222.501 209.625C222.492 209.711 222.455 209.795 222.42 209.85C222.414 209.908 222.408 209.966 222.373 210.021C221.662 212.111 219.697 213.841 215.557 214.474C215.366 214.046 215.303 213.514 215.303 212.93C215.94 212.439 216.44 211.846 216.833 211.156C216.001 210.4 215.735 209.263 215.82 208.424C215.938 207.267 216.884 205.172 219.584 205.444C221.819 205.67 222.736 207.603 222.583 209.107C222.566 209.281 222.548 209.454 222.501 209.625Z" fill="#EEA4A4"/>
<path d="M90.6908 236C93.6804 236.302 97.0868 237.405 99.5784 238.855C96.9061 244.37 95.8337 247.417 93.6366 251.431C96.8293 251.754 98.6111 252.109 101.49 252.925C100.555 255.197 99.5626 256.879 98.4135 258.662C94.3858 257.613 91.2527 256.128 88.0444 254.518C88.5464 246.126 89.6362 240.889 90.6908 236Z" fill="#9BE2EC"/>
<path d="M103.933 235.177C106.581 234.802 108.692 234.518 112.05 234.361C111.852 241.206 111.344 248.225 110.388 254.731C109.041 255.004 107.735 255.165 106.382 255.203C105.215 248.512 104.506 245.11 103.933 235.177Z" fill="#F49898"/>
<path d="M114.898 240.174C117.574 240.386 120.326 240.722 122.973 241.223L122.285 247.114C124.454 245.112 126.761 243.184 129.208 241.327C131.071 243.473 132.441 245.861 133.471 248.419C131.367 250.076 129.313 251.534 127.172 252.691C128.394 255.093 129.377 257.53 130.117 260.059C129.074 261.093 127.963 261.915 126.758 262.524C124.612 260.846 122.766 258.819 121.056 256.602L120.199 261.277L115.082 260.556C114.111 253.68 114.381 246.695 114.898 240.174Z" fill="#9BE2EC"/>
<path d="M149.784 245.033C149.662 247.387 149.325 249.544 148.744 251.502L143.317 250.953C143.144 252.075 143.032 253.174 142.976 254.308L148.299 254.729C148.288 255.984 148.177 257.083 147.812 258.069L142.858 257.481C142.795 258.672 142.727 259.922 142.781 261.125L147.512 261.603C147.609 262.664 147.5 263.734 147.336 264.769C143.298 264.683 140.692 264.361 137.003 263.726C136.184 257.946 136.277 251.557 137.059 243.865C141.788 243.787 144.952 244.107 149.784 245.033Z" fill="#EFEE9F"/>
<path d="M163.591 241.098C166.239 240.723 168.35 240.44 171.709 240.282C171.511 247.128 171.002 254.147 170.047 260.653C168.699 260.926 167.393 261.086 166.04 261.125C164.873 254.433 164.164 251.031 163.591 241.098Z" fill="#F6ABAB"/>
<path d="M195.355 246.87C194.535 254.062 193.144 261.109 191.72 266.457C190.341 266.464 188.965 266.442 187.552 266.212C185.416 263.863 183.895 261.226 182.377 258.853C182.464 261.461 182.443 263.68 181.976 265.678C180.443 265.757 179.274 265.726 177.709 265.539C176.925 259.704 176.834 253.677 176.929 246.119C178.328 245.618 179.777 245.501 181.963 245.634C183.837 248.541 186.435 252.689 187.813 255.866C187.777 251.89 187.945 250.533 188.354 246.514C190.505 246.41 193.184 246.592 195.355 246.87Z" fill="#9BE2EC"/>
<path d="M50.7541 298.042C51.8928 286.851 64.6875 287.617 67.0706 294.169L61.4438 301.342C59.6168 299.989 57.0607 301.192 56.8165 303.592C56.5487 306.224 58.4139 307.201 61.0552 307.468L60.5346 310.278C55.02 309.721 49.8891 306.544 50.7541 298.042Z" fill="#F49898"/>
<path d="M69.3716 284.689C72.1084 285.17 74.8274 285.824 77.494 286.707C77.0437 289.116 76.4714 291.571 75.934 293.971L79.6109 294.722C80.1361 292.73 80.74 290.541 81.5213 288.049C83.9876 288.882 86.416 289.8 88.879 290.954C86.5542 297.088 84.0211 302.676 81.2015 307.62L77.3917 306.447C77.72 304.084 78.0105 301.806 78.4549 299.455L75.0308 298.525C74.5489 300.667 73.9741 302.859 73.289 304.981C71.1151 304.732 69.6874 304.354 68.0915 303.901C68.1873 297.483 68.4631 291.025 69.3716 284.689Z" fill="#94C8B5"/>
<path d="M89.0211 294.097C91.6691 293.721 93.7798 293.438 97.1386 293.28C96.9406 300.126 96.4318 307.145 95.4766 313.651C94.1293 313.924 92.8228 314.084 91.4701 314.123C90.3035 307.432 89.594 304.029 89.0211 294.097Z" fill="#EFEE9F"/>
<path d="M101.793 294.722C104.783 295.024 108.189 296.127 110.681 297.577C108.009 303.092 106.936 306.139 104.739 310.153C107.932 310.475 109.714 310.831 112.592 311.647C111.657 313.919 110.665 315.601 109.516 317.384C105.488 316.335 102.355 314.85 99.1468 313.24C99.6488 304.847 100.739 299.611 101.793 294.722Z" fill="#DA9393"/>
<path d="M116.516 311.164C115.822 304.433 115.608 297.604 115.751 290.724C120.68 290.404 131.593 292.382 131.694 300.894C131.802 311.072 121.456 311.605 116.516 311.164ZM120.878 302.87L120.496 308.353C122.267 308.532 124.921 307.806 125.075 305.718C125.238 303.544 122.69 302.644 120.878 302.87Z" fill="#DDD84C"/>
<path d="M134.568 296.399C137.305 296.88 140.024 297.534 142.69 298.417C142.24 300.826 141.668 303.28 141.13 305.68L144.807 306.431C145.332 304.439 145.936 302.251 146.718 299.759C149.184 300.592 151.612 301.509 154.075 302.664C151.75 308.798 149.217 314.385 146.398 319.33L142.588 318.156C142.916 315.794 143.207 313.515 143.651 311.164L140.227 310.234C139.745 312.377 139.17 314.568 138.485 316.69C136.311 316.442 134.884 316.064 133.288 315.61C133.384 309.193 133.659 302.734 134.568 296.399Z" fill="#94C8B5"/>
<path d="M162.98 323.73C158.945 323.322 154.431 319.273 155.14 312.303C155.74 306.404 159.488 302.137 166.28 302.823C172.955 303.497 174.788 309.409 174.285 314.354C173.737 319.733 168.785 324.316 162.98 323.73ZM163.641 319.823C165.092 319.97 166.853 318.804 167.053 316.837C167.241 314.986 166.431 313.444 164.486 313.247C162.599 313.057 161.131 314.515 160.937 316.424C160.775 318.015 161.842 319.641 163.641 319.823Z" fill="#F6ABAA"/>
<path d="M184.531 319.12C180.496 318.713 175.982 314.664 176.691 307.694C177.291 301.795 181.039 297.528 187.831 298.214C194.506 298.888 196.339 304.799 195.836 309.745C195.288 315.123 190.336 319.707 184.531 319.12ZM185.192 315.214C186.643 315.36 188.404 314.194 188.604 312.228C188.792 310.377 187.982 308.834 186.037 308.638C184.151 308.448 182.683 309.906 182.488 311.815C182.327 313.405 183.393 315.032 185.192 315.214Z" fill="#D1A2A2"/>
<path d="M198.595 325.679C197.901 318.948 197.687 312.119 197.83 305.238C202.759 304.918 213.671 306.897 213.773 315.409C213.881 325.587 203.535 326.12 198.595 325.679ZM202.957 317.384L202.575 322.867C204.346 323.046 207 322.321 207.154 320.233C207.316 318.058 204.769 317.158 202.957 317.384Z" fill="#EFEE9F"/>
</svg>
