<svg width="75" height="293" viewBox="0 0 75 293" fill="none" xmlns="http://www.w3.org/2000/svg">
<path d="M0.564575 135.129C0.564575 133.66 1.60316 132.4 3.03086 132.14L70.9967 119.719C72.8361 119.383 74.5274 120.815 74.5274 122.709V289.212C74.5274 290.89 73.1849 292.25 71.5289 292.25H3.56307C1.90704 292.25 0.564575 290.89 0.564575 289.212V135.129Z" fill="#FEF1E0"/>
<path d="M38.6637 13.6143C24.5094 -25.6991 33.5169 31.2376 18.0758 65.1285C6.26952 91.0415 20.1653 98.3797 29.6564 98.9784C33.5167 99.8958 42.2666 101.188 46.3843 99.0194C51.5313 96.3082 50.2445 97.6636 57.9651 86.8185C65.608 76.0825 52.8181 52.9277 38.6637 13.6143Z" fill="#E07443"/>
</svg>
