<svg width="76" height="247" viewBox="0 0 76 247" fill="none" xmlns="http://www.w3.org/2000/svg">
<path d="M0.205566 118.901C0.205566 117.179 1.6731 115.809 3.42061 115.9L69.7468 119.347C71.3417 119.43 72.6024 120.708 72.6389 122.279L75.4652 243.879C75.5044 245.565 74.126 246.952 72.412 246.952H3.25953C1.57287 246.952 0.205566 245.607 0.205566 243.947V118.901Z" fill="#FEF1E0"/>
<path d="M39.7004 13.3864C24.7598 -24.9059 34.2677 30.5519 17.9687 63.5626C5.50657 88.8025 20.1744 95.9501 30.1927 96.5333C34.2675 97.4268 43.5035 98.6858 47.8499 96.5732C53.2829 93.9324 51.9246 95.2527 60.0741 84.6893C68.1417 74.232 54.6411 51.6787 39.7004 13.3864Z" fill="#E07443"/>
</svg>
